<?xml version="1.0" encoding="UTF-8"?>
<svg width="101px" height="1726px" style="padding-bottom: 100px;padding-top: 100px" viewBox="0 0 101 1526" version="1.1" xmlns="http://www.w3.org/2000/svg" xmlns:xlink="http://www.w3.org/1999/xlink">
    <title>4C860958-B217-48BF-8EC5-F7649D06412B</title>
    <defs>
        <filter id="filter-1">
            <feColorMatrix in="SourceGraphic" type="matrix" values="0 0 0 0 0.833722 0 0 0 0 0.841381 0 0 0 0 0.864357 0 0 0 1.000000 0"></feColorMatrix>
        </filter>
    </defs>
    <g id="Page-1" stroke="none" stroke-width="1" fill="none" fill-rule="evenodd">
        <g id="TV-Logo-Copy" transform="translate(-150.000000, -825.000000)" filter="url(#filter-1)">
            <g transform="translate(200.500000, 1588.000000) rotate(90.000000) translate(-200.500000, -1588.000000) translate(-562.000000, 1538.000000)">
                <path d="M884.890195,74.6448087 C886.110355,73.7704918 886.749886,72.1984027 886.749886,69.8949138 L886.749886,30.0966793 C886.749886,28.5245902 886.043035,27.2215216 884.528355,26.1874737 C883.013674,25.136612 880.63226,24.6153846 877.476676,24.6153846 L814.120957,24.6153846 L814.566947,69.8949138 C814.566947,71.7360235 815.206478,73.1651955 816.569691,74.2496847 C817.865584,75.3173602 820.171264,75.8554014 823.326849,75.8554014 L877.838516,75.8554014 C881.288622,75.8554014 883.594302,75.4686843 884.890195,74.6448087 Z M609.058465,98.7473728 L609.058465,0.865910046 L657.805932,0.865910046 L715.262811,73.7368642 L715.750875,75.0063052 L715.750875,0.865910046 L743.873443,0.865910046 L743.873443,98.7473728 L695.555135,98.7473728 L637.526043,25.372005 L637.181033,24.4976881 L637.181033,98.7473728 L609.058465,98.7473728 Z M1454.44372,99.1424968 L1454.44372,23.5981505 L1412.44499,23.5981505 L1412.44499,0.865910046 L1524.97734,0.865910046 L1524.97734,10.7692308 C1525.33918,18.4699454 1521.38418,23.1021438 1511.96791,23.5981505 L1484.35024,23.5981505 L1484.35024,80.2437999 C1483.9295,91.5594788 1479.60424,99.4535519 1465.87955,99.1424968 L1454.44372,99.1424968 Z M1264.88987,83.9848676 L1264.88987,0.865910046 L1344.3601,0.865910046 C1351.10885,0.865910046 1356.71316,1.36191677 1361.18989,2.32870954 C1365.64136,3.34594367 1369.30184,4.99369483 1372.11242,7.2887768 C1374.99031,9.59226566 1377.06037,12.6775956 1378.36468,16.603615 C1379.72789,20.5044136 1380.38425,25.4644809 1380.38425,31.5090374 C1380.38425,37.5031526 1379.87095,42.530475 1378.78543,46.6330391 C1377.78405,50.6851618 1376.059,53.989071 1373.84588,56.5027322 C1371.5402,58.9827659 1368.51926,60.8490963 1364.76622,62.0008407 C1360.95427,63.1525851 1356.2251,63.7578815 1350.60395,63.7578815 L1350.60395,64.2202606 L1389.64905,99.1424968 L1367.72826,99.1424968 C1358.22785,98.4867591 1349.1061,97.0239596 1342.12174,90.2227827 L1298.91127,45.615805 L1341.84405,45.615805 C1344.78085,45.615805 1347.44837,44.7583018 1349.74563,43.001261 C1351.984,41.2274065 1353.13684,38.6885246 1353.13684,35.3509878 C1353.13684,32.4253888 1352.05131,30.0294241 1349.81295,28.1630937 C1347.65874,26.2883565 1345.08378,25.372005 1342.20589,25.372005 L1294.80481,25.372005 L1294.80481,99.1424968 L1283.30165,99.1424968 C1272.45486,98.4867591 1265.6977,94.0647331 1264.88987,83.9848676 Z M1116.84668,77.6965111 L1116.84668,0.865910046 L1221.83087,0.865910046 L1221.83087,23.5981505 L1146.68589,23.5981505 L1146.68589,40.1261034 L1221.25866,40.1261034 L1221.25866,59.9831862 L1146.68589,59.9831862 L1146.68589,67.2047079 C1146.68589,74.0395124 1149.42073,76.2505254 1155.10078,76.2505254 L1221.83087,76.2505254 L1221.83087,99.1424968 L1138.63284,99.1424968 C1125.55609,99.3526692 1117.78073,92.7700715 1116.84668,77.6965111 Z M297.12685,92.2488441 C292.019011,87.6839008 289.502958,80.9331652 289.502958,71.9798235 C289.502958,71.6519546 289.502958,66.9104666 289.502958,57.7637663 L289.502958,42.2446406 C289.502958,33.0895334 289.502958,28.3732661 289.502958,28.1294662 C289.502958,19.1088693 292.019011,12.3160992 297.12685,7.71752837 C302.158955,3.16939891 310.001634,0.865910046 320.570738,0.865910046 L402.893622,0.865910046 L402.893622,25.0105086 L323.869375,25.0105086 C320.991482,25.0105086 318.904589,25.4644809 317.474058,26.5153426 C316.110845,27.4905422 315.454484,28.7347625 315.454484,30.2480034 L315.109473,38.3522488 L315.109473,61.6393443 L315.454484,69.3568726 C315.454484,71.1979823 316.110845,72.6607818 317.474058,73.7368642 C318.778366,74.8213535 320.932578,75.3678016 323.869375,75.3678016 L402.893622,75.3678016 L402.893622,99.1424968 L320.570738,99.1424968 C310.001634,99.1424968 302.158955,96.8474149 297.12685,92.2488441 Z M143.757036,77.6965111 L143.757036,0.865910046 L248.724394,0.865910046 L248.724394,23.5981505 L173.604657,23.5981505 L173.604657,40.1261034 L248.23633,40.1261034 L248.23633,59.9831862 L173.604657,59.9831862 L173.604657,67.2047079 C173.604657,74.0395124 176.398401,76.2505254 182.002719,76.2505254 L248.724394,76.2505254 L248.724394,99.1424968 L165.551606,99.1424968 C152.449619,99.3526692 144.758409,92.7700715 143.757036,77.6965111 Z M40.7251042,80.2437999 L40.7251042,23.5981505 L13.1074302,23.5981505 C3.61543249,23.1021438 -0.263832519,18.4699454 0.0138589021,10.7692308 L0.0138589021,0.865910046 L112.546204,0.865910046 L112.546204,23.5981505 L70.5558948,23.5981505 L70.5558948,99.1424968 L59.1957912,99.1424968 C45.3869542,99.4535519 41.0701148,91.5594788 40.7251042,80.2437999 Z M443.604867,99.1424968 L443.604867,0.865910046 L473.511392,0.865910046 L473.511392,53.0559058 C476.885763,46.9104666 483.937442,36.2421185 498.528864,36.2421185 L537.27944,36.2421185 L537.27944,0.865910046 L567.12706,0.865910046 L567.12706,99.1424968 L537.27944,99.1424968 L537.27944,62.4968474 L473.511392,62.4968474 L473.511392,99.1424968 L443.604867,99.1424968 Z M993.955605,99.8150483 L941.18582,0.865910046 L962.89624,0.865910046 C970.730504,0.865910046 975.69529,3.48045397 978.421715,8.70113493 L1012.59459,74.4934847 L1046.02695,10.1303069 C1049.40974,2.72383354 1056.52874,0.865910046 1062.91564,0.865910046 L1083.98653,0.865910046 L1032.21812,99.8150483 L993.955605,99.8150483 Z M824.984582,99.8150483 C819.531733,99.6637243 814.777319,99.3862968 810.813905,98.8818831 C806.875736,98.3858764 803.636002,97.5451871 800.968482,96.3682219 C798.376695,95.2164775 796.071015,93.5266919 793.925218,91.3745271 C791.476484,89.1551072 789.827165,86.6834805 788.960432,84.0857503 C788.102113,81.4291719 787.597219,78.1252627 787.597219,74.1319882 L787.597219,0.428751576 C793.277271,0.243799916 839.214164,0 850.229257,0 C861.160201,0 869.575093,0.0840689365 875.322464,0.210172341 C881.078249,0.395124002 885.958886,0.756620429 889.838151,1.29466162 C893.801565,1.84110971 897.100203,2.65657839 899.767724,3.80832282 C902.35951,4.92643968 904.73251,6.53215637 906.878307,8.61706599 C909.268136,10.8532997 910.993189,13.3669609 911.843093,16.0907945 C912.785561,18.8650694 913.206305,22.2362337 913.206305,26.2547289 C913.206305,35.7461118 913.206305,46.9440942 913.206305,59.8823035 L913.206305,74.1319882 C913.206305,78.1252627 912.785561,81.4291719 911.843093,84.0857503 C910.993189,86.6834805 909.268136,89.1551072 906.878307,91.3745271 C904.73251,93.5266919 902.426829,95.2164775 899.843458,96.3682219 C897.31899,97.5451871 894.096087,98.3858764 890.199992,98.8818831 C886.388046,99.3862968 881.717781,99.6637243 876.180782,99.8150483 C870.643784,99.9663724 862.094254,100 850.591097,100 C839.087941,100 830.521581,99.9663724 824.984582,99.8150483 L824.984582,99.8150483 Z" id="Fill-152-Copy-2" fill="#FFFFFF"></path>
            </g>
        </g>
    </g>
</svg>