<?xml version="1.0" encoding="UTF-8"?>
<svg width="70px" height="70px" viewBox="0 0 70 70" version="1.1" xmlns="http://www.w3.org/2000/svg" xmlns:xlink="http://www.w3.org/1999/xlink">
    <title>gdpr copy</title>
    <g id="Page-1" stroke="none" stroke-width="1" fill="none" fill-rule="evenodd" opacity="0.6">
        <g id="gdpr-copy" fill="#FFFFFF" fill-rule="nonzero">
            <path d="M69.4970433,34.916875 L69.1605048,34.916875 C69.1603365,44.3741106 65.3281731,52.9327885 59.1308173,59.1308173 C52.9327885,65.3281731 44.3741106,69.1603365 34.916875,69.1605048 C25.4596394,69.1603365 16.9009615,65.3281731 10.703101,59.1308173 C4.50524038,52.9327885 0.673245192,44.3741106 0.673076923,34.916875 C0.673245192,25.4596394 4.50524038,16.9009615 10.7027644,10.7029327 C16.900625,4.50540865 25.4594712,0.673245192 34.9167067,0.673076923 C44.3739423,0.673245192 52.9326202,4.50540865 59.130649,10.7027644 C65.3280048,16.9007933 69.1601683,25.4594712 69.1603365,34.9167067 L69.4970433,34.9167067 L69.8335817,34.9167067 C69.8335817,15.6325481 54.2008654,0 34.9167067,0 C15.6325481,0 0,15.6325481 0,34.916875 C0,54.2010337 15.6325481,69.83375 34.9167067,69.83375 C54.2010337,69.83375 69.8335817,54.2012019 69.8335817,34.916875 L69.4970433,34.916875 Z" id="Path"></path>
            <path d="M34.9217548,2.55298077 C52.8274519,2.55298077 67.3428606,17.0682212 67.3428606,34.97375 C67.3428606,52.8792788 52.8274519,67.3945192 34.9217548,67.3945192 C17.0165625,67.3945192 2.50115385,52.8792788 2.50115385,34.97375 C2.50115385,17.0682212 17.0165625,2.55298077 34.9217548,2.55298077 Z M34.9219231,11.309375 C21.8524519,11.309375 11.2575481,21.9041106 11.2575481,34.9739183 C11.2575481,46.0372837 18.8501923,55.3267548 29.1088942,57.9177644 L29.1088942,57.9177644 L35.2377644,63.7402163 L41.1833894,57.7991346 C51.2139183,55.0538221 58.5862981,45.8754087 58.5862981,34.9740865 C58.5862981,21.9042788 47.9913942,11.309375 34.9219231,11.309375 Z M15.8464183,52.3303846 L14.3008654,53.954351 L15.5433654,55.1371154 L16.0690385,54.5846875 L15.4755529,54.019976 L16.0976442,53.3664183 C16.2675962,53.4739423 16.4220673,53.59375 16.5603846,53.7253365 C16.82625,53.9782452 16.9433654,54.2604327 16.9120673,54.5724038 C16.880601,54.8840385 16.7030769,55.209976 16.3796635,55.5498798 C16.0698798,55.8754808 15.7365385,56.0526683 15.3803125,56.0809375 C15.0240865,56.1095433 14.7020192,55.9867067 14.4151202,55.7136058 C14.1682692,55.4783654 13.9846875,55.1948317 13.8647115,54.8630048 L13.8647115,54.8630048 L13.1386298,55.1842308 C13.3146394,55.5969952 13.5635096,55.9564183 13.8849038,56.2623317 C14.3976202,56.7503125 14.9332212,56.9904327 15.4917067,56.9828606 C16.0501923,56.9752885 16.5701442,56.7188462 17.0513942,56.2131971 C17.546274,55.6932452 17.8012019,55.1758173 17.8163462,54.6607452 C17.8314904,54.1455048 17.6028125,53.6630769 17.1301442,53.2129567 C16.944375,53.036274 16.7498558,52.8765865 16.5467548,52.7335577 C16.3439904,52.5908654 16.110601,52.4564183 15.8464183,52.3303846 L15.8464183,52.3303846 Z M13.8796875,49.5541106 L13.2831731,50.0205529 L14.2524038,51.2601923 L13.3738702,51.946899 L12.4719471,50.7935817 L11.8803125,51.2561538 L12.7820673,52.4098077 L12.0341106,52.994375 L11.0648798,51.7549038 L10.4729087,52.217476 L12.0070192,54.1794952 L15.4136298,51.5159615 L13.8796875,49.5541106 Z M56.9093269,48.1276923 L56.4344712,48.7953846 L58.0927644,49.9749519 C58.2936779,50.1178125 58.6403125,50.341274 59.1328365,50.6456731 L59.1328365,50.6456731 L59.117524,50.6673798 L55.3614183,50.3042548 L54.685649,51.2539663 L58.2097115,53.7605048 L58.6884375,53.088101 L57.0202163,51.9016346 L57.0202163,51.9016346 L56.8512293,51.7848242 C56.6554823,51.6524069 56.3794471,51.473137 56.0230529,51.2467308 L56.0230529,51.2467308 L56.0351683,51.2299038 L59.7630048,51.5767067 L60.4333894,50.6340625 L56.9093269,48.1276923 Z M11.569351,45.6043269 L7.78800481,47.703149 L8.18831731,48.4246875 L9.97819712,47.4313942 C10.1816346,47.3184856 10.5217067,47.1126923 10.9989183,46.8141827 L10.9989183,46.8141827 L11.0088462,46.8321875 L9.08855769,50.0462981 L9.64990385,51.0575962 L13.4309135,48.9589423 L13.033125,48.2426202 L11.2541827,49.230024 C11.0384615,49.3498317 10.6872837,49.5660577 10.2003125,49.8792067 L10.2003125,49.8792067 L10.1873558,49.8558173 L12.1345673,46.6235337 L11.569351,45.6043269 Z M60.9927163,44.7010577 C60.3401683,44.3966587 59.7646875,44.3241346 59.266274,44.4833173 C58.7680288,44.6425 58.3784856,45.0222837 58.0984856,45.6226683 C57.8183173,46.2228846 57.7772596,46.7653846 57.9758173,47.2496635 C58.174375,47.733774 58.5977404,48.1273558 59.2464183,48.4299038 C59.8967788,48.733125 60.4699038,48.8063221 60.9652885,48.6494952 C61.4608413,48.4919952 61.8490385,48.1120433 62.1300481,47.5101442 C62.4110577,46.9077404 62.4546394,46.3650721 62.2611298,45.8819712 C62.0676202,45.3990385 61.6447596,45.0052885 60.9927163,44.7010577 Z M59.4754327,45.3573077 C59.7744471,45.2947115 60.1427885,45.3655529 60.5807933,45.5696635 C61.0184615,45.7741106 61.3095673,46.011875 61.4536058,46.2836298 C61.597476,46.5555529 61.5927644,46.8564183 61.4384615,47.1874038 C61.1308654,47.8465144 60.5356971,47.9703606 59.6529567,47.5586058 C58.7717308,47.147524 58.4858413,46.6105769 58.7951202,45.9475962 C58.9495913,45.6169471 59.1760817,45.4202404 59.4754327,45.3573077 Z M10.380024,42.3969471 L9.66908654,42.6577644 L10.2110817,44.1348317 L9.16427885,44.5189904 L8.65997596,43.144399 L7.95442308,43.4031971 L8.4590625,44.7779567 L7.56774038,45.1050721 L7.02540865,43.6276683 L6.32019231,43.8866346 L7.17819712,46.2247356 L11.2376923,44.7350481 L10.380024,42.3969471 Z M59.4843886,42.1567205 L59.2054274,43.0299982 L63.3248041,44.3458982 L63.6037653,43.4726205 L59.4843886,42.1567205 Z M9.18026442,34.2710577 L4.93971154,36.0651442 L5.00802885,37.1837981 L9.31168126,38.4053991 C9.04125195,38.6929619 8.55424726,39.2020997 7.85110577,39.9328125 C7.68653846,39.7066587 7.49269231,39.5459615 7.26923077,39.4513942 C7.04576923,39.3568269 6.80985577,39.3368029 6.56132212,39.3908173 C6.13560096,39.4835337 5.84819712,39.6906731 5.69927885,40.0115625 C5.55036058,40.3327885 5.53824519,40.7803846 5.6634375,41.354351 L5.6634375,41.354351 L5.93199519,42.5855769 L10.1570673,41.6641346 L9.961875,40.768101 L8.34026442,41.1218029 L8.23644231,40.6450962 L9.63778846,39.2827885 L9.42815385,38.3229808 L9.37495192,37.4565625 L8.32848558,37.2065144 L8.23257212,35.6328606 L9.24084135,35.2571154 L9.18026442,34.2710577 Z M63.8415144,39.1646635 L63.601226,40.3139423 L60.1153606,39.585 L59.9277404,40.4827163 L63.4136058,41.2114904 L63.173149,42.3607692 L63.9200962,42.5170913 L64.5882933,39.3208173 L63.8415144,39.1646635 Z M6.78158654,40.2902163 C6.98401442,40.2459615 7.14706731,40.2809615 7.27091346,40.3953846 C7.39459135,40.5096394 7.48747596,40.7081971 7.54923077,40.9915625 L7.54923077,40.9915625 L7.61216346,41.2804808 L6.47079327,41.5295192 L6.4115625,41.2579327 C6.34846154,40.9688462 6.34459135,40.7460577 6.39911058,40.5899038 C6.45396635,40.43375 6.58151442,40.3337981 6.78158654,40.2902163 Z M60.6427163,34.2929327 L60.5818029,35.2789904 L61.5900721,35.6554087 L61.4928125,37.2288942 L60.4460096,37.4784375 L60.3852644,38.4644952 L64.8134375,37.2026442 L64.8824279,36.0838221 L60.6427163,34.2929327 Z M62.3432452,35.9328846 C63.3183654,36.301226 63.929351,36.5256971 64.1773798,36.6061298 C64.1056971,36.6174038 64.0075962,36.6377644 63.8832452,36.6665385 C63.7590625,36.6954808 63.2227885,36.8258894 62.2739183,37.0577644 L62.2739183,37.0577644 Z M7.47822115,35.8982212 L7.54704327,37.023101 C6.53439904,36.7767548 5.8996875,36.6288462 5.64375,36.5792067 C5.71375,36.5591827 5.80865385,36.5273798 5.92829327,36.4832933 C6.04826923,36.4395433 6.56451923,36.2446875 7.47822115,35.8982212 L7.47822115,35.8982212 Z M64.6907692,31.2097356 L60.3810577,31.563774 L60.5998077,34.2257933 L61.3543269,34.1638702 L61.2111298,32.4157212 L64.7661538,32.1236058 L64.6907692,31.2097356 Z M8.71651442,31.1473077 L8.57197115,32.8952885 L5.01694712,32.6013221 L4.94139423,33.5153606 L9.25110577,33.8715865 L9.47120192,31.2097356 L8.71651442,31.1473077 Z M63.6749279,26.212476 L60.9634375,26.8539183 C60.4816827,26.9678365 60.1377404,27.2071154 59.931274,27.5722596 C59.7246394,27.9370673 59.6854327,28.3902163 59.8136538,28.9313702 C59.8984615,29.2902885 60.0345913,29.5861058 60.2212019,29.8196635 C60.408149,30.0532212 60.634976,30.2115625 60.9021875,30.2953606 C61.1690625,30.3789904 61.4578125,30.384375 61.768774,30.3106731 L61.768774,30.3106731 L64.4920433,29.6665385 L64.2815385,28.7770673 L61.711226,29.385024 C61.3847837,29.4622596 61.1298558,29.4528365 60.946274,29.3575962 C60.7623558,29.262524 60.6361538,29.0688462 60.5675,28.7772356 C60.4961538,28.4758654 60.5207212,28.2419712 60.6415385,28.0758894 C60.7621875,27.9093029 60.9848077,27.7878125 61.3088942,27.7110817 L61.3088942,27.7110817 L63.8852644,27.1017788 L63.6749279,26.212476 Z M8.75841346,25.0561298 C8.1178125,24.8651442 7.56302885,24.9031731 7.09456731,25.1708894 C6.62543269,25.4384375 6.29040865,25.9102644 6.08865385,26.586875 L6.08865385,26.586875 L5.70028846,27.8877644 L9.84425481,29.124375 L10.1942548,27.9508654 C10.4128365,27.2177163 10.3990385,26.602524 10.1520192,26.1062981 C9.905,25.6097356 9.44040865,25.2597356 8.75841346,25.0561298 Z M6.82197115,26.7564904 C7.05620192,25.9703365 7.61855769,25.710024 8.50870192,25.9755529 C9.41769231,26.2468029 9.74564904,26.8057933 9.49324519,27.6523558 L9.49324519,27.6523558 L9.38050481,28.0291106 L6.68230769,27.2241106 Z M61.5643269,22.227524 C61.0497596,22.0107933 60.4705769,22.0375481 59.8269471,22.308125 C59.1653125,22.586274 58.7246154,22.9583173 58.504351,23.4240865 C58.28375,23.8901923 58.3005769,24.4239423 58.5533173,25.0256731 C58.6525962,25.2619231 58.766851,25.4860577 58.8954087,25.6982452 C59.0243029,25.9102644 59.1841587,26.1271635 59.3758173,26.3482692 L59.3758173,26.3482692 L61.4425,25.4793269 L60.7775,23.8979327 L60.0737981,24.19375 L60.3913221,24.9492788 L59.5599038,25.2986058 C59.4471635,25.1321875 59.3534375,24.9607212 59.279399,24.784375 C59.1373798,24.4464904 59.1429327,24.1407452 59.2967308,23.8676442 C59.4503606,23.5945433 59.7434856,23.366875 60.1761058,23.184976 C60.5907212,23.0108173 60.9666346,22.981875 61.3048558,23.0988221 C61.6427404,23.215601 61.8882452,23.4565625 62.0420433,23.8220433 C62.1741346,24.1365385 62.2288221,24.4695433 62.2054327,24.8217308 L62.2054327,24.8217308 L62.9998317,24.8181971 C63.0037019,24.3694231 62.9199038,23.9406731 62.7477644,23.5316106 C62.4736538,22.8788942 62.0790625,22.4444231 61.5643269,22.227524 Z M8.17182692,21.2266587 L7.68283654,22.2354327 L10.9242067,25.5030529 L11.3553125,24.6140865 L10.5659615,23.8827885 L11.2538462,22.4641106 L12.3166346,22.6312019 L12.7475721,21.7422356 L8.17182692,21.2266587 Z M8.53394231,22.0200481 C8.60427885,22.036875 8.70288462,22.0555529 8.82875,22.0759135 C8.95461538,22.0964423 9.50048077,22.1797356 10.4660096,22.325625 L10.4660096,22.325625 L9.97466346,23.3399519 C9.21290865,22.6286779 8.7325,22.1886538 8.53394231,22.0200481 Z M59.950625,18.2910337 L56.2503846,20.5286779 L57.5391587,22.659976 L58.1871635,22.2680769 L57.3727404,20.9217548 L58.3269952,20.3445913 L59.0847115,21.597524 L59.7275,21.2086538 L58.9696154,19.9557212 L59.7821875,19.4645433 L60.5964423,20.8108654 L61.2395673,20.4223317 L59.950625,18.2910337 Z M11.011875,16.6504087 L9.18262019,19.3553365 L9.81463942,19.7829087 L10.4725721,18.8101442 L13.4226683,20.8054808 L13.936226,20.0459135 L10.9862981,18.0507452 L11.6442308,17.0779808 L11.011875,16.6504087 Z M57.238125,14.755024 L53.8848558,17.4856971 L54.4638702,18.1968029 L55.7504567,17.1489904 L56.0590625,17.5275962 L55.4241827,19.3756971 L56.0666346,20.1647115 C56.1620433,19.8323798 56.3814663,19.1069712 56.7245673,17.9886538 C56.9734375,18.1165385 57.2189423,18.1720673 57.4610817,18.1554087 C57.7032212,18.13875 57.9228125,18.0502404 58.120024,17.8895433 C58.4579087,17.6147596 58.6207933,17.3000962 58.6086779,16.9463942 C58.5965625,16.5926923 58.4049038,16.1878365 58.0338702,15.7321635 L58.0338702,15.7321635 L57.238125,14.755024 Z M13.1251683,14.1896394 L12.370649,15.0185337 L14.5539423,19.0704567 L15.2191106,18.34 L14.6688702,17.4153606 L15.7304808,16.2494231 L16.7025721,16.7103125 L17.3675721,15.9798558 L13.1251683,14.1896394 Z M57.2344231,15.9404808 L57.4099279,16.1560337 C57.5967067,16.3853846 57.7010337,16.5820913 57.7229087,16.7461538 C57.7444471,16.9102163 57.675625,17.0571154 57.5166106,17.1866827 C57.35625,17.3174279 57.1948798,17.3596635 57.0328365,17.3138942 C56.870625,17.2677885 56.6983173,17.1323317 56.5152404,16.9076923 L56.5152404,16.9076923 L56.3282933,16.6783413 L57.2344231,15.9404808 Z M13.2475,15.0528606 C13.310601,15.0887019 13.3996154,15.1346394 13.5147115,15.19 C13.6296394,15.2451923 14.1295673,15.4797596 15.0143269,15.8933654 L15.0143269,15.8933654 L14.2557692,16.7264663 C13.7263942,15.8289183 13.3905288,15.2711058 13.2475,15.0528606 Z M51.8067308,9.9815625 L49.153125,13.3960817 L49.7999519,13.8987019 L51.0485096,12.291899 C51.1999519,12.0972115 51.4378846,11.7603365 51.7629808,11.2811058 L51.7629808,11.2811058 L51.7840144,11.2974279 L51.2620433,15.0348558 L52.1823077,15.75 L54.8360817,12.335649 L54.184375,11.8291587 L52.9282452,13.4452163 C52.7855529,13.6291346 52.5535096,13.951875 52.2321154,14.413774 L52.2321154,14.413774 L52.2152885,14.4011538 L52.7200962,10.6911538 L51.8067308,9.9815625 Z M18.6136058,10.0266587 C18.2604087,10.0025962 17.8705288,10.1434375 17.4443029,10.4491827 L17.4443029,10.4491827 L16.3219471,11.2546875 L18.8437981,14.7676442 L19.5888942,14.2330529 L18.6920192,12.9834856 L19.0113942,12.7541346 C19.4472115,12.4414904 19.7113942,12.0999038 19.803774,11.7302163 C19.8964904,11.3605288 19.8071394,10.9862981 19.5355529,10.6083654 C19.2747356,10.2447356 18.9673077,10.0507212 18.6136058,10.0266587 Z M22.2970192,7.95358173 C21.9480288,7.89266827 21.5127163,7.99649038 20.9900721,8.26555288 L20.9900721,8.26555288 L19.8700721,8.84237981 L21.8495913,12.6869952 L22.6646875,12.2675 L21.9051202,10.7921154 L22.3392548,10.5684856 L24.0163942,11.5713702 L24.9211779,11.105601 C24.6157692,10.9432212 23.951274,10.5790865 22.9278606,10.012524 C23.104375,9.79512019 23.2095433,9.56644231 23.2430288,9.32632212 C23.2770192,9.08603365 23.2354567,8.8528125 23.1191827,8.62665865 C22.9196154,8.23896635 22.6455048,8.01466346 22.2970192,7.95358173 Z M48.7578606,8.15449519 C48.1679087,7.84824519 47.6275962,7.78177885 47.1369231,7.95459135 C46.6460817,8.12740385 46.235,8.53326923 45.9035096,9.1721875 C45.5715144,9.8109375 45.4749279,10.3827163 45.6125721,10.887524 C45.7505529,11.3923317 46.1135096,11.797524 46.7014423,12.1025962 C47.2897115,12.4080048 47.8296875,12.4716106 48.3220433,12.2939183 C48.8142308,12.1158894 49.2251442,11.7096875 49.5547837,11.0743029 C49.8854327,10.4374038 49.9826923,9.86814904 49.8467308,9.36620192 C49.710601,8.86475962 49.347476,8.46074519 48.7578606,8.15449519 Z M18.381899,10.8905529 C18.5370433,10.9053606 18.6770433,11.0000962 18.8022356,11.1745913 C18.9264183,11.3475721 18.9642788,11.5202163 18.915649,11.6923558 C18.866851,11.8644952 18.7278606,12.0325962 18.4988462,12.1971635 L18.4988462,12.1971635 L18.2536779,12.3731731 L17.5050481,11.3302404 L17.8439423,11.0872596 C18.0475481,10.9412019 18.2264183,10.8755769 18.381899,10.8905529 Z M47.5040865,8.77860577 C47.7815625,8.64617788 48.0824279,8.66401442 48.4061779,8.83194712 C49.0519952,9.16713942 49.150601,9.76701923 48.7016587,10.6315865 C48.253726,11.4944712 47.7051683,11.7573077 47.0561538,11.4202644 C46.7320673,11.2523317 46.5452885,11.0174279 46.4951442,10.7158894 C46.4448317,10.414351 46.5313221,10.0492067 46.753774,9.62028846 C46.976226,9.19153846 47.226274,8.91103365 47.5040865,8.77860577 Z M44.78341,6.50992652 L43.2945359,10.5700596 L44.1552545,10.88569 L45.6441285,6.82555692 L44.78341,6.50992652 Z M27.335,6.29528846 C26.8826923,6.03935096 26.3401923,6.01326923 25.7078365,6.21721154 C25.0751442,6.42115385 24.6479087,6.75836538 24.425625,7.22867788 C24.2031731,7.69949519 24.2026683,8.27733173 24.4234375,8.96235577 C24.6442067,9.64721154 24.9827644,10.1181971 25.4384375,10.3753125 C25.8944471,10.6322596 26.4374519,10.6591827 27.0684615,10.4559135 C27.6987981,10.252476 28.1240144,9.91324519 28.3439423,9.43855769 C28.5637019,8.96336538 28.5638702,8.38552885 28.3439423,7.70420673 C28.1238462,7.02120192 27.7873077,6.5515625 27.335,6.29528846 Z M21.9182452,8.77894231 C22.0833173,8.7915625 22.2127163,8.88899038 22.3066106,9.07122596 C22.4015144,9.25548077 22.4097596,9.42206731 22.3311779,9.57115385 C22.2525962,9.72040865 22.0846635,9.86108173 21.8267067,9.99384615 L21.8267067,9.99384615 L21.5638702,10.1293029 L21.0289423,9.09057692 L21.2761298,8.96319712 C21.5389663,8.82774038 21.7530048,8.76632212 21.9182452,8.77894231 Z M40.6819471,5.35146635 L40.4938221,6.09100962 L41.6319952,6.38009615 L40.7558173,9.83197115 L41.6444471,10.0576202 L42.520625,6.60591346 L43.6589663,6.895 L43.8467548,6.15528846 L40.6819471,5.35146635 Z M25.941899,6.94346154 C26.6343269,6.72016827 27.1300481,7.07201923 27.4292308,7.99935096 C27.7274038,8.92466346 27.5286779,9.49947115 26.8322115,9.72377404 C26.4852404,9.83584135 26.1867308,9.80370192 25.9370192,9.62701923 C25.687476,9.45067308 25.4884135,9.13247596 25.3405048,8.67276442 C25.1922596,8.21305288 25.1685337,7.8378125 25.2694952,7.54737981 C25.370625,7.25661058 25.5945913,7.05552885 25.941899,6.94346154 Z M31.882476,4.94341346 L28.6569231,5.45225962 L28.7758894,6.20610577 L29.9357692,6.02302885 L30.4907212,9.54069712 L31.3965144,9.39800481 L30.8413942,5.88 L32.0016106,5.69709135 L31.882476,4.94341346 Z M38.650601,5.00247596 C38.2410337,4.95721154 37.8740385,5.0071875 37.5492788,5.15274038 C37.2248558,5.29846154 36.9623558,5.53016827 36.7624519,5.84836538 C36.5623798,6.16622596 36.4376923,6.54870192 36.3882212,6.995625 C36.3096394,7.70521635 36.414976,8.26774038 36.7042308,8.68387019 C36.9929808,9.09983173 37.4505048,9.34247596 38.075625,9.41163462 C38.5107692,9.45975962 38.9129327,9.43014423 39.2817788,9.32211538 L39.2817788,9.32211538 L39.3665865,8.55783654 C38.9206731,8.66115385 38.5469471,8.69615385 38.2449038,8.6625 C37.5255529,8.58290865 37.2191346,8.06379808 37.3253125,7.10533654 C37.3762981,6.64478365 37.5104087,6.29612981 37.7269712,6.05920673 C37.9438702,5.82262019 38.2235337,5.72300481 38.5666346,5.76103365 C38.7234615,5.77836538 38.8799519,5.82447115 39.0364423,5.89951923 C39.1929327,5.97423077 39.3474038,6.05853365 39.4995192,6.15293269 L39.4995192,6.15293269 L39.8754327,5.44485577 C39.4764663,5.19615385 39.0680769,5.04875 38.650601,5.00247596 Z M35.4652644,4.80846154 L32.9753846,4.87425481 L33.0894712,9.19709135 L35.5791827,9.13163462 L35.5591587,8.37442308 L33.9863462,8.41598558 L33.9567308,7.30137019 L35.4205048,7.2625 L35.4004808,6.51151442 L33.9370433,6.55038462 L33.9119712,5.60117788 L35.4849519,5.55944712 L35.4652644,4.80846154 Z" id="Combined-Shape"></path>
            <path d="M42.9505529,45.8195433 L46.6945433,49.479399 L34.7533173,61.3003125 L27.0491106,53.3916587 L30.9474038,49.8019712 L34.9167067,53.8964663 L42.9505529,45.8195433 Z M26.8623317,38.7953125 C27.4499279,38.7953125 27.8847356,38.9023317 28.1667548,39.1162019 C28.448774,39.3300721 28.5897837,39.655 28.5897837,40.0908173 C28.5897837,40.3452404 28.5197837,40.5713942 28.3797837,40.7696154 C28.2397837,40.9678365 28.0415625,41.123149 27.7852885,41.2355529 C28.4359856,42.2076442 28.860024,42.8357933 29.0572356,43.1196635 L28.0397115,43.1196635 L27.0073798,41.4603606 L26.5192308,41.4603606 L26.5192308,43.1196635 L25.6023317,43.1196635 L25.6023317,38.7953125 L26.8623317,38.7953125 Z M32.0918029,38.7953125 L32.0918029,39.5466346 L30.518149,39.5466346 L30.518149,40.4960096 L31.9822596,40.4960096 L31.9822596,41.2473317 L30.518149,41.2473317 L30.518149,42.3624519 L32.0918029,42.3624519 L32.0918029,43.1196635 L29.60125,43.1196635 L29.60125,38.7953125 L32.0918029,38.7953125 Z M35.0970913,38.777476 L36.6291827,43.1196635 L35.641274,43.1196635 L35.3277885,42.0903606 L33.751274,42.0903606 L33.4377885,43.1196635 L32.4498798,43.1196635 L33.9760817,38.777476 L35.0970913,38.777476 Z M38.5309615,38.7953125 C39.236851,38.7953125 39.7850721,38.9815865 40.1754567,39.3543029 C40.5658413,39.7270192 40.7612019,40.2476442 40.7612019,40.9160096 C40.7612019,41.6277885 40.5586058,42.173149 40.1534135,42.5517548 C39.7482212,42.9303606 39.1629808,43.1196635 38.3978606,43.1196635 L37.1733654,43.1196635 L37.1733654,38.7953125 L38.5309615,38.7953125 Z M42.1070192,38.7953125 L43.0032212,40.5759375 L43.9054808,38.7953125 L44.8933894,38.7953125 L43.4588942,41.4366346 L43.4588942,43.1196635 L42.5477163,43.1196635 L42.5477163,41.46625 L41.1132212,38.7953125 L42.1070192,38.7953125 Z M38.5784135,39.5466346 L38.0904327,39.5466346 L38.0904327,42.3624519 L38.4838462,42.3624519 C39.3670913,42.3624519 39.8087981,41.8882692 39.8087981,40.9397356 C39.8087981,40.0108894 39.3985577,39.5466346 38.5784135,39.5466346 Z M34.5407933,39.4488702 C34.4756731,39.701274 34.289399,40.3253846 33.9818029,41.3212019 L35.1087019,41.3212019 C34.818774,40.3884856 34.6557212,39.8609615 34.6192067,39.7387981 C34.5826923,39.6166346 34.5566106,39.5198798 34.5407933,39.4488702 Z M26.7970433,39.5466346 L26.5192308,39.5466346 L26.5192308,40.7149279 L26.8150481,40.7149279 C27.104976,40.7149279 27.3188462,40.6666346 27.4568269,40.5700481 C27.5948077,40.4734615 27.6637981,40.3215144 27.6637981,40.1145433 C27.6637981,39.9094231 27.5932933,39.7635337 27.4522837,39.6767067 C27.311274,39.5898798 27.0928606,39.5466346 26.7970433,39.5466346 Z M22.9653846,27.508149 C23.8708413,27.508149 24.7439904,27.6892067 25.5851683,28.0514904 L24.9634135,29.5485817 C24.3194471,29.2266827 23.649399,29.065649 22.9532692,29.065649 C22.144399,29.065649 21.4965625,29.3372356 21.0095913,29.8805769 C20.5224519,30.4239183 20.2791346,31.1542067 20.2791346,32.0717788 C20.2791346,33.0295673 20.4753365,33.7610337 20.8675721,34.2660096 C21.259976,34.7711538 21.8305769,35.0235577 22.5790385,35.0235577 C22.9692548,35.0235577 23.3656971,34.9835096 23.7681971,34.9027404 L23.7681971,33.0617067 L22.0959375,33.0617067 L22.0959375,31.5047115 L25.5971154,31.5047115 L25.5971154,36.0802885 C25.0297115,36.2653846 24.4954567,36.3951202 23.9945192,36.4694952 C23.4935817,36.5438702 22.9813702,36.581226 22.4582212,36.581226 C21.1262019,36.581226 20.1090144,36.1898317 19.4068269,35.4070433 C18.7044712,34.6244231 18.3532933,33.5005529 18.3532933,32.035601 C18.3532933,30.6110337 18.7608413,29.5004567 19.5757692,28.7035337 C20.3906971,27.9066106 21.520625,27.508149 22.9653846,27.508149 Z M30.4685096,27.6353606 C31.9092308,27.6353606 33.0280529,28.015649 33.8248077,28.776226 C34.6217308,29.5366346 35.020024,30.5992548 35.020024,31.9634135 C35.020024,33.41625 34.6065865,34.5288462 33.7795433,35.3015385 C32.9526683,36.0742308 31.7582933,36.4605769 30.1969231,36.4605769 L27.6977885,36.4605769 L27.6977885,27.6353606 L30.4685096,27.6353606 Z M39.6682933,27.6351923 C40.7386538,27.6351923 41.5525721,27.8655529 42.1102163,28.326274 C42.6671875,28.7871635 42.9460096,29.474375 42.9460096,30.3879087 C42.9460096,31.3377885 42.6491827,32.0640385 42.0556971,32.5669952 C41.4620433,33.0701202 40.6180048,33.3215144 39.5234135,33.3215144 L38.720601,33.3215144 L38.720601,36.4604087 L36.8492788,36.4604087 L36.8492788,27.6351923 L39.6682933,27.6351923 Z M47.1833654,27.6353606 C48.3826202,27.6353606 49.2699038,27.853774 49.8453846,28.2904327 C50.4208654,28.7270913 50.7086058,29.3900721 50.7086058,30.279375 C50.7086058,30.7984856 50.5657452,31.2602163 50.280024,31.6645673 C49.9943029,32.0689183 49.5897837,32.3859375 49.0666346,32.6152885 C50.3947837,34.599351 51.2598558,35.8808894 51.6623558,36.4605769 L49.5859135,36.4605769 L47.4790144,33.0741587 L46.4831971,33.0741587 L46.4831971,36.4605769 L44.611875,36.4605769 L44.611875,27.6353606 L47.1833654,27.6353606 Z M30.5650962,29.1684615 L29.5691106,29.1684615 L29.5691106,34.9151923 L30.3719231,34.9151923 C32.1749279,34.9151923 33.0763462,33.9473077 33.0763462,32.0115385 C33.0763462,30.1161538 32.2392067,29.1684615 30.5650962,29.1684615 Z M39.5717067,29.1686298 L38.7204327,29.1686298 L38.7204327,31.7882452 L39.3361298,31.7882452 C39.9116106,31.7882452 40.3422115,31.6746635 40.6279327,31.4473317 C40.9136538,31.22 41.0565144,30.8890144 41.0565144,30.454375 C41.0565144,30.0158654 40.9367067,29.6917788 40.6974279,29.4826202 C40.4578125,29.2734615 40.0825721,29.1686298 39.5717067,29.1686298 Z M47.0507692,29.1684615 L46.4833654,29.1684615 L46.4833654,31.5530048 L47.0867788,31.5530048 C47.6784135,31.5530048 48.1149038,31.454399 48.3967548,31.2571875 C48.6784375,31.059976 48.8192788,30.750024 48.8192788,30.3275 C48.8192788,29.9091827 48.6754087,29.6113462 48.3878365,29.4341587 C48.1000962,29.2569712 47.6545192,29.1684615 47.0507692,29.1684615 Z" id="Combined-Shape"></path>
        </g>
    </g>
</svg>