<?xml version="1.0" encoding="UTF-8"?>
<svg width="70px" height="70px" viewBox="0 0 70 70" version="1.1" xmlns="http://www.w3.org/2000/svg" xmlns:xlink="http://www.w3.org/1999/xlink">
    <title>iso27001</title>
    <g id="Page-1" stroke="none" stroke-width="1" fill="none" fill-rule="evenodd" opacity="0.6">
        <g id="iso27001" fill="#FFFFFF" fill-rule="nonzero">
            <path d="M35.0358974,1.93846154 C39.4871795,1.93846154 43.8307692,2.8 47.9230769,4.52307692 C51.8717949,6.17435897 55.3897436,8.57948718 58.4410256,11.6307692 C61.4923077,14.6820513 63.8615385,18.2 65.5487179,22.1487179 C67.2717949,26.2410256 68.1333333,30.5487179 68.1333333,35.0358974 C68.1333333,39.5230769 67.2717949,43.8307692 65.5487179,47.9230769 C63.8974359,51.8717949 61.4923077,55.3897436 58.4410256,58.4410256 C55.3897436,61.4923077 51.8717949,63.8615385 47.9230769,65.5487179 C43.8307692,67.2717949 39.5230769,68.1333333 35.0358974,68.1333333 C30.5487179,68.1333333 26.2410256,67.2717949 22.1487179,65.5487179 C18.2,63.8974359 14.6820513,61.4923077 11.6307692,58.4410256 C8.57948718,55.3897436 6.21025641,51.8717949 4.52307692,47.9230769 C2.8,43.8307692 1.93846154,39.5230769 1.93846154,35.0358974 C1.93846154,30.5487179 2.8,26.2410256 4.52307692,22.1487179 C6.17435897,18.2 8.57948718,14.6820513 11.6307692,11.6307692 C14.6820513,8.57948718 18.2,6.21025641 22.1487179,4.52307692 C26.2410256,2.8 30.5487179,1.93846154 35.0358974,1.93846154 M35.0358974,0.107692308 C15.7589744,0.107692308 0.107692308,15.7589744 0.107692308,35.0358974 C0.107692308,54.3128205 15.7589744,69.9641026 35.0358974,69.9641026 C54.3128205,69.9641026 69.9641026,54.3128205 69.9641026,35.0358974 C69.9641026,15.7589744 54.3128205,0.107692308 35.0358974,0.107692308 L35.0358974,0.107692308 Z" id="Shape"></path>
            <path d="M35.0358974,13.1025641 C37.9794872,13.1025641 40.8512821,13.6769231 43.5794872,14.825641 C46.2,15.9384615 48.5333333,17.5179487 50.5435897,19.5282051 C52.5538462,21.5384615 54.1333333,23.8717949 55.2461538,26.4923077 C56.3948718,29.1846154 56.9692308,32.0564103 56.9692308,35.0358974 C56.9692308,37.9794872 56.3948718,40.8512821 55.2461538,43.5794872 C54.1333333,46.2 52.5538462,48.5333333 50.5435897,50.5435897 C48.5333333,52.5538462 46.2,54.1333333 43.5794872,55.2461538 C40.8871795,56.3948718 38.0153846,56.9692308 35.0358974,56.9692308 C32.0923077,56.9692308 29.2205128,56.3948718 26.4923077,55.2461538 C23.8717949,54.1333333 21.5384615,52.5538462 19.5282051,50.5435897 C17.5179487,48.5333333 15.9384615,46.2 14.825641,43.5794872 C13.6769231,40.8871795 13.1025641,38.0153846 13.1025641,35.0358974 C13.1025641,32.0923077 13.6769231,29.2205128 14.825641,26.4923077 C15.9384615,23.8717949 17.5179487,21.5384615 19.5282051,19.5282051 C21.5384615,17.5179487 23.8717949,15.9384615 26.4923077,14.825641 C29.2205128,13.6769231 32.0564103,13.1025641 35.0358974,13.1025641 M35.0358974,11.2717949 C21.9333333,11.2717949 11.3076923,21.8974359 11.3076923,35 C11.3076923,48.1025641 21.9333333,58.7282051 35.0358974,58.7282051 C48.1384615,58.7282051 58.7641026,48.1025641 58.7641026,35 C58.7641026,21.8974359 48.1384615,11.2717949 35.0358974,11.2717949 L35.0358974,11.2717949 Z" id="Shape"></path>
            <path d="M42.8874116,36.9627886 C42.5261149,37.6251658 42.014278,38.257435 41.502441,38.8897042 C41.8637377,39.1606767 42.3153585,39.341325 42.7067632,39.6122975 C42.7368713,39.6725136 42.8271955,39.7026217 42.8573035,39.6424056 C43.7605452,38.9198122 44.6336788,37.9864625 45.296056,36.9928967 C45.4767043,36.9627886 45.6874607,36.9627886 45.838001,36.9928967 C43.128276,41.2080244 38.4013113,43.3456964 33.4936983,42.6833192 C32.0786196,42.5026708 30.7237572,42.05105 29.4592188,41.4187808 C29.4893269,41.3886728 29.4592188,41.3585647 29.4291108,41.3585647 C29.3990027,41.3585647 29.3990027,41.3886728 29.3990027,41.3886728 C27.5323033,40.4553231 25.7258199,38.8595961 24.5817138,37.0230047 C24.7623622,36.9928967 24.9129024,36.9928967 25.0935508,37.0230047 C25.755928,38.0466786 26.6591697,38.9800283 27.6226274,39.7327297 C28.0742483,39.5219733 28.5258691,39.2510008 28.9473819,38.9800283 C28.4355449,38.3477592 27.923708,37.71549 27.5323033,37.0230047 C27.7129516,37.0531128 28.0140322,36.9025725 28.1043563,37.173545 C28.465653,37.71549 28.8871658,38.2875431 29.3387866,38.7692719 L29.3387866,38.7692719 L29.3990027,38.79938 C30.091488,38.4982995 30.7839733,38.257435 31.5065666,38.0466786 L31.5065666,38.0466786 L31.5667827,37.9864625 L31.175378,37.0531128 C31.2958102,36.9928967 31.4764585,37.0230047 31.6269988,37.0230047 L31.6269988,37.0230047 L32.0485116,37.8660303 C32.9818613,37.6552739 33.9453191,37.5649497 34.9388849,37.5047336 C35.0593171,37.3240853 34.968993,37.173545 34.999101,36.9928967 L34.999101,36.9928967 L35.4206138,36.9928967 C35.510938,37.1133289 35.4206138,37.3240853 35.4808299,37.4746256 C36.4442877,37.5348417 37.4980696,37.6552739 38.4314194,37.8660303 L38.4314194,37.8660303 L38.8529321,36.9928967 L39.2744449,36.9928967 C39.2142288,37.2939772 39.0034724,37.5950578 38.8830402,37.9262464 L38.8830402,37.9262464 L38.9733644,37.9864625 C39.6959577,38.1671108 40.3583349,38.4079753 41.0508202,38.7090558 C41.5927652,38.1671108 42.014278,37.5649497 42.4056827,36.9627886 L42.4056827,36.9627886 Z M37.8894744,41.9607258 C36.4442877,40.8768358 34.1259674,40.8768358 32.6205646,41.8704017 C32.5904566,41.9306178 32.4700244,41.9306178 32.5001324,42.0209419 C34.2162916,42.4424547 36.1130991,42.4123467 37.7991502,42.05105 C37.8292582,42.0209419 37.9797985,42.05105 37.8894744,41.9607258 Z M29.2785705,39.3112169 C28.8871658,39.4918653 28.495761,39.7327297 28.1043563,39.9735942 L28.1043563,39.9735942 L28.1043563,40.0338103 C29.2785705,40.8768358 30.5130008,41.4789969 31.8678633,41.8402936 C31.9581874,41.7800775 32.1087277,41.6897533 32.1689438,41.5693211 C31.1452699,40.9069439 30.1818122,40.2144586 29.2785705,39.3112169 Z M41.0809282,39.2811089 C40.2077946,40.1542425 39.2744449,40.9069439 38.250771,41.509105 L38.250771,41.509105 L38.220663,41.5693211 C38.3410952,41.6897533 38.4615274,41.7800775 38.5819596,41.8402936 L38.5819596,41.8402936 L39.334661,41.5994292 C40.388443,41.2080244 41.4422249,40.7262956 42.3153585,39.9735942 C41.9239538,39.7026217 41.502441,39.4617572 41.0809282,39.2811089 Z M31.747431,38.4079753 C31.0850538,38.5585156 30.4226766,38.79938 29.7904074,39.1004606 L29.7904074,39.1004606 L29.7904074,39.1907847 C30.633433,40.0639183 31.6571069,40.7865117 32.7108888,41.3284567 C32.9517533,41.2080244 33.2227258,41.1177003 33.4334821,40.9972681 L33.4334821,40.9972681 L32.8580837,40.1531274 C32.476715,39.5888801 32.1087277,39.0201724 31.8076471,38.4380833 L31.8076471,38.4380833 Z M38.6722838,38.3778672 L38.6120677,38.4079753 C38.1604469,39.2811089 37.6486099,40.0639183 37.1066649,40.8467278 L37.1066649,40.8467278 L37.0464488,40.96716 L37.7389341,41.2682406 C38.1002307,41.0574842 38.4916355,40.8166197 38.8529321,40.6058633 C39.4550932,40.1843506 40.1174705,39.6725136 40.6293074,39.0703525 C40.0271463,38.7692719 39.3647691,38.5284075 38.6722838,38.3778672 L38.6722838,38.3778672 Z M35.4507219,37.9262464 C35.4206138,38.8897042 35.4206138,39.7327297 35.4507219,40.6961875 L35.4507219,40.6961875 L35.7216944,40.7262956 C35.9926669,40.7262956 36.2636394,40.8467278 36.5346119,40.8166197 C37.136773,40.0037022 37.708826,39.1907847 38.1604469,38.3176511 L38.1604469,38.3176511 L38.1303388,38.257435 C37.2873132,38.0466786 36.3539635,37.9563545 35.4507219,37.9262464 Z M34.968993,37.9262464 C34.0657513,37.9262464 33.2227258,38.0767867 32.3797002,38.227327 L32.3797002,38.227327 L32.3194841,38.257435 C32.7711049,39.1606767 33.3130499,40.0037022 33.9754271,40.7865117 C34.3066158,40.7262956 34.6679124,40.7262956 34.999101,40.6359714 L34.999101,40.6359714 Z M43.5497888,24.4378375 C45.3562721,24.0765409 47.1025393,24.3174053 48.6079421,25.3711873 C50.3241013,26.5454014 50.9864785,28.2615606 50.9262624,30.640097 C50.9563704,32.0551756 50.4144254,33.5605784 49.1498871,34.7649006 C48.3068615,35.5778181 47.2530796,35.9692228 46.1089735,36.1799792 C44.7240029,36.4208436 43.3691404,36.3004114 42.0744941,35.7283583 C40.2379027,34.9154408 39.2142288,33.4401461 38.8529321,31.4831225 C38.5217435,29.6164231 38.8830402,27.930372 40.0873624,26.4249692 C40.9906041,25.3109712 42.1648182,24.70881 43.5497888,24.4378375 Z M35.1496413,25.1905389 C35.3905057,25.3410792 35.541046,25.6120517 35.8120185,25.7023759 C35.8320906,25.6823038 35.8387812,25.6756132 35.8499324,25.664462 L35.8722346,25.6421598 L35.8722346,25.6421598 L35.8722346,24.6184859 L38.250771,24.6184859 L38.250771,28.3819928 L35.8722346,28.3819928 L35.8722346,28.3518848 L35.8722346,28.3518848 L35.541046,27.8099398 L35.541046,27.8099398 C35.4607579,27.7095796 35.3938511,27.6226007 35.3224838,27.5311615 L35.2098574,27.388427 C35.1797494,27.3583189 35.1496413,27.3282109 35.1195332,27.2679948 C35.1195332,27.2679948 35.0273273,27.1296859 34.8227454,26.9740884 L34.7281285,26.9066981 L34.7281285,26.9066981 C34.2463996,26.5454014 33.2528338,26.1238887 31.6269988,26.4851853 C31.5667827,26.5152934 31.5366746,26.5152934 31.4764585,26.5454014 C31.3259183,26.6056175 31.175378,26.7260498 31.1151619,26.87659 C31.0850538,26.9066981 31.0850538,26.9368061 31.0549458,26.9669142 C31.0248377,27.0271303 31.0248377,27.1174545 30.9947297,27.2077786 C30.9646216,27.5991834 31.1452699,27.96048 31.4764585,28.2013445 L31.6571069,28.3217767 L31.6571069,28.3217767 C32.259268,28.6228573 32.8915371,28.6830734 33.5539144,28.7432895 L34.0055352,28.8035056 L34.0055352,28.8035056 C35.0894252,28.9841539 36.1432071,29.1949103 37.0765569,29.8271795 C37.4077455,30.0379359 37.678718,30.3089084 37.8894744,30.6099889 C38.9733644,32.0250675 38.7023919,34.1025234 37.0765569,35.2466295 C36.4442877,35.6982503 35.7518024,35.9692228 35.0292091,36.089655 C33.7044546,36.3305195 32.289376,36.0294389 31.1452699,35.2466295 C31.0649818,35.1864133 30.9846936,35.1395786 30.9044055,35.0972043 L30.7839733,35.0358731 L30.7839733,35.0358731 C30.6033249,34.9455489 30.5732169,35.0358731 30.5732169,35.1563053 L30.5732169,35.6982503 C30.5732169,35.7584664 30.5732169,35.7885745 30.5431088,35.8487906 C30.5431088,35.8788986 30.5130008,35.9090067 30.5130008,35.9391147 L28.0140322,35.9391147 L28.0140322,31.9046353 L30.5732169,31.9046353 L30.5732169,32.1756078 C30.5732169,32.1756078 30.5732169,32.2057159 30.6033249,32.2057159 C31.0850538,33.1089575 31.747431,33.6207945 32.4700244,33.8616589 C33.1926177,34.1025234 34.0356433,34.0724153 34.8786688,33.891767 C35.3001816,33.8014428 35.6915863,33.4702542 35.8421266,33.1089575 C35.9023427,32.9885253 35.9324507,32.8680931 35.9324507,32.7175528 C35.9324507,32.1756078 35.5711541,31.723987 34.9087769,31.5433386 C33.8549949,31.2422581 32.7409969,31.2422581 31.6571069,31.0315017 L31.6269988,31.0315017 L31.6269988,31.0315017 C30.4828927,30.7906372 29.5194349,30.2486923 28.7968416,29.3454506 C27.953816,28.2615606 28.0441402,26.7862659 29.037706,25.762592 C29.0678141,25.7324839 29.1280302,25.6722678 29.1581383,25.6421598 C30.663541,24.2270812 33.4635902,24.0163248 35.1496413,25.1905389 Z M27.1107905,24.5582698 L27.1107905,26.9066981 L25.0333347,26.9066981 L25.0333347,33.5906864 L27.1107905,33.5906864 L27.1107905,35.9391147 L20.2461538,35.9391147 L20.2461538,33.5906864 L22.4139338,33.5906864 L22.4139338,26.9066981 L20.2461538,26.9066981 L20.2461538,24.5582698 L27.1107905,24.5582698 Z M44.9949754,26.7260498 C44.1820579,26.7260498 43.5196807,26.9368061 43.0379518,27.4486431 C42.556223,27.9002639 42.2551424,28.5626411 42.2551424,29.2852345 L42.2551424,29.2852345 L42.2551424,29.5260989 C42.2250343,29.7970714 42.2551424,30.098152 42.2551424,30.3992325 L42.2551424,30.3992325 L42.2551424,31.3626903 C42.2551424,31.6637709 42.3153585,31.9648514 42.4056827,32.2358239 C42.586331,32.807877 42.9777357,33.2896059 43.6100049,33.5906864 C43.9713016,33.7713347 44.3627063,33.8616589 44.754111,33.891767 C45.0852996,33.921875 45.4767043,33.8616589 45.8681091,33.7111186 C45.8982171,33.6810106 45.8982171,33.6810106 45.9283252,33.6810106 C46.0186493,33.6509025 46.0788654,33.6207945 46.1390816,33.5906864 C46.7111346,33.3197139 47.2229716,32.8680931 47.4036199,32.265932 C47.4036199,32.1756078 47.4337279,32.0852836 47.463836,31.9949595 L47.463836,31.9949595 L47.463836,31.9347434 C47.463836,31.8745272 47.493944,31.8444192 47.493944,31.7842031 L47.493944,31.7842031 L47.5478401,31.3988551 C47.6352676,30.6314947 47.605774,29.8830944 47.5541602,29.1346942 L47.5541602,29.1346942 L47.5541602,29.04437 C47.5240521,28.8637217 47.493944,28.6529653 47.4337279,28.472317 C47.4036199,28.4422089 47.4036199,28.4422089 47.4036199,28.4121009 C47.0423232,27.388427 46.1992977,26.7260498 44.9949754,26.7260498 Z M34.7281285,17.6936331 C35.1797494,17.6635251 35.7216944,17.6635251 36.1432071,17.7237412 L36.1432071,17.7237412 L36.1733152,17.7538492 L36.2034232,17.7237412 C40.0572543,18.0248217 43.5798968,20.1323856 45.7476768,23.3840556 C45.5971366,23.4743798 45.4164882,23.4141637 45.2358399,23.4141637 C44.5433546,22.3904898 43.7003291,21.4872481 42.7067632,20.7345467 L42.7067632,20.7345467 L42.556223,20.7947628 L41.4422249,21.4571401 L41.4422249,21.5474642 C41.7131974,21.8485448 41.9239538,22.1195173 42.1347102,22.4205978 C42.4056827,22.7517864 42.6465471,23.082975 42.8271955,23.4442717 C42.7067632,23.5044878 42.5261149,23.4743798 42.3454666,23.4743798 C41.9239538,22.8421106 41.472333,22.2399495 40.960496,21.6980045 C40.2379027,21.9990851 39.5454174,22.3001656 38.8228241,22.4808139 L38.8228241,22.4808139 L38.792716,22.510922 L39.1841207,23.4442717 C39.0636885,23.5044878 38.8830402,23.4743798 38.7324999,23.4743798 L38.7324999,23.4743798 L38.3109871,22.6313542 L38.220663,22.6012462 C37.3174213,22.8120025 36.3539635,22.9023267 35.4206138,22.9625428 C35.3302896,23.1130831 35.4206138,23.2937314 35.3603977,23.4442717 L35.3603977,23.4442717 L34.9388849,23.4442717 C34.8786688,23.2937314 34.968993,23.052867 34.8485608,22.9324348 C33.8549949,22.9023267 32.8915371,22.7818945 31.9581874,22.5711381 C31.8076471,22.8421106 31.6872149,23.1431912 31.5366746,23.4141637 C31.3861344,23.4442717 31.2657021,23.4442717 31.0850538,23.4141637 L31.0850538,23.4141637 L31.4764585,22.4808139 L31.4162424,22.4205978 C30.6936491,22.2399495 30.0312719,21.968977 29.3387866,21.6980045 C28.8269497,22.2399495 28.3753288,22.8120025 27.9839241,23.4141637 C27.8333838,23.4442717 27.6226274,23.4743798 27.5021952,23.4141637 C27.8634919,22.7517864 28.4054369,22.1195173 28.8871658,21.4872481 C28.465653,21.2463837 28.0140322,21.0055192 27.5925194,20.7345467 C27.1408985,21.0356273 26.7494938,21.427032 26.3279811,21.8184367 C25.8462522,22.3302737 25.4247394,22.8722187 25.0333347,23.4141637 C24.8827944,23.5044878 24.672038,23.4141637 24.5214977,23.4442717 C26.7494938,20.0420614 30.2721363,18.0248217 34.1259674,17.7237412 C34.3367238,17.6936331 34.5474802,17.6635251 34.7281285,17.6936331 Z M36.3840716,19.6506567 C36.052883,19.7108728 35.7216944,19.7409809 35.3905057,19.801197 C35.3603977,20.6743306 35.3603977,21.6377884 35.3905057,22.4808139 C36.2937474,22.4808139 37.166881,22.3603817 38.0400146,22.1496253 C37.6185019,21.2764917 37.0163407,20.4635742 36.3840716,19.6506567 Z M33.8549949,19.5904406 C33.2227258,20.3732501 32.6506727,21.2463837 32.1990519,22.1195173 C32.6205646,22.2700576 33.1926177,22.3302737 33.6141305,22.3904898 C34.0657513,22.4205978 34.457156,22.510922 34.9087769,22.4507059 C34.9087769,21.5775723 34.9388849,20.6141145 34.8786688,19.7409809 L34.8786688,19.7409809 Z M32.6205646,19.1990359 C31.5968908,19.7409809 30.663541,20.4635742 29.7904074,21.3065998 L29.7904074,21.3065998 L29.7602994,21.3969239 C30.3624605,21.6678964 30.9947297,21.8786528 31.6571069,22.0593012 L31.6571069,22.0593012 L31.717323,22.0291931 C32.1990519,21.2162756 32.6807808,20.3732501 33.2829419,19.6205487 L33.2829419,19.6205487 L33.343158,19.5001164 C33.1022935,19.3796842 32.8614291,19.2893601 32.6205646,19.1990359 Z M37.6185019,19.1087117 C37.3776374,19.259252 37.1066649,19.3495762 36.8959085,19.4700084 C37.4980696,20.3130339 38.0701227,21.1560595 38.5518516,21.9990851 C39.2443368,21.8786528 39.876606,21.6076803 40.5088752,21.3367078 L40.5088752,21.3367078 L40.5088752,21.2463837 C39.6658496,20.4033581 38.6722838,19.6506567 37.6185019,19.1087117 Z M31.8377552,18.6570909 C31.717323,18.5667667 31.6269988,18.717307 31.5065666,18.6871989 L31.5065666,18.6871989 L31.5065666,18.6570909 C31.4463505,18.6570909 31.4162424,18.6871989 31.3560263,18.7474151 C30.1818122,19.1087117 29.0678141,19.6807648 28.0441402,20.4334662 L28.0441402,20.4334662 L28.0441402,20.4635742 C28.4054369,20.7345467 28.8269497,20.9754112 29.2484624,21.1259514 C30.1517041,20.2528178 31.1452699,19.5001164 32.1388358,18.8678473 C32.0485116,18.8076312 31.9280794,18.7474151 31.8377552,18.6570909 Z M38.4314194,18.6269828 C38.3109871,18.717307 38.1604469,18.7775231 38.1303388,18.8979553 C39.1540127,19.4700084 40.1475785,20.2227098 40.9906041,21.0958434 L40.9906041,21.0958434 L41.0809282,21.0958434 L42.1949263,20.4635742 L42.1949263,20.4334662 C41.0508202,19.5904406 39.7862818,18.9882795 38.4314194,18.6269828 Z M37.7991502,18.4463345 C36.1130991,18.0248217 34.0958594,18.0549298 32.4098083,18.4463345 C32.4399163,18.5667667 32.5904566,18.5968748 32.6807808,18.6570909 C34.1560755,19.5904406 36.4141796,19.5001164 37.7991502,18.4764426 L37.7991502,18.4764426 Z" id="Combined-Shape"></path>
            <polygon id="Path" points="10.7333333 44.4051282 6.17435897 45.5538462 5.92307692 44.5128205 10.4820513 43.3641026"></polygon>
            <path d="M10.2666667,42.7179487 L7.03589744,43.2564103 L6.89230769,42.2871795 L7.39487179,42.2153846 C7.14358974,42.1076923 6.96410256,42 6.85641026,41.8564103 C6.74871795,41.7128205 6.64102564,41.5333333 6.60512821,41.2820513 C6.53333333,40.9589744 6.60512821,40.6717949 6.74871795,40.4564103 C6.89230769,40.2410256 7.10769231,40.0974359 7.43076923,40.0615385 L7.64615385,40.025641 L9.76410256,39.6666667 L9.90769231,40.6358974 L7.93333333,40.9589744 C7.75384615,40.9948718 7.61025641,41.0307692 7.5025641,41.0666667 C7.43076923,41.1025641 7.35897436,41.174359 7.28717949,41.2820513 C7.25128205,41.3897436 7.21538462,41.4974359 7.25128205,41.6051282 C7.32307692,42.0358974 7.68205128,42.1794872 8.32820513,42.0717949 L10.0871795,41.7846154 L10.2666667,42.7179487 Z" id="Path"></path>
            <path d="M7.14358974,39.5948718 L6.4974359,39.6666667 L6.46153846,39.1282051 L6.06666667,39.1641026 C5.92307692,39.1641026 5.77948718,39.1641026 5.70769231,39.1641026 C5.63589744,39.1641026 5.52820513,39.1282051 5.45641026,39.0923077 C5.13333333,38.9846154 4.95384615,38.6615385 4.88205128,38.1230769 C4.88205128,38.0153846 4.88205128,37.9076923 4.88205128,37.8 C4.88205128,37.6923077 4.88205128,37.6205128 4.91794872,37.5487179 L5.49230769,37.5128205 L5.49230769,37.6923077 C5.49230769,37.8 5.52820513,37.9076923 5.52820513,37.9435897 C5.56410256,38.0153846 5.56410256,38.0512821 5.6,38.0871795 C5.63589744,38.1230769 5.74358974,38.1589744 5.81538462,38.1589744 L5.99487179,38.1589744 L6.38974359,38.1230769 L6.31794872,37.4769231 L6.96410256,37.4051282 L7.03589744,38.0512821 L9.65641026,37.8358974 L9.72820513,38.8051282 L7.10769231,39.0205128 L7.14358974,39.5948718 Z" id="Path"></path>
            <path d="M7.8974359,37.225641 C7.35897436,37.225641 6.92820513,37.0820513 6.64102564,36.7589744 C6.31794872,36.4358974 6.17435897,36.0051282 6.17435897,35.4666667 C6.17435897,34.9282051 6.31794872,34.4974359 6.64102564,34.174359 C6.96410256,33.8512821 7.39487179,33.7076923 7.8974359,33.7076923 C8.43589744,33.7076923 8.86666667,33.8512821 9.15384615,34.174359 C9.47692308,34.4974359 9.62051282,34.9282051 9.62051282,35.4666667 C9.62051282,36.0051282 9.47692308,36.4358974 9.15384615,36.7589744 C8.83076923,37.0461538 8.43589744,37.225641 7.8974359,37.225641 Z M6.71282051,35.4307692 C6.71282051,35.9333333 7.10769231,36.1846154 7.8974359,36.1846154 C8.68717949,36.1846154 9.08205128,35.9333333 9.08205128,35.4307692 C9.08205128,34.9282051 8.68717949,34.6769231 7.8974359,34.7128205 C7.07179487,34.7128205 6.71282051,34.9641026 6.71282051,35.4307692 Z" id="Shape"></path>
            <path d="M9.58461538,33.2051282 L6.31794872,32.9179487 L6.38974359,31.9487179 L6.82051282,31.9846154 C6.64102564,31.8410256 6.53333333,31.6974359 6.46153846,31.5897436 C6.38974359,31.4461538 6.38974359,31.3025641 6.38974359,31.1230769 C6.38974359,31.0512821 6.42564103,30.9435897 6.46153846,30.8358974 L7.25128205,30.9076923 C7.25128205,30.9794872 7.21538462,31.0153846 7.21538462,31.0871795 C7.21538462,31.1230769 7.17948718,31.1948718 7.17948718,31.2666667 C7.14358974,31.5179487 7.21538462,31.7333333 7.32307692,31.8410256 C7.43076923,31.9846154 7.64615385,32.0564103 7.93333333,32.0564103 L9.65641026,32.2 L9.58461538,33.2051282 Z" id="Path"></path>
            <path d="M9.72820513,30.9435897 L6.53333333,30.1897436 L6.74871795,29.2564103 L7.21538462,29.3641026 C7.03589744,29.1846154 6.92820513,29.0051282 6.89230769,28.825641 C6.82051282,28.6461538 6.82051282,28.4666667 6.89230769,28.2512821 C6.96410256,28 7.07179487,27.7846154 7.21538462,27.6410256 C7.35897436,27.4974359 7.57435897,27.425641 7.78974359,27.3897436 C7.39487179,27.0666667 7.28717949,26.6717949 7.39487179,26.1692308 C7.46666667,25.8820513 7.57435897,25.6666667 7.75384615,25.5230769 C7.86153846,25.4153846 8.00512821,25.3435897 8.18461538,25.3435897 C8.32820513,25.3076923 8.54358974,25.3435897 8.75897436,25.3794872 L8.83076923,25.4153846 L10.9128205,25.9179487 L10.6974359,26.8512821 L8.79487179,26.3846154 L8.65128205,26.3487179 C8.25641026,26.2410256 8.04102564,26.3846154 7.93333333,26.7076923 C7.8974359,26.8871795 7.93333333,27.0666667 8.04102564,27.2102564 C8.14871795,27.3538462 8.32820513,27.4615385 8.57948718,27.4974359 L8.72307692,27.5333333 L10.4102564,27.9282051 L10.1948718,28.8615385 L8.29230769,28.3948718 C8.18461538,28.3589744 8.07692308,28.3589744 8.00512821,28.3589744 C7.93333333,28.3589744 7.86153846,28.3589744 7.78974359,28.3589744 C7.71794872,28.3589744 7.64615385,28.4307692 7.57435897,28.5025641 C7.5025641,28.574359 7.43076923,28.6820513 7.43076923,28.7538462 C7.39487179,28.9333333 7.43076923,29.1128205 7.53846154,29.2564103 C7.68205128,29.4 7.86153846,29.5076923 8.11282051,29.5435897 L9.90769231,29.974359 L9.72820513,30.9435897 Z" id="Path"></path>
            <path d="M10.0871795,22.8307692 L9.76410256,22.6871795 C9.62051282,22.6153846 9.51282051,22.6153846 9.40512821,22.6512821 C9.2974359,22.6871795 9.22564103,22.7948718 9.15384615,22.9025641 C9.08205128,23.0461538 9.08205128,23.1897436 9.11794872,23.3333333 C9.15384615,23.4410256 9.26153846,23.5487179 9.40512821,23.6205128 L9.04615385,24.4820513 C8.43589744,24.2307692 8.32820513,23.6564103 8.68717949,22.7589744 C8.75897436,22.6512821 8.79487179,22.5435897 8.83076923,22.4717949 C8.86666667,22.4 8.93846154,22.3282051 9.01025641,22.1846154 C9.08205128,22.0769231 9.18974359,21.9692308 9.33333333,21.8615385 C9.47692308,21.7897436 9.62051282,21.7538462 9.72820513,21.7179487 C9.87179487,21.7179487 10.0153846,21.7538462 10.2307692,21.8615385 L12.025641,22.6512821 L12.3487179,22.7589744 L11.9538462,23.6564103 L11.5948718,23.4769231 C11.774359,23.8358974 11.8102564,24.1948718 11.6666667,24.5179487 C11.5230769,24.8410256 11.3435897,25.0564103 11.0923077,25.1641026 C10.8410256,25.2717949 10.5897436,25.2717949 10.3025641,25.1282051 C10.1230769,25.0564103 10.0153846,24.9487179 9.90769231,24.8051282 C9.8,24.6615385 9.72820513,24.4820513 9.72820513,24.3025641 C9.72820513,24.1589744 9.72820513,24.0153846 9.76410256,23.8358974 C9.8,23.6564103 9.83589744,23.4769231 9.90769231,23.3333333 L10.0512821,22.974359 L10.0871795,22.8307692 Z M10.7333333,23.1179487 L10.5179487,23.0102564 L10.4102564,23.225641 C10.1589744,23.8 10.2307692,24.1589744 10.5897436,24.3384615 C10.7333333,24.4102564 10.8410256,24.4102564 10.9487179,24.3384615 C11.0564103,24.3025641 11.1641026,24.1948718 11.2,24.0512821 C11.4153846,23.6564103 11.2358974,23.3333333 10.7333333,23.1179487 Z" id="Shape"></path>
            <path d="M10.1230769,21.3948718 L9.54871795,21.0717949 L9.8,20.6051282 L9.26153846,20.2820513 L9.44102564,19.2769231 L10.3025641,19.7794872 L10.6615385,19.1333333 L11.2358974,19.4564103 L10.8769231,20.1025641 L12.2051282,20.8564103 C12.3487179,20.9641026 12.4923077,21 12.5641026,20.9641026 C12.6717949,20.9282051 12.7435897,20.8564103 12.8512821,20.7128205 C12.8871795,20.6410256 12.9230769,20.5333333 12.9948718,20.425641 L13.5333333,20.7487179 C13.4974359,20.8564103 13.4615385,20.9641026 13.425641,21.0717949 C13.3897436,21.1794872 13.3538462,21.2512821 13.2820513,21.3589744 C12.9948718,21.8615385 12.6717949,22.0769231 12.3487179,22.0051282 C12.2051282,21.9692308 12.025641,21.8974359 11.774359,21.7538462 L10.4102564,20.9641026 L10.1230769,21.3948718 Z" id="Path"></path>
            <path d="M10.625641,18.4153846 L9.83589744,17.8769231 L10.374359,17.0871795 L11.1641026,17.625641 L10.625641,18.4153846 Z M13.7128205,20.5333333 L11.0205128,18.6666667 L11.5589744,17.8769231 L14.2512821,19.7435897 L13.7128205,20.5333333 Z" id="Shape"></path>
            <path d="M13.2461538,18.2358974 C12.8512821,17.8769231 12.6358974,17.4820513 12.6,17.0153846 C12.5641026,16.5487179 12.7435897,16.1179487 13.1025641,15.7230769 C13.4615385,15.3282051 13.8564103,15.1128205 14.3230769,15.0769231 C14.7897436,15.0410256 15.1846154,15.2205128 15.5794872,15.5435897 C15.974359,15.9025641 16.1897436,16.2974359 16.225641,16.7641026 C16.2615385,17.2307692 16.0820513,17.6615385 15.7230769,18.0564103 C15.3641026,18.4512821 14.9692308,18.6666667 14.5025641,18.7025641 C14.0717949,18.774359 13.6410256,18.5948718 13.2461538,18.2358974 Z M13.5333333,16.1179487 C13.2102564,16.4769231 13.3179487,16.9435897 13.9282051,17.4461538 C14.5025641,17.9487179 14.9692308,18.0205128 15.2923077,17.6615385 C15.6153846,17.3025641 15.4717949,16.8358974 14.8974359,16.3333333 C14.3230769,15.8307692 13.8564103,15.7589744 13.5333333,16.1179487 Z" id="Shape"></path>
            <path d="M17.1589744,16.4051282 L15.0410256,13.8923077 L15.7948718,13.2820513 L16.1179487,13.6769231 C16.0820513,13.425641 16.0820513,13.2102564 16.1538462,13.0307692 C16.225641,12.8512821 16.3333333,12.6717949 16.5128205,12.5282051 C16.7641026,12.3128205 17.0153846,12.2051282 17.3025641,12.2410256 C17.5538462,12.2410256 17.8051282,12.3846154 17.9846154,12.6 L18.1282051,12.7794872 L19.5282051,14.4307692 L18.774359,15.0410256 L17.4820513,13.4974359 C17.3384615,13.3538462 17.2307692,13.2461538 17.1589744,13.2102564 C17.0871795,13.174359 16.9794872,13.1384615 16.8717949,13.1384615 C16.7641026,13.1384615 16.6564103,13.174359 16.5846154,13.2461538 C16.2615385,13.5333333 16.2974359,13.9282051 16.7282051,14.4307692 L17.8769231,15.7948718 L17.1589744,16.4051282 Z" id="Path"></path>
            <path d="M20.6410256,11.8820513 L21.5384615,11.3794872 L21.6102564,11.4871795 C21.7179487,11.6666667 21.8615385,11.8102564 22.0769231,11.8461538 C22.2923077,11.8820513 22.5076923,11.8461538 22.7230769,11.7384615 C22.9384615,11.6307692 23.0820513,11.4512821 23.1538462,11.2717949 C23.225641,11.0923077 23.225641,10.9128205 23.1179487,10.7333333 C22.974359,10.4820513 22.7230769,10.374359 22.4,10.4461538 L22.0769231,10.5179487 L21.6820513,10.5897436 L21.1435897,10.6615385 C20.9282051,10.6974359 20.7487179,10.6974359 20.6051282,10.6974359 C20.2461538,10.6615385 19.9948718,10.4461538 19.7794872,10.0871795 C19.5641026,9.69230769 19.5641026,9.33333333 19.7076923,8.97435897 C19.8512821,8.61538462 20.174359,8.29230769 20.6769231,8.00512821 C21.1435897,7.75384615 21.5384615,7.64615385 21.8615385,7.64615385 C22.0769231,7.64615385 22.2923077,7.71794872 22.5076923,7.82564103 C22.5794872,7.86153846 22.6871795,7.93333333 22.7230769,8.00512821 C22.7948718,8.07692308 22.8666667,8.18461538 22.9384615,8.29230769 L22.0410256,8.79487179 C21.9333333,8.61538462 21.7897436,8.50769231 21.6102564,8.43589744 C21.4307692,8.4 21.2153846,8.43589744 21,8.57948718 C20.7846154,8.68717949 20.6769231,8.83076923 20.6051282,9.01025641 C20.5333333,9.18974359 20.5692308,9.36923077 20.6410256,9.51282051 C20.7487179,9.69230769 20.8564103,9.76410256 21.0717949,9.8 C21.2153846,9.83589744 21.3948718,9.8 21.6820513,9.76410256 L22.1487179,9.65641026 L22.6153846,9.54871795 C23.2615385,9.40512821 23.7641026,9.62051282 24.0512821,10.1230769 C24.5179487,10.9487179 24.1948718,11.6666667 23.1179487,12.2410256 C22.0051282,12.8512821 21.2153846,12.7435897 20.7487179,11.8820513 L20.6410256,11.8820513 Z" id="Path"></path>
            <path d="M27.425641,8.79487179 L25.3076923,9.51282051 L25.3435897,9.65641026 C25.4153846,9.90769231 25.5589744,10.0871795 25.7384615,10.1948718 C25.9179487,10.3025641 26.0974359,10.3384615 26.3128205,10.2666667 C26.6,10.1589744 26.7435897,9.90769231 26.6717949,9.51282051 L27.5333333,9.22564103 C27.6410256,9.97948718 27.2820513,10.5179487 26.4564103,10.8051282 C25.9179487,10.9846154 25.4871795,10.9487179 25.1282051,10.7692308 C24.7692308,10.5897436 24.4820513,10.1948718 24.3025641,9.65641026 C24.1230769,9.15384615 24.1230769,8.68717949 24.3025641,8.32820513 C24.4820513,7.93333333 24.8051282,7.68205128 25.3076923,7.5025641 C25.8102564,7.32307692 26.2051282,7.35897436 26.5641026,7.53846154 C26.9230769,7.71794872 27.174359,8.11282051 27.3538462,8.65128205 L27.425641,8.79487179 Z M25.4871795,8.04102564 C25.3076923,8.11282051 25.1641026,8.22051282 25.0923077,8.43589744 C25.0205128,8.61538462 25.0564103,8.83076923 25.1282051,9.11794872 L26.3846154,8.68717949 C26.2051282,8.11282051 25.8820513,7.8974359 25.4871795,8.04102564 Z" id="Shape"></path>
            <path d="M30.8358974,7.35897436 L29.9384615,7.53846154 C29.9025641,7.35897436 29.8307692,7.21538462 29.6871795,7.14358974 C29.5435897,7.07179487 29.4,7.03589744 29.2564103,7.07179487 C29.0410256,7.10769231 28.8974359,7.25128205 28.7897436,7.46666667 C28.7179487,7.68205128 28.6820513,7.93333333 28.7538462,8.29230769 C28.8974359,9.01025641 29.2205128,9.33333333 29.6871795,9.22564103 C30.0461538,9.15384615 30.1897436,8.86666667 30.1179487,8.43589744 L31.0153846,8.25641026 C31.1230769,8.68717949 31.0512821,9.01025641 30.8358974,9.2974359 C30.6205128,9.58461538 30.2974359,9.76410256 29.8307692,9.87179487 C29.2923077,9.97948718 28.8615385,9.94358974 28.5025641,9.69230769 C28.1435897,9.47692308 27.9282051,9.08205128 27.8205128,8.50769231 C27.7128205,7.96923077 27.7487179,7.5025641 27.9641026,7.14358974 C28.1794872,6.78461538 28.5384615,6.56923077 29.0769231,6.42564103 C30.0102564,6.24615385 30.5846154,6.56923077 30.8358974,7.35897436 Z" id="Path"></path>
            <path d="M33.7435897,8.72307692 C33.5282051,9.15384615 33.2051282,9.36923077 32.7384615,9.40512821 C32.4153846,9.44102564 32.1641026,9.36923077 31.9487179,9.22564103 C31.8410256,9.15384615 31.7333333,9.04615385 31.6615385,8.86666667 C31.5897436,8.72307692 31.5538462,8.50769231 31.5179487,8.25641026 L31.3384615,6.1025641 L32.3076923,6.03076923 L32.4512821,8.00512821 C32.4512821,8.18461538 32.4871795,8.32820513 32.5230769,8.43589744 C32.5589744,8.54358974 32.6307692,8.61538462 32.7384615,8.68717949 C32.8461538,8.75897436 32.9179487,8.75897436 33.0615385,8.75897436 C33.4923077,8.72307692 33.6717949,8.4 33.6358974,7.75384615 L33.4923077,5.95897436 L34.4615385,5.88717949 L34.7128205,9.15384615 L33.7435897,9.22564103 L33.7435897,8.72307692 Z" id="Path"></path>
            <path d="M35.3948718,9.18974359 L35.5384615,5.92307692 L36.5076923,5.95897436 L36.4717949,6.38974359 C36.6153846,6.21025641 36.7230769,6.1025641 36.8666667,6.03076923 C37.0102564,5.95897436 37.1538462,5.92307692 37.3333333,5.95897436 C37.4051282,5.95897436 37.5128205,5.99487179 37.6205128,6.03076923 L37.5846154,6.82051282 C37.5128205,6.82051282 37.4769231,6.78461538 37.4051282,6.78461538 C37.3692308,6.78461538 37.2974359,6.78461538 37.225641,6.74871795 C36.974359,6.74871795 36.7589744,6.78461538 36.6512821,6.89230769 C36.5435897,7 36.4717949,7.21538462 36.4358974,7.5025641 L36.3641026,9.26153846 L35.3948718,9.18974359 Z" id="Path"></path>
            <path d="M37.6923077,9.33333333 L38.1230769,6.1025641 L39.0923077,6.24615385 L38.6615385,9.47692308 L37.6923077,9.33333333 Z M38.1589744,5.63589744 L38.3025641,4.66666667 L39.2717949,4.81025641 L39.1282051,5.77948718 L38.1589744,5.63589744 Z" id="Shape"></path>
            <path d="M39.4153846,6.92820513 L39.5589744,6.28205128 L40.0615385,6.38974359 L40.2051282,5.77948718 L41.2102564,5.63589744 L40.9948718,6.60512821 L41.7128205,6.74871795 L41.5692308,7.39487179 L40.8512821,7.25128205 L40.5282051,8.72307692 C40.4923077,8.9025641 40.4923077,9.04615385 40.5282051,9.11794872 C40.5641026,9.18974359 40.6717949,9.26153846 40.8512821,9.2974359 C40.9230769,9.33333333 41.0307692,9.33333333 41.1384615,9.33333333 L40.9948718,9.94358974 C40.8871795,9.94358974 40.7435897,9.94358974 40.6717949,9.90769231 C40.5641026,9.90769231 40.4564103,9.87179487 40.3487179,9.87179487 C39.774359,9.76410256 39.4871795,9.51282051 39.4512821,9.18974359 C39.4153846,9.04615385 39.4512821,8.83076923 39.5230769,8.54358974 L39.8461538,7 L39.4153846,6.92820513 Z" id="Path"></path>
            <polygon id="Path" points="41.7846154 6.74871795 42.7897436 7.07179487 42.825641 9.44102564 44.225641 7.57435897 45.0512821 7.86153846 42.1076923 11.7025641 41.2461538 11.4153846 42 10.4102564"></polygon>
            <polygon id="Path" points="45.8769231 11.6666667 48.3538462 7.64615385 49.7897436 8.50769231 48.9641026 12.0974359 51.8717949 9.8 53.2358974 10.625641 50.7589744 14.6461538 49.8974359 14.1076923 51.8717949 10.8769231 48.6769231 13.3538462 47.7435897 12.7794872 48.6051282 8.9025641 46.6307692 12.1333333"></polygon>
            <path d="M53.9538462,14.7179487 L54.1692308,14.4307692 C54.2769231,14.3230769 54.3128205,14.2153846 54.2769231,14.0717949 C54.2769231,13.9641026 54.2051282,13.8564103 54.0974359,13.7487179 C53.9538462,13.6410256 53.8461538,13.6051282 53.7025641,13.6051282 C53.5589744,13.6051282 53.4512821,13.6769231 53.3794872,13.7846154 L52.6615385,13.2102564 C53.0923077,12.7076923 53.6666667,12.7435897 54.3846154,13.3179487 C54.4923077,13.3897436 54.5641026,13.4615385 54.6,13.5333333 C54.6358974,13.5692308 54.7076923,13.6769231 54.8153846,13.7846154 C54.9230769,13.8923077 54.9948718,14.0358974 55.0307692,14.1794872 C55.0666667,14.3230769 55.0666667,14.4666667 55.0307692,14.6102564 C54.9948718,14.7538462 54.9230769,14.8974359 54.7794872,15.0769231 L53.5589744,16.5846154 L53.3435897,16.8717949 L52.5897436,16.2615385 L52.8410256,15.9384615 C52.4461538,16.0102564 52.1230769,15.974359 51.8358974,15.7230769 C51.5846154,15.5076923 51.4051282,15.2564103 51.3692308,15.0051282 C51.3333333,14.7538462 51.4051282,14.4666667 51.6205128,14.2512821 C51.7282051,14.1076923 51.8717949,14 52.0512821,13.9282051 C52.2307692,13.8564103 52.374359,13.8564103 52.5538462,13.8923077 C52.6974359,13.9282051 52.8410256,13.9641026 52.9846154,14.0358974 C53.1282051,14.1076923 53.3076923,14.2153846 53.4512821,14.3230769 L53.774359,14.574359 L53.9538462,14.7179487 Z M53.5230769,15.2564103 L53.6666667,15.0769231 L53.4871795,14.9333333 C53.0205128,14.5384615 52.625641,14.5025641 52.374359,14.825641 C52.3025641,14.9333333 52.2666667,15.0410256 52.2666667,15.1846154 C52.2666667,15.2923077 52.3384615,15.4358974 52.4820513,15.5076923 C52.8051282,15.7589744 53.1641026,15.6871795 53.5230769,15.2564103 Z" id="Shape"></path>
            <path d="M53.8102564,17.0871795 L56.3230769,15.0051282 L56.9333333,15.7589744 L56.5384615,16.0820513 C56.7897436,16.0461538 57.0051282,16.0461538 57.1846154,16.1179487 C57.3641026,16.1897436 57.5435897,16.2974359 57.6871795,16.4769231 C57.9025641,16.7282051 58.0102564,16.9794872 57.974359,17.2666667 C57.974359,17.5179487 57.8307692,17.7692308 57.5794872,17.9487179 L57.4,18.0923077 L55.7487179,19.4564103 L55.1384615,18.7025641 L56.6820513,17.4461538 C56.825641,17.3384615 56.9333333,17.2307692 56.9692308,17.1230769 C57.0410256,17.0512821 57.0410256,16.9435897 57.0410256,16.8358974 C57.0410256,16.7282051 57.0051282,16.6205128 56.9333333,16.5487179 C56.6461538,16.225641 56.2512821,16.2615385 55.7487179,16.6923077 L54.3846154,17.8410256 L53.8102564,17.0871795 Z" id="Path"></path>
            <path d="M58.8358974,20.5692308 L59.1589744,20.3897436 C59.3025641,20.3179487 59.374359,20.2102564 59.4102564,20.1025641 C59.4461538,19.9948718 59.4102564,19.8871795 59.3384615,19.7435897 C59.2666667,19.6 59.1589744,19.4923077 59.0153846,19.4564103 C58.9076923,19.4205128 58.7641026,19.4564103 58.6205128,19.5282051 L58.1538462,18.7384615 C58.7282051,18.3794872 59.2666667,18.6307692 59.7333333,19.4564103 C59.8051282,19.5641026 59.8410256,19.6717949 59.8769231,19.7076923 C59.9128205,19.7794872 59.9487179,19.8512821 59.9846154,19.9948718 C60.0205128,20.1384615 60.0564103,20.2820513 60.0564103,20.4615385 C60.0564103,20.6051282 59.9846154,20.7487179 59.9128205,20.8564103 C59.8410256,20.9641026 59.6974359,21.0717949 59.5179487,21.2153846 L57.8307692,22.2205128 L57.5435897,22.4358974 L57.0410256,21.574359 L57.4,21.3589744 C57.0051282,21.3230769 56.7179487,21.1435897 56.5384615,20.8205128 C56.3589744,20.5333333 56.2871795,20.2461538 56.3589744,19.9948718 C56.4307692,19.7435897 56.574359,19.5282051 56.8615385,19.3487179 C57.0051282,19.2410256 57.1846154,19.2051282 57.3641026,19.2051282 C57.5435897,19.2051282 57.7230769,19.2410256 57.8666667,19.3487179 C57.974359,19.4205128 58.1179487,19.5282051 58.225641,19.6358974 C58.3333333,19.7794872 58.4410256,19.8871795 58.5487179,20.0666667 L58.7641026,20.3897436 L58.8358974,20.5692308 Z M58.2615385,20.9282051 L58.4410256,20.8205128 L58.3333333,20.6410256 C58.0102564,20.1025641 57.6871795,19.9589744 57.3282051,20.1384615 C57.2205128,20.2102564 57.1487179,20.3179487 57.1128205,20.425641 C57.0769231,20.5333333 57.1128205,20.6769231 57.1846154,20.8205128 C57.4,21.1794872 57.7589744,21.2153846 58.2615385,20.9282051 Z" id="Shape"></path>
            <path d="M61.3487179,23.8 L61.7076923,23.6564103 L62.1025641,24.5538462 L59.0871795,25.8461538 C58.6564103,26.025641 58.2974359,26.025641 57.974359,25.8461538 C57.6512821,25.6666667 57.3641026,25.3435897 57.1487179,24.8051282 C56.7538462,23.8717949 56.8974359,23.2974359 57.5435897,23.0102564 L57.9384615,23.8717949 C57.7948718,23.9435897 57.7230769,24.0153846 57.6871795,24.1589744 C57.6512821,24.3025641 57.6871795,24.4461538 57.7589744,24.625641 C57.8307692,24.8051282 57.974359,24.9487179 58.1538462,24.9846154 C58.3333333,25.0564103 58.5487179,25.0205128 58.7641026,24.9128205 L59.3025641,24.6615385 C59.0512821,24.5897436 58.8358974,24.5179487 58.6923077,24.4102564 C58.5487179,24.3025641 58.4410256,24.1589744 58.3333333,23.9435897 C58.1538462,23.5487179 58.1897436,23.1897436 58.3333333,22.8307692 C58.5128205,22.4717949 58.8,22.2205128 59.2666667,22.0051282 C59.6974359,21.825641 60.0923077,21.7897436 60.4871795,21.8615385 C60.9179487,21.9692308 61.2051282,22.2205128 61.3846154,22.6512821 C61.5641026,23.1179487 61.5641026,23.5128205 61.3487179,23.8 Z M60.9538462,23.2615385 C60.8820513,23.0461538 60.7025641,22.9384615 60.4871795,22.9025641 C60.2717949,22.8666667 59.9846154,22.9025641 59.6974359,23.0461538 L59.6615385,23.0461538 C59.374359,23.1897436 59.1589744,23.3333333 59.0512821,23.5128205 C58.9435897,23.6923077 58.9076923,23.8717949 59.0153846,24.0871795 C59.1230769,24.3025641 59.2666667,24.4102564 59.5179487,24.4820513 C59.7692308,24.5179487 60.0205128,24.4820513 60.3794872,24.3384615 C60.6666667,24.2307692 60.8461538,24.0512821 60.9538462,23.8717949 C61.025641,23.6564103 61.025641,23.4410256 60.9538462,23.2615385 Z" id="Shape"></path>
            <path d="M61.5282051,28.9692308 L60.9179487,26.8153846 L60.774359,26.8512821 C60.5230769,26.9230769 60.3076923,27.0307692 60.2,27.2102564 C60.0923077,27.3538462 60.0564103,27.5692308 60.1282051,27.7487179 C60.2,28.0358974 60.4512821,28.1794872 60.8461538,28.1435897 L61.0974359,29.0051282 C60.3435897,29.0769231 59.8410256,28.6820513 59.5897436,27.8205128 C59.4461538,27.3179487 59.4820513,26.8871795 59.6974359,26.5282051 C59.9128205,26.1692308 60.3076923,25.9179487 60.8461538,25.774359 C61.3846154,25.6307692 61.8153846,25.6666667 62.174359,25.8461538 C62.5333333,26.025641 62.7846154,26.3846154 62.9282051,26.8871795 C63.0717949,27.3897436 63.0358974,27.8205128 62.8205128,28.1435897 C62.6051282,28.4666667 62.2102564,28.7179487 61.6717949,28.8974359 L61.5282051,28.9692308 Z M62.425641,27.0666667 C62.3538462,26.8871795 62.2461538,26.7435897 62.0666667,26.6717949 C61.8871795,26.6 61.6717949,26.6 61.3846154,26.6717949 L61.7435897,27.9282051 C62.3179487,27.7846154 62.5333333,27.4974359 62.425641,27.0666667 Z" id="Shape"></path>
            <path d="M60.2717949,29.7230769 L63.5384615,29.4 L63.6461538,30.3692308 L63.1435897,30.4051282 C63.3589744,30.5128205 63.5025641,30.6564103 63.6461538,30.8 C63.7538462,30.9435897 63.825641,31.1230769 63.825641,31.3384615 C63.8615385,31.5897436 63.825641,31.8051282 63.7179487,32.0205128 C63.6102564,32.2 63.4666667,32.3435897 63.2512821,32.4512821 C63.7179487,32.6307692 63.9692308,32.9538462 64.0410256,33.4564103 C64.0769231,33.7435897 64.0410256,33.9948718 63.8974359,34.174359 C63.825641,34.3179487 63.7179487,34.425641 63.574359,34.4974359 C63.4307692,34.5692308 63.2512821,34.6051282 63,34.6410256 L62.9282051,34.6410256 L60.8102564,34.8564103 L60.7025641,33.8871795 L62.6769231,33.7076923 L62.8205128,33.7076923 C63.2153846,33.6717949 63.3948718,33.4923077 63.3589744,33.1333333 C63.3230769,32.9538462 63.2512821,32.8102564 63.1076923,32.7025641 C62.9641026,32.5948718 62.7487179,32.5948718 62.4974359,32.5948718 L62.3538462,32.5948718 L60.6307692,32.774359 L60.5230769,31.8051282 L62.4615385,31.625641 C62.5692308,31.625641 62.6769231,31.5897436 62.7487179,31.5897436 C62.8205128,31.5897436 62.8923077,31.5538462 62.9641026,31.5179487 C63.0358974,31.4820513 63.1076923,31.4102564 63.1435897,31.3025641 C63.1794872,31.1948718 63.2153846,31.1230769 63.2153846,31.0153846 C63.1794872,30.8358974 63.1076923,30.6923077 62.9282051,30.5846154 C62.7487179,30.4769231 62.5333333,30.4769231 62.2820513,30.4769231 L60.4512821,30.6564103 L60.2717949,29.7230769 Z" id="Path"></path>
            <path d="M61.9589744,38.625641 L62.1025641,36.4 L61.9589744,36.4 C61.6717949,36.3641026 61.4564103,36.4358974 61.3128205,36.5435897 C61.1333333,36.6512821 61.0615385,36.8307692 61.025641,37.0461538 C60.9897436,37.3692308 61.1692308,37.5487179 61.5641026,37.6564103 L61.4923077,38.5538462 C60.7384615,38.374359 60.4153846,37.8358974 60.4871795,36.9384615 C60.5230769,36.4 60.7025641,36.0051282 61.025641,35.7538462 C61.3487179,35.5025641 61.7794872,35.3948718 62.3538462,35.4307692 C62.8923077,35.4666667 63.3230769,35.6461538 63.574359,35.9333333 C63.8615385,36.2564103 63.9692308,36.6512821 63.9333333,37.1897436 C63.8974359,37.6923077 63.7179487,38.0871795 63.3948718,38.3384615 C63.0717949,38.5897436 62.6410256,38.6974359 62.0666667,38.625641 L61.9589744,38.625641 Z M63.3948718,37.1538462 C63.3948718,36.9384615 63.3589744,36.7948718 63.1794872,36.6512821 C63.0358974,36.5076923 62.8205128,36.4358974 62.5333333,36.4358974 L62.425641,37.7641026 C63.0717949,37.7641026 63.3948718,37.5846154 63.3948718,37.1538462 Z" id="Shape"></path>
            <path d="M60.4153846,38.9487179 L63.6102564,39.5948718 L63.4307692,40.5282051 L62.9282051,40.4205128 C63.1076923,40.6 63.2512821,40.7794872 63.3230769,40.9589744 C63.3948718,41.1384615 63.3948718,41.3538462 63.3589744,41.5692308 C63.2871795,41.8923077 63.1435897,42.1435897 62.9282051,42.2871795 C62.7128205,42.4307692 62.4615385,42.5025641 62.1384615,42.4307692 L61.9230769,42.3948718 L59.8051282,41.9641026 L59.9846154,41.0307692 L61.9589744,41.425641 C62.1384615,41.4615385 62.2820513,41.4615385 62.3897436,41.4615385 C62.4974359,41.4615385 62.5692308,41.425641 62.6410256,41.3179487 C62.7128205,41.2461538 62.7846154,41.1384615 62.7846154,41.0307692 C62.8564103,40.6 62.6051282,40.3487179 61.9589744,40.2051282 L60.2,39.8461538 L60.4153846,38.9487179 Z" id="Path"></path>
            <path d="M62.2461538,42.9692308 L62.8564103,43.1487179 L62.7128205,43.6512821 L63.3230769,43.8307692 L63.3948718,44.8717949 L62.4615385,44.5846154 L62.2461538,45.3025641 L61.6358974,45.1230769 L61.8512821,44.4051282 L60.3794872,43.974359 C60.2,43.9384615 60.0564103,43.9025641 59.9846154,43.974359 C59.9128205,44.0102564 59.8410256,44.1179487 59.7692308,44.2974359 C59.7333333,44.3692308 59.7333333,44.4769231 59.6974359,44.5846154 L59.0871795,44.4051282 C59.0871795,44.2974359 59.1230769,44.1538462 59.1230769,44.0820513 C59.1230769,43.974359 59.1589744,43.8666667 59.1948718,43.7948718 C59.374359,43.2564103 59.625641,42.9692308 59.9487179,42.9692308 C60.0923077,42.9692308 60.3076923,43.0051282 60.5589744,43.0769231 L62.0666667,43.5435897 L62.2461538,42.9692308 Z" id="Path"></path>
            <path d="M27.2461538,61.0615385 L26.3128205,60.6307692 C26.4205128,60.4153846 26.4205128,60.2358974 26.3487179,60.0564103 C26.2769231,59.8769231 26.1333333,59.7333333 25.9538462,59.625641 C25.6307692,59.4820513 25.3076923,59.4820513 25.0205128,59.6615385 C24.6974359,59.8410256 24.4461538,60.2 24.1948718,60.7025641 C23.9794872,61.1692308 23.9076923,61.5282051 23.9435897,61.8512821 C23.9794872,62.174359 24.1589744,62.425641 24.4820513,62.5692308 C24.7333333,62.6769231 24.9487179,62.7128205 25.1282051,62.6410256 C25.3435897,62.5692308 25.4871795,62.425641 25.5948718,62.174359 L26.5282051,62.6051282 C26.4564103,62.7487179 26.4205128,62.8205128 26.3846154,62.8923077 C26.3487179,62.9282051 26.2769231,63 26.2051282,63.1076923 C26.0974359,63.2153846 25.9897436,63.3230769 25.8461538,63.3948718 C25.7384615,63.4666667 25.5948718,63.5025641 25.4871795,63.5384615 C25.3076923,63.574359 25.1282051,63.574359 24.8769231,63.5384615 C24.625641,63.5025641 24.374359,63.4307692 24.1589744,63.3230769 C23.5487179,63.0358974 23.1538462,62.6051282 22.974359,62.0666667 C22.7948718,61.5282051 22.9025641,60.9179487 23.225641,60.2358974 C23.5487179,59.5179487 24.0153846,59.0512821 24.5538462,58.8 C25.0923077,58.5487179 25.7025641,58.5846154 26.3128205,58.9076923 C26.8153846,59.1589744 27.174359,59.4461538 27.3179487,59.8410256 C27.4974359,60.2 27.4974359,60.5948718 27.2461538,61.0615385 Z" id="Path"></path>
            <path d="M30.1538462,63.7897436 L28.0358974,63.1435897 L28,63.2871795 C27.9282051,63.5384615 27.9282051,63.7538462 28,63.9692308 C28.0717949,64.1487179 28.2153846,64.2923077 28.4307692,64.3282051 C28.7179487,64.4358974 28.9692308,64.2923077 29.1487179,63.9333333 L30.0102564,64.1846154 C29.6512821,64.8666667 29.0769231,65.0820513 28.2153846,64.7948718 C27.7128205,64.6512821 27.3538462,64.3641026 27.2102564,64.0051282 C27.0307692,63.6461538 27.0307692,63.1794872 27.2102564,62.6410256 C27.3538462,62.1384615 27.6410256,61.7435897 28,61.5641026 C28.3589744,61.3487179 28.7897436,61.3487179 29.2923077,61.4923077 C29.7948718,61.6358974 30.1179487,61.8871795 30.2974359,62.2461538 C30.4769231,62.6051282 30.4769231,63.0717949 30.2974359,63.6102564 L30.1538462,63.7897436 Z M29.0769231,62.0307692 C28.8974359,61.9589744 28.7179487,61.9948718 28.5384615,62.1025641 C28.3948718,62.2102564 28.2512821,62.3897436 28.1794872,62.6769231 L29.4358974,63.0717949 C29.6153846,62.4974359 29.4717949,62.174359 29.0769231,62.0307692 Z" id="Shape"></path>
            <path d="M30.6564103,65.4051282 L31.2307692,62.174359 L32.2,62.3538462 L32.1282051,62.7846154 C32.2717949,62.6410256 32.4153846,62.5333333 32.5589744,62.4615385 C32.7025641,62.425641 32.8461538,62.3897436 33.025641,62.425641 C33.0974359,62.425641 33.2051282,62.4615385 33.3128205,62.5333333 L33.1692308,63.2871795 C33.0974359,63.2512821 33.0615385,63.2512821 32.9897436,63.2512821 C32.9538462,63.2512821 32.8820513,63.2153846 32.8102564,63.2153846 C32.5589744,63.1794872 32.3435897,63.1794872 32.2,63.2871795 C32.0564103,63.3948718 31.9846154,63.574359 31.9128205,63.8615385 L31.5897436,65.5846154 L30.6564103,65.4051282 Z" id="Path"></path>
            <path d="M33.1692308,63.1794872 L33.2051282,62.5333333 L33.7435897,62.5692308 L33.7794872,61.9230769 L34.7846154,61.6358974 L34.7128205,62.6051282 L35.4666667,62.6769231 L35.4307692,63.3230769 L34.6769231,63.2512821 L34.5692308,64.7589744 C34.5692308,64.9384615 34.5692308,65.0820513 34.6410256,65.1538462 C34.7128205,65.225641 34.8205128,65.2615385 35,65.2974359 C35.1076923,65.2974359 35.1794872,65.2974359 35.2871795,65.2974359 L35.2512821,65.9435897 C35.1435897,65.9435897 35,65.9794872 34.9282051,65.9794872 C34.8205128,65.9794872 34.7128205,65.9794872 34.6051282,65.9794872 C34.0307692,65.9435897 33.7076923,65.7641026 33.6358974,65.4051282 C33.6,65.2615385 33.6,65.0461538 33.6,64.7589744 L33.7076923,63.1794872 L33.1692308,63.1794872 Z" id="Path"></path>
            <path d="M35.7897436,62.2461538 L35.7897436,61.2769231 L36.7589744,61.2769231 L36.7589744,62.2461538 L35.7897436,62.2461538 Z M35.825641,65.9794872 L35.7897436,62.7128205 L36.7589744,62.7128205 L36.7948718,65.9794872 L35.825641,65.9794872 Z" id="Shape"></path>
            <path d="M37.1538462,63.3230769 L37.0820513,62.6769231 L37.5846154,62.6410256 L37.5487179,62.2461538 C37.5487179,62.1025641 37.5128205,61.9589744 37.5487179,61.8871795 C37.5487179,61.8153846 37.5846154,61.7076923 37.6205128,61.6358974 C37.7282051,61.3128205 38.0512821,61.1333333 38.5897436,61.0615385 C38.6974359,61.0615385 38.8051282,61.0615385 38.9128205,61.0615385 C39.0205128,61.0615385 39.0923077,61.0615385 39.1641026,61.0974359 L39.2,61.6717949 L39.0205128,61.6717949 C38.9128205,61.6717949 38.8051282,61.7076923 38.7692308,61.7076923 C38.6974359,61.7435897 38.6615385,61.7435897 38.625641,61.7794872 C38.5897436,61.8153846 38.5538462,61.9230769 38.5538462,61.9948718 L38.5538462,62.174359 L38.5897436,62.5692308 L39.2358974,62.4974359 L39.3076923,63.1435897 L38.6615385,63.2153846 L38.9128205,65.8358974 L37.9435897,65.9076923 L37.6923077,63.2871795 L37.1538462,63.3230769 Z" id="Path"></path>
            <path d="M39.3794872,61.9948718 L39.2,61.025641 L40.1692308,60.8461538 L40.3487179,61.8153846 L39.3794872,61.9948718 Z M40.025641,65.6564103 L39.4512821,62.425641 L40.4205128,62.2461538 L40.9948718,65.4769231 L40.025641,65.6564103 Z" id="Shape"></path>
            <path d="M44.5487179,63 L42.3948718,63.6461538 L42.4307692,63.7897436 C42.5025641,64.0410256 42.6461538,64.2205128 42.7897436,64.3641026 C42.9692308,64.4717949 43.1487179,64.5076923 43.3282051,64.4358974 C43.6153846,64.3282051 43.7589744,64.1128205 43.7230769,63.7179487 L44.5846154,63.4666667 C44.6923077,64.2205128 44.2974359,64.7230769 43.4358974,65.0102564 C42.9333333,65.1538462 42.5025641,65.1538462 42.1435897,64.9384615 C41.7846154,64.7230769 41.5333333,64.3641026 41.3538462,63.825641 C41.2102564,63.3230769 41.2102564,62.8564103 41.3897436,62.4974359 C41.5692308,62.1384615 41.9282051,61.8512821 42.4307692,61.7076923 C42.9333333,61.5641026 43.3282051,61.6 43.6871795,61.7794872 C44.0102564,61.9948718 44.2974359,62.3538462 44.4410256,62.9282051 L44.5487179,63 Z M42.6820513,62.1384615 C42.5025641,62.2102564 42.3589744,62.3179487 42.2871795,62.4974359 C42.2153846,62.6769231 42.2153846,62.8923077 42.2871795,63.1794872 L43.5435897,62.7846154 C43.3641026,62.2461538 43.0769231,62.0307692 42.6820513,62.1384615 Z" id="Shape"></path>
            <path d="M46.7384615,60.5230769 L45.9487179,58.8358974 L46.8102564,58.4051282 L48.8205128,62.6769231 L47.9589744,63.1076923 L47.7435897,62.6769231 C47.6717949,63.1435897 47.4564103,63.4666667 47.0615385,63.6461538 C46.6666667,63.825641 46.3076923,63.825641 45.9846154,63.6820513 C45.625641,63.5025641 45.3384615,63.2153846 45.1230769,62.7487179 C44.9076923,62.2461538 44.8358974,61.8153846 44.9076923,61.4205128 C45.0153846,61.025641 45.2307692,60.7384615 45.625641,60.5589744 C45.9487179,60.4153846 46.2358974,60.3794872 46.5230769,60.4512821 C46.5589744,60.4153846 46.6307692,60.4512821 46.7384615,60.5230769 Z M46.1282051,60.8461538 C45.9128205,60.9538462 45.8051282,61.1333333 45.7692308,61.3487179 C45.7333333,61.5641026 45.8051282,61.8871795 45.9846154,62.2102564 C46.1282051,62.4974359 46.3076923,62.7128205 46.4871795,62.8564103 C46.6666667,62.9641026 46.8820513,63 47.0615385,62.8923077 C47.2769231,62.7846154 47.3846154,62.6410256 47.4205128,62.3897436 C47.4564103,62.174359 47.3846154,61.8871795 47.2410256,61.5641026 C46.9179487,60.9179487 46.5589744,60.6666667 46.1282051,60.8461538 Z" id="Shape"></path>
            <path d="M23.5846154,49.6820513 C23.7641026,49.2512821 24.1948718,48.7846154 24.8769231,48.2820513 C25.4871795,47.8512821 25.8461538,47.5641026 26.025641,47.3487179 C26.2769231,47.0615385 26.4205128,46.7384615 26.4205128,46.4153846 C26.4205128,46.1282051 26.3487179,45.9128205 26.2051282,45.7333333 C26.0615385,45.5538462 25.8461538,45.4461538 25.5589744,45.4461538 C25.1641026,45.4461538 24.9128205,45.5897436 24.7692308,45.8769231 C24.6974359,46.0564103 24.625641,46.3076923 24.625641,46.6666667 L23.3333333,46.6666667 C23.3692308,46.0923077 23.4410256,45.6615385 23.6205128,45.3025641 C23.9794872,44.6564103 24.5897436,44.3333333 25.4512821,44.3333333 C26.1333333,44.3333333 26.7076923,44.5128205 27.1025641,44.9076923 C27.4974359,45.3025641 27.7128205,45.8051282 27.7128205,46.4512821 C27.7128205,46.9538462 27.5692308,47.3846154 27.2820513,47.7435897 C27.1025641,47.9948718 26.7794872,48.2820513 26.3487179,48.5692308 L25.8461538,48.9282051 C25.5230769,49.1435897 25.3076923,49.3230769 25.1641026,49.4307692 C25.0564103,49.5384615 24.9487179,49.6461538 24.8769231,49.7897436 L27.7487179,49.7897436 L27.7487179,50.9384615 L23.2615385,50.9384615 C23.2974359,50.5076923 23.4051282,50.0769231 23.5846154,49.6820513 Z" id="Path"></path>
            <path d="M33.025641,45.5179487 C32.8461538,45.6974359 32.5589744,46.0564103 32.2,46.5230769 C31.8410256,47.025641 31.5538462,47.5282051 31.3384615,48.0307692 C31.1589744,48.425641 30.9794872,48.9282051 30.8358974,49.5384615 C30.6923077,50.1128205 30.6205128,50.6153846 30.6205128,50.974359 L29.2923077,50.974359 C29.3282051,49.7897436 29.7230769,48.5692308 30.4410256,47.3128205 C30.9076923,46.5230769 31.3025641,45.9846154 31.625641,45.6615385 L28.3589744,45.6615385 L28.3948718,44.5128205 L33.025641,44.5128205 L33.025641,45.5179487 Z" id="Path"></path>
            <path d="M37.5846154,45.2307692 C37.9076923,45.8051282 38.0871795,46.6666667 38.0871795,47.7435897 C38.0871795,48.8205128 37.9076923,49.6820513 37.5846154,50.2564103 C37.2615385,50.8307692 36.6512821,51.1538462 35.825641,51.1538462 C35,51.1538462 34.3897436,50.8666667 34.0666667,50.2564103 C33.7435897,49.6820513 33.5641026,48.8205128 33.5641026,47.7435897 C33.5641026,46.6666667 33.7435897,45.8051282 34.0666667,45.2307692 C34.3897436,44.6564103 35,44.3333333 35.825641,44.3333333 C36.6512821,44.3333333 37.2615385,44.6564103 37.5846154,45.2307692 Z M35.0717949,49.5025641 C35.1794872,49.8974359 35.4666667,50.1128205 35.825641,50.1128205 C36.1846154,50.1128205 36.4717949,49.8974359 36.5794872,49.5025641 C36.6871795,49.1076923 36.7589744,48.5333333 36.7589744,47.7794872 C36.7589744,46.9897436 36.6871795,46.4153846 36.5794872,46.0205128 C36.4717949,45.625641 36.2205128,45.4461538 35.825641,45.4461538 C35.4307692,45.4461538 35.1794872,45.625641 35.0717949,46.0205128 C34.9641026,46.4153846 34.8923077,46.9897436 34.8923077,47.7794872 C34.8923077,48.4974359 34.9641026,49.1076923 35.0717949,49.5025641 Z" id="Shape"></path>
            <path d="M42.7538462,45.2307692 C43.0769231,45.8051282 43.2564103,46.6666667 43.2564103,47.7435897 C43.2564103,48.8205128 43.0769231,49.6820513 42.7538462,50.2564103 C42.4307692,50.8307692 41.8205128,51.1538462 40.9948718,51.1538462 C40.1692308,51.1538462 39.5589744,50.8666667 39.2358974,50.2564103 C38.9128205,49.6820513 38.7333333,48.8205128 38.7333333,47.7435897 C38.7333333,46.6666667 38.9128205,45.8051282 39.2358974,45.2307692 C39.5589744,44.6564103 40.1692308,44.3333333 40.9948718,44.3333333 C41.8205128,44.3692308 42.3948718,44.6564103 42.7538462,45.2307692 Z M40.2410256,49.5025641 C40.3487179,49.8974359 40.6358974,50.1128205 40.9948718,50.1128205 C41.3897436,50.1128205 41.6410256,49.8974359 41.7487179,49.5025641 C41.8564103,49.1076923 41.9282051,48.5333333 41.9282051,47.7794872 C41.9282051,46.9897436 41.8564103,46.4153846 41.7487179,46.0205128 C41.6410256,45.625641 41.3897436,45.4461538 40.9948718,45.4461538 C40.6,45.4461538 40.3487179,45.625641 40.2410256,46.0205128 C40.1333333,46.4153846 40.0615385,46.9897436 40.0615385,47.7794872 C40.025641,48.4974359 40.0974359,49.1076923 40.2410256,49.5025641 Z" id="Shape"></path>
            <path d="M44.225641,46.4512821 L44.225641,45.5538462 C44.6205128,45.5179487 44.9076923,45.5179487 45.0871795,45.4820513 C45.3384615,45.4102564 45.5538462,45.3025641 45.7333333,45.1230769 C45.8410256,45.0153846 45.9128205,44.8358974 45.9846154,44.6564103 C46.0205128,44.5487179 46.0205128,44.4410256 46.0205128,44.4051282 L47.0974359,44.4051282 L47.0974359,50.974359 L45.7692308,50.974359 L45.7692308,46.4512821 L44.225641,46.4512821 Z" id="Path"></path>
        </g>
    </g>
</svg>