<?xml version="1.0" encoding="UTF-8"?>
<svg width="70px" height="70px" viewBox="0 0 70 70" version="1.1" xmlns="http://www.w3.org/2000/svg" xmlns:xlink="http://www.w3.org/1999/xlink">
    <title>skyhigh copy 3</title>
    <defs>
        <rect id="path-1" x="0.195704225" y="0.19471831" width="69.6307746" height="69.6100704"></rect>
    </defs>
    <g id="Page-1" stroke="none" stroke-width="1" fill="none" fill-rule="evenodd" opacity="0.6">
        <g id="skyhigh-copy-3">
            <g id="Clipped">
                <mask id="mask-2" fill="white">
                    <use xlink:href="#path-1"></use>
                </mask>
                <g id="Rectangle"></g>
                <circle id="Oval" stroke="#FFFFFF" stroke-width="1.196" mask="url(#mask-2)" cx="35.0108451" cy="35.0088732" r="34.0273944"></circle>
            </g>
            <circle id="Oval" stroke="#FFFFFF" stroke-width="1.196" cx="35.0103521" cy="35.0088732" r="21.6442958"></circle>
            <path d="M46.76,32.6978873 C47.1356855,30.7755696 46.2801915,28.8217425 44.612804,27.7939956 C42.9454165,26.7662486 40.8155379,26.8799471 39.2670423,28.0793662 C37.8182757,25.9732474 35.4217659,24.7198133 32.865493,24.7311972 C28.6922799,24.6798441 25.2619928,28.0103289 25.1901408,32.1832394 C22.8086379,33.1162428 21.2430698,35.4143011 21.2464733,37.9720423 C21.2464733,41.2309859 23.893662,44.1177465 27.1560563,44.1177465 L43.6967606,44.1177465 C46.9571831,44.1177465 49.6038735,41.2309859 49.6038735,37.9720423 C49.6044233,35.8470401 48.5353261,33.8644854 46.759507,32.6973944" id="Path" fill="#FFFFFF" fill-rule="nonzero"></path>
            <path d="M17.7272535,15.913662 L17.7627465,14.6753521 C18.4383525,14.7283665 19.1102495,14.5344692 19.6537324,14.1296479 C20.0855634,13.789507 20.2112676,13.4133803 19.9894366,13.1319014 L19.9785915,13.1185915 C19.7685915,12.8514085 19.495493,12.8435211 18.5312676,13.2699296 C17.371338,13.7845775 16.5367606,14.0093662 15.7864789,13.0564789 L15.7746479,13.0426761 C15.0889437,12.1726056 15.3339437,11.0457042 16.3144366,10.2737324 C16.9527985,9.7536792 17.7527735,9.47295563 18.5761268,9.48007042 L18.654507,10.7070423 C18.0754317,10.7092255 17.5106295,10.8869508 17.0346479,11.2167606 C16.6304225,11.5347183 16.5638732,11.8871831 16.7472535,12.1208451 L16.7580986,12.1341549 C17.0045775,12.4491549 17.2929577,12.39 18.2892254,11.9492958 C19.4624648,11.4361268 20.2861972,11.3533099 20.9447887,12.1898592 L20.9551408,12.203169 C21.7059155,13.1550704 21.3988028,14.2622535 20.3635915,15.0776056 C19.6164294,15.67164 18.6767871,15.9699391 17.7238028,15.9156338" id="Path" fill="#FFFFFF" fill-rule="nonzero"></path>
            <polyline id="Path" fill="#FFFFFF" fill-rule="nonzero" points="20.2314789 7.62704225 21.4515493 7.0665493 22.5676056 9.49190141 23.7033803 6.03133803 25.1773239 5.35302817 24.0006338 8.74605634 27.8319014 10.8544366 26.3648592 11.5288028 23.5594366 9.95774648 23.2227465 10.9185211 24.0030986 12.6147887 22.7825352 13.1757746 20.2314789 7.62704225"></polyline>
            <polyline id="Path" fill="#FFFFFF" fill-rule="nonzero" points="29.2895775 8.17767606 26.2785915 4.9956338 27.8195775 4.69542254 29.7184507 6.82253521 30.7053521 4.13295775 32.2044366 3.84014085 30.6033099 7.89471831 31.0691549 10.2835915 29.750493 10.5409155 29.2895775 8.17767606"></polyline>
            <polyline id="Path" fill="#FFFFFF" fill-rule="nonzero" points="34.218662 3.76176056 35.559507 3.84112676 35.4165493 6.25415493 37.8892254 6.40056338 38.033169 3.98852113 39.3740141 4.06838028 39.0111972 10.1642958 37.6703521 10.0844366 37.8157746 7.63739437 35.3430986 7.49049296 35.1971831 9.93704225 33.856338 9.85767606 34.218662 3.76176056"></polyline>
            <polyline id="Path" fill="#FFFFFF" fill-rule="nonzero" points="41.708662 4.60570423 43.0120423 4.93352113 41.5233099 10.8559155 40.2199296 10.5285915 41.708662 4.60570423"></polyline>
            <path d="M43.8017606,8.22746479 L43.8091549,8.21119718 C44.1629541,7.44150206 44.8133808,6.84789668 45.6121235,6.56573618 C46.4108662,6.28357569 47.2898299,6.33691499 48.0485915,6.71359155 C48.8632572,7.04390113 49.515365,7.68131309 49.8641549,8.48823944 L48.6647887,9.05267606 C48.4494603,8.49984279 48.0241344,8.05466834 47.4816901,7.8143662 C46.5507064,7.42573496 45.4806489,7.86208404 45.0869014,8.79091549 L45.079507,8.8071831 C44.8373174,9.25326207 44.7914077,9.77992909 44.9527612,10.2611851 C45.1141147,10.742441 45.4682166,11.1349938 45.9303521,11.3449296 C46.3314741,11.5483422 46.7864692,11.6202652 47.2307746,11.550493 L47.6014789,10.7617606 L46.3779577,10.1869718 L46.8709155,9.13697183 L49.2716197,10.2628873 L48.1447183,12.6635915 C47.223129,12.9240441 46.2383803,12.8417336 45.3728169,12.4319014 C44.5838148,12.1091361 43.9654658,11.4715172 43.6670575,10.6729847 C43.3686491,9.8744522 43.4173012,8.98757775 43.8012676,8.22647887" id="Path" fill="#FFFFFF" fill-rule="nonzero"></path>
            <polyline id="Path" fill="#FFFFFF" fill-rule="nonzero" points="52.4965493 9.33366197 53.5194366 10.2042254 51.9533099 12.0439437 53.8393662 13.649507 55.405493 11.8102817 56.4283803 12.681338 52.4704225 17.3299296 51.4475352 16.4588732 53.036338 14.5930282 51.1502817 12.9869718 49.5609859 14.8533099 48.5385915 13.9822535 52.4965493 9.33366197"></polyline>
            <polyline id="Path" fill="#FFFFFF" fill-rule="nonzero" points="9.65408451 32.3375352 9.64471831 36.9427465 8.45028169 36.9402817 8.45669014 33.669507 7.21788732 33.6670423 7.21197183 36.5454225 6.01753521 36.5429577 6.02295775 33.6650704 4.74077465 33.6626056 4.7343662 36.9762676 3.53943662 36.9742958 3.54830986 32.3257042 9.65408451 32.3375352"></polyline>
            <polyline id="Path" fill="#FFFFFF" fill-rule="nonzero" points="9.69647887 37.6821831 9.97992958 38.8879577 6.9743662 42.5338732 10.6345775 41.673662 10.9377465 42.9647183 4.99316901 44.3622535 4.73190141 43.2491549 7.83408451 39.4819718 4.05507042 40.3707746 3.75190141 39.0797183 9.69647887 37.6821831"></polyline>
            <polyline id="Path" fill="#FFFFFF" fill-rule="nonzero" points="10.8485211 45.675493 10.0267606 44.0092958 11.1373944 43.4616197 13.3754225 47.9988028 12.2642958 48.5464789 11.4420423 46.8807746 7.07739437 49.0335211 6.48288732 47.8287324 10.8485211 45.675493"></polyline>
            <polyline id="Path" fill="#FFFFFF" fill-rule="nonzero" points="13.7165493 48.4764789 16.5579577 52.1016901 15.6173944 52.8396479 13.5997183 50.2644366 12.6241549 51.0290141 14.4002817 53.2946479 13.4597183 54.0321127 11.6840845 51.7664789 10.674507 52.5576761 12.7197887 55.1669014 11.7787324 55.9038732 8.91021127 52.2441549 13.7165493 48.4764789"></polyline>
            <path d="M17.0908451,52.6478873 L19.25,54.4166197 C19.7811929,54.7976535 20.136561,55.3765481 20.2359155,56.0226761 C20.2733786,56.5385297 20.1005484,57.0475966 19.7567606,57.4340141 L19.7459155,57.4473239 C19.2359784,58.1332757 18.3302684,58.393463 17.5340141,58.0827465 L17.3062676,60.7146479 L16.0916197,59.7198592 L16.3169014,57.3802817 L15.5005634,56.711338 L14.2622535,58.2232394 L13.2230986,57.3723944 L17.0908451,52.6478873 M17.3033099,56.6551408 C17.4741458,56.8484215 17.7206357,56.9577912 17.9785759,56.9547621 C18.2365161,56.9517331 18.4803697,56.8366053 18.6466197,56.6393662 L18.6574648,56.6260563 C19.0227465,56.1823944 18.9,55.696831 18.3932394,55.2827465 L17.3609859,54.436831 L16.2498592,55.7934507 L17.3033099,56.6551408 Z" id="Shape" fill="#FFFFFF" fill-rule="nonzero"></path>
            <path d="M21.6773239,56.2302113 L23.9074648,57.3492254 C25.2098592,58.0028873 25.6101408,59.1702113 25.0501408,60.2852817 L25.0422535,60.3010563 C24.4083099,61.5640141 23.0970423,61.7257042 21.8725352,61.1114789 L20.9605634,60.6535211 L20.1383099,62.2911268 L18.9374648,61.6887324 L21.676831,56.2302113 M22.4473239,60.0629577 C22.6708556,60.2129489 22.9477236,60.260548 23.2085134,60.1938212 C23.4693031,60.1270944 23.6892862,59.9523689 23.8133099,59.7134507 L23.8211972,59.698169 C24.0908451,59.1598592 23.8616197,58.683662 23.2611972,58.3819718 L22.3329577,57.9161268 L21.4949296,59.5847887 L22.4473239,60.0629577 Z" id="Shape" fill="#FFFFFF" fill-rule="nonzero"></path>
            <path d="M26.4885915,58.5515493 L29.1964085,59.2288732 C29.8399145,59.3481001 30.4084092,59.7211747 30.7738732,60.2640845 C31.0272826,60.7140951 31.0882528,61.2473619 30.9429577,61.7429577 L30.9385211,61.7602113 C30.7705659,62.5981415 30.0627773,63.2201315 29.2102113,63.2790141 L30.1280986,65.7556338 L28.6048592,65.3755634 L27.8092254,63.1626761 L26.7853521,62.906338 L26.3116197,64.8017606 L25.0087324,64.4764085 L26.4876056,58.5525352 M28.3914085,62.0855634 C29.026338,62.2442958 29.4759155,61.996831 29.5991549,61.4974648 L29.6035915,61.4802113 C29.7430986,60.9216901 29.4256338,60.5366901 28.7911972,60.3779577 L27.4966901,60.0540845 L27.0712676,61.7547887 L28.3914085,62.0855634 Z" id="Shape" fill="#FFFFFF" fill-rule="nonzero"></path>
            <polyline id="Path" fill="#FFFFFF" fill-rule="nonzero" points="32.3557746 59.7730986 33.6946479 59.8805634 33.2066197 65.9656338 31.8682394 65.858662 32.3557746 59.7730986"></polyline>
            <path d="M34.8521127,65.2232394 L35.5728169,64.2156338 C36.1037819,64.6365057 36.7692831,64.850692 37.4460563,64.8185211 C37.9937324,64.7780986 38.3082394,64.5355634 38.2840845,64.1776761 L38.2840845,64.1604225 C38.2584507,63.8207746 38.0376056,63.6625352 36.9994366,63.478169 C35.7492958,63.256831 34.9314789,62.976831 34.8412676,61.7671127 L34.8412676,61.7493662 C34.7584507,60.6446479 35.5915493,59.8475352 36.8352817,59.7538732 C37.6556498,59.6790143 38.4763926,59.8931362 39.1556338,60.3592254 L38.5315493,61.4225352 C38.0502338,61.1017007 37.4831909,60.9338217 36.9047887,60.9409155 C36.3911268,60.9793662 36.1392254,61.2366901 36.1614085,61.5324648 L36.1614085,61.5497183 C36.1914789,61.95 36.4621127,62.0609155 37.5352817,62.2516901 C38.7947887,62.4809155 39.5238732,62.8728169 39.6057042,63.9341549 L39.6057042,63.9519014 C39.6959155,65.1611268 38.8248592,65.9089437 37.5106338,66.0070423 C36.5591089,66.0819456 35.6133024,65.8039943 34.8535915,65.2261972" id="Path" fill="#FFFFFF" fill-rule="nonzero"></path>
            <polyline id="Path" fill="#FFFFFF" fill-rule="nonzero" points="39.9793662 59.5167606 44.4016901 58.228662 44.7359155 59.3762676 41.5952817 60.2911972 41.941831 61.4802113 44.7053521 60.6752113 45.0395775 61.8233099 42.2755634 62.6278169 42.6344366 63.8592254 45.8169718 62.9319718 46.1507042 64.0795775 41.6874648 65.379507 39.9793662 59.5167606"></polyline>
            <polyline id="Path" fill="#FFFFFF" fill-rule="nonzero" points="46.1147183 60.4242958 48.5297183 59.2480986 49.0877465 60.3927465 46.6727465 61.5694366 46.1147183 60.4242958"></polyline>
            <path d="M48.0338028,56.443662 L50.2871127,54.7957042 C50.7895923,54.3777087 51.4391092,54.1794426 52.0893662,54.2455634 C52.5991265,54.3379149 53.0496637,54.6329963 53.3380282,55.0633803 L53.3483803,55.0771831 C53.8846282,55.7428105 53.9094564,56.6848673 53.4090141,57.3778169 L55.9004225,58.2577465 L54.6320423,59.184507 L52.4226056,58.3790141 L51.5702817,59.0021127 L52.7238028,60.5795775 L51.6392958,61.3727465 L48.0352817,56.443169 M51.9685915,57.2412676 C52.1987475,57.1244344 52.3666235,56.9131746 52.4284448,56.6625756 C52.4902662,56.4119766 52.4399049,56.1468789 52.290493,55.9364085 L52.2796479,55.9221127 C51.94,55.4577465 51.4416197,55.4547887 50.913169,55.8407746 L49.8355634,56.629507 L50.8707746,58.0452817 L51.9685915,57.2412676 Z" id="Shape" fill="#FFFFFF" fill-rule="nonzero"></path>
            <polyline id="Path" fill="#FFFFFF" fill-rule="nonzero" points="52.6602113 52.8983099 55.6988028 49.4382394 56.5969718 50.2269718 54.4383099 52.6843662 55.3690141 53.5016901 57.2683803 51.3385915 58.1660563 52.1273239 56.2666901 54.2899296 57.2299296 55.1358451 59.4171831 52.6454225 60.3148592 53.4341549 57.2476761 56.9267606 52.6602113 52.8983099"></polyline>
            <path d="M57.0948592,46.9788732 L57.6760563,45.8859859 L64.3309859,46.4597887 L63.6723944,47.7000704 L62.2014085,47.5521831 L60.9907042,49.8316197 L61.9376761,50.9654225 L61.296831,52.1741549 L57.0948592,46.9788732 M60.9300704,47.4171127 L58.8019718,47.2046479 L60.1689437,48.8501408 L60.9300704,47.4171127 Z" id="Shape" fill="#FFFFFF" fill-rule="nonzero"></path>
            <path d="M59.0188732,43.1830986 L59.5838028,40.8691549 C60.0392958,39.0047887 61.6335211,38.0287324 63.303169,38.4364085 L63.3199296,38.4403521 C64.9895775,38.8485211 65.9720423,40.4530986 65.5165493,42.3174648 L64.9516197,44.6319014 L59.0188732,43.1830986 M60.5159859,42.1656338 L64.0923944,43.0391549 L64.3388732,42.0300704 C64.4836539,41.5579233 64.420942,41.0464922 64.1663763,40.6233131 C63.9118105,40.200134 63.4893837,39.9050915 63.0044366,39.8117606 L62.9871831,39.8073239 C62.5117446,39.6651965 61.9983511,39.7311132 61.5742384,39.9887377 C61.1501257,40.2463623 60.8549886,40.6715822 60.7619718,41.1590141 L60.5159859,42.1656338 Z" id="Shape" fill="#FFFFFF" fill-rule="nonzero"></path>
            <polyline id="Path" fill="#FFFFFF" fill-rule="nonzero" points="64.0638028 35.921338 60.3064789 38.1697183 60.3469014 36.6011268 62.8343662 35.2090141 60.4238028 33.6630986 60.4632394 32.1378873 64.0726761 34.5785211 66.5044366 34.6416197 66.4694366 35.9839437 64.0638028 35.921338"></polyline>
        </g>
    </g>
</svg>