<?xml version="1.0" encoding="UTF-8"?>
<svg width="70px" height="70px" viewBox="0 0 70 70" version="1.1" xmlns="http://www.w3.org/2000/svg" xmlns:xlink="http://www.w3.org/1999/xlink">
    <title>soc copy</title>
    <g id="Page-1" stroke="none" stroke-width="1" fill="none" fill-rule="evenodd" opacity="0.6">
        <g id="soc-copy" fill="#FFFFFF" fill-rule="nonzero">
            <path d="M68.5440543,44.6926576 C67.8169641,44.4753928 67.1057614,44.2644423 66.3951697,44.0511154 C64.4435887,43.4653152 62.4932299,42.8753734 60.5393404,42.2972454 C60.3292047,42.2350533 60.2766537,42.1636954 60.3387779,41.9462949 C60.754697,40.4735722 61.0399879,38.9670532 61.1913385,37.4442289 C61.3184624,36.2112487 61.356107,34.9706796 61.3039767,33.7322599 C61.0522876,27.4546752 58.5564003,21.4757964 54.2700291,16.8824927 C51.0225089,13.4049887 47.1222211,10.9741578 42.5691659,9.59 C41.1099508,9.15370167 39.6158382,8.84401643 38.1034239,8.66438409 C36.6607264,8.4859391 35.2051781,8.43411832 33.7534433,8.50951503 C28.2250048,8.79467507 23.2486906,10.6103977 18.8631329,14.0008826 C15.5175267,16.5873521 12.9508826,19.8064694 11.144937,23.6284287 C10.1180348,25.8087895 9.39960027,28.1214677 9.01031038,30.499903 C8.71462682,32.2825125 8.60226254,34.0907151 8.67497575,35.8962173 C8.75002831,37.8689053 9.05211722,39.8263777 9.57526673,41.7299127 C9.66604268,42.0594762 9.66516004,42.0594762 9.34890398,42.1508632 C6.75462658,42.897892 4.16032654,43.6450792 1.56600388,44.3924248 C1.50299709,44.4105529 1.43903977,44.4256256 1.3443259,44.4502037 C0.205191116,40.4440633 -0.192436358,36.26351 0.171028128,32.114452 C0.93613967,23.4102813 4.44034918,15.9599321 10.7102037,9.88554801 C23.2193598,-2.23443259 42.2025994,-3.01122211 55.4848109,6.70743938 C69.5076916,16.9681086 71.9965276,33.3205432 68.5440543,44.6926576 Z M22.60613,7.60827352 C22.6047042,6.59222114 21.7981765,5.74115422 20.8242871,5.72696411 C19.8330165,5.71270611 18.9364597,6.56886518 18.9469835,7.51939864 C18.9582541,8.54074685 19.7927546,9.40369544 20.7649467,9.39943387 C21.7695926,9.39473327 22.6078274,8.57937924 22.6064711,7.60834142 L22.60613,7.60827352 Z M62.9379437,22.5803298 C63.167226,22.9289719 63.1672939,22.9605432 62.9424927,23.2676334 C62.7248206,23.5650598 62.5066279,23.8621015 62.2879146,24.1587585 C62.0652182,24.4619787 62.0688167,24.5584578 62.3359845,24.9147042 L63.3781765,23.4813676 C63.4633851,23.5683414 63.5310766,23.6449952 63.6065761,23.7130941 C63.9021242,23.9798545 64.2348109,24.0135984 64.5910572,23.8546557 C64.9369156,23.7002619 65.1441998,23.454549 65.1279728,23.0507081 C65.1037342,22.4483414 64.7755965,21.956644 64.5826382,21.4014646 C64.4735984,21.439418 64.3965373,21.4619593 64.3227352,21.4925121 C63.4524087,21.8533075 62.5824216,22.2149628 61.712774,22.5774782 C61.3584287,22.7254898 61.3591077,22.7278661 61.5294568,23.0722308 C61.5450085,23.0952687 61.5627432,23.1167549 61.5824151,23.1363919 L62.9379437,22.5803298 Z M25.6550339,7.72064016 C25.6195247,7.78486906 25.5969156,7.82248303 25.5777013,7.86111542 C25.4391271,8.14199806 25.4491077,8.17757517 25.7474394,8.25626576 C26.2464871,8.39520308 26.7818287,8.29087198 27.1921823,7.97470417 C27.58258,7.68900097 27.6842192,7.21556741 27.5068089,6.62915616 C27.3215228,6.01667313 27.1214355,5.40846751 26.9447721,4.79354025 C26.8867895,4.59168768 26.8083026,4.56907856 26.6154122,4.62516004 C26.4225218,4.68124151 26.480097,4.79347236 26.5075946,4.91412221 C25.7348109,4.72822502 25.1361106,4.95166828 24.8992241,5.50352085 C24.6746945,6.02678952 24.885645,6.72332687 25.3628807,7.02980601 C25.6456644,7.2113579 25.9539767,7.23838021 26.2764113,7.17462658 C26.6004869,7.11559129 26.8781469,6.90805005 27.0265179,6.61394762 C27.1970029,7.03992241 27.1898739,7.39779825 26.9785839,7.59455868 C26.5832978,7.9628225 26.1324054,7.95223084 25.6550339,7.72064016 Z M5.92990301,35.1493695 C5.82806014,35.1940446 5.74733269,35.2245975 5.67101843,35.2632978 C4.70514064,35.7528904 3.74102813,36.2469641 2.77216295,36.7308535 C2.62781765,36.8029583 2.58782735,36.8923763 2.59753637,37.0431717 C2.60758487,37.1993307 2.67731329,37.2711639 2.82362755,37.3231717 C3.82881668,37.6808438 4.83040737,38.0487003 5.83376334,38.4115325 C5.93343356,38.4475849 6.03744908,38.4716877 6.14207565,38.5021048 C6.21445199,38.0811542 6.18688652,38.0295538 5.83613967,37.9029292 C5.69770126,37.8529583 5.55383123,37.815548 5.42041707,37.7547818 C5.35777115,37.726818 5.31047397,37.6728739 5.29094083,37.6071096 C5.25095053,37.1374782 5.21883608,36.6668962 5.19975752,36.1959748 C5.20925132,36.1145988 5.25436511,36.0416308 5.3229195,35.9967701 C5.49184287,35.8933657 5.6785548,35.8194956 5.85094083,35.7211154 C5.91206069,35.6886992 5.95666107,35.6319934 5.97376334,35.5649564 C5.96981869,35.4255079 5.95515534,35.2865693 5.92990301,35.1493695 L5.92990301,35.1493695 Z M6.80466537,27.7113773 C6.82811594,27.6410595 6.85531293,27.5720472 6.88613967,27.5046363 C6.99219205,27.3113385 6.96082444,27.1667895 6.76623666,27.0429486 C6.63048931,26.9535524 6.50702572,26.8467743 6.39899127,26.7253346 C6.34647712,26.6627592 6.32379946,26.5804257 6.33686712,26.4997866 C6.46362755,26.0617265 6.60213385,25.6268574 6.748516,25.1949079 C6.77934456,25.1273225 6.83809654,25.076528 6.90942774,25.0557905 C7.05402278,25.0278117 7.20067166,25.0117571 7.34789525,25.0077886 C7.70590689,24.9870805 7.80652764,24.8719981 7.77896217,24.4829583 C7.66354025,24.4885936 7.54648885,24.4897478 7.43065955,24.5007468 C7.03510184,24.5381571 6.6399515,24.5799806 6.24446169,24.6183414 C5.59232784,24.6816198 4.94019399,24.7455771 4.28765276,24.8043744 C4.12674103,24.818904 4.06665373,24.9145684 4.0242192,25.0536178 C3.97804731,25.1635786 4.01555257,25.2908468 4.11397672,25.3581959 C4.67811833,25.8448691 5.23370514,26.3415228 5.79370514,26.8330165 C6.11939864,27.1187876 6.44774006,27.4014355 6.80466537,27.7113094 L6.80466537,27.7113773 Z M63.6205626,28.4728904 C63.2814258,29.0611348 63.3536663,29.6381086 63.8065955,30.0200194 C64.2369835,30.3829195 64.9941513,30.3691368 65.4231814,29.9938118 C65.6980884,29.7600716 65.8463601,29.4101604 65.8230844,29.0500679 C65.809098,28.687032 65.6511057,28.3806887 65.2979146,28.1266925 C65.5908147,28.1225509 65.5739088,28.0001358 65.5435597,27.8390883 C65.5084578,27.6527837 65.411096,27.666227 65.2725897,27.7003104 C65.0942968,27.7441707 64.9119302,27.7713967 64.7313967,27.806227 C63.9444908,27.9579728 63.1582638,28.1135887 62.3701358,28.2590204 C62.1783317,28.2944617 62.1712027,28.3840834 62.204064,28.5514452 C62.2404559,28.7370708 62.3258002,28.7258002 62.4701455,28.6945005 C62.8490689,28.6126188 63.2315228,28.5467604 63.6205626,28.4728904 Z M6.83216295,20.0149079 C6.81518914,19.926644 6.80541222,19.8622114 6.7900679,19.7988652 C6.72692532,19.5381474 6.6886324,19.519612 6.44957323,19.6412124 C6.04899127,19.8448982 5.85562561,20.2025703 5.75656644,20.6157808 C5.6471193,21.0722405 5.81848691,21.4817168 6.188516,21.7093695 C6.57063046,21.9444229 6.90895247,21.9127158 7.30389913,21.5976819 C7.41300679,21.5106402 7.51118332,21.4100873 7.61506305,21.3164597 C7.74498022,21.186613 7.88289606,21.0650239 8.02800194,20.9524054 C8.21899127,20.8196702 8.44596508,20.8591174 8.61054316,21.0229486 C8.79352085,21.2051794 8.83941804,21.5864791 8.64781765,21.84 C8.49661494,22.0398836 8.27161009,22.1838894 8.07933075,22.352677 C8.03261882,22.3510475 8.035742,22.3939573 8.04246363,22.4362561 C8.10153249,22.8081183 8.15191077,22.8442386 8.49451018,22.6444229 C8.95966052,22.3728419 9.18867119,21.932066 9.22458778,21.4019399 C9.26534947,21.0307455 9.0734262,20.6727514 8.74171678,20.5012415 C8.31811833,20.2606887 7.93580019,20.3263434 7.52007759,20.7117168 C7.33105723,20.8868865 7.1499806,21.0715616 6.95274491,21.2366149 C6.79859586,21.377484 6.56514474,21.3861026 6.40102813,21.2569835 C6.22075905,21.1423452 6.13499759,20.924527 6.18871969,20.7177595 C6.25661494,20.3633463 6.45249273,20.1167507 6.83216295,20.0149079 Z M3.30649855,30.2337536 C3.21626576,30.3025994 3.1414452,30.3491756 3.07877789,30.4090592 C2.54552861,30.9161009 2.44911736,31.8827934 2.88507274,32.5288846 C3.3128128,33.1630262 3.93174588,33.3911542 4.68096993,33.3353443 C5.93248303,33.2425315 6.68910766,31.7411639 6.00954413,30.6864791 C5.79648885,30.3558293 5.72024248,30.3497866 5.46767216,30.645742 C5.45617578,30.6656188 5.44773044,30.6871098 5.44261882,30.7094956 C5.47371484,30.7515228 5.50250242,30.7936857 5.53454898,30.8333366 C5.86811833,31.2456644 5.89032008,31.7028031 5.67305529,32.1600097 C5.29963143,32.9452861 4.13183317,33.0910572 3.44928225,32.4655383 C2.9586033,32.0160718 2.91073715,31.1271193 3.45437439,30.7287779 C3.49676695,30.6782789 3.511457,30.6100896 3.49361785,30.5466149 C3.44049854,30.4370648 3.37788619,30.3323777 3.30649855,30.2337536 L3.30649855,30.2337536 Z M53.1212415,8.42695441 C53.1084093,7.81949564 52.5497672,7.23878758 51.8477304,7.07617847 C51.053356,6.89211445 50.2549079,7.28203686 49.8600291,8.0470805 C49.4575461,8.82699321 49.6041998,9.64737148 50.2402425,10.21742 C50.7432784,10.6680407 51.5377207,10.7933754 51.9122987,10.5195538 C51.900485,10.4720272 51.8857517,10.422871 51.8761785,10.3727643 C51.8417556,10.1922987 51.7651697,10.1449079 51.5596508,10.1643938 C51.3058557,10.1946066 51.0485614,10.1586088 50.8128031,10.059903 C49.9301649,9.63793404 49.8898351,8.4014258 50.7140155,7.7786227 C51.4426673,7.22812803 52.4615713,7.53515034 52.6414258,8.34975752 C52.6744221,8.41421708 52.7365375,8.45875506 52.8081765,8.46932105 C52.9138259,8.46744603 53.0188939,8.45322732 53.1212415,8.42695441 L53.1212415,8.42695441 Z M5.17877789,28.2073521 C5.22453928,27.4833172 4.67682832,26.9864597 3.98382153,27.1432299 C3.56029098,27.2390301 3.38233754,27.5740931 3.27513094,27.9443938 C3.17729389,28.2824442 3.12297769,28.6329195 3.0442871,28.9764016 C3.00728419,29.138128 3.09901067,29.180902 3.2285548,29.2078565 C4.214258,29.4125606 5.20023278,29.6157711 6.1843065,29.8280795 C6.39641125,29.8738409 6.41657614,29.7624248 6.45975752,29.6006305 C6.51047527,29.4105238 6.41039767,29.386421 6.27759457,29.3596023 C5.91028128,29.2849176 5.54378274,29.2067701 5.17592629,29.1352085 C5.04651794,29.1100194 5.00557711,29.0515616 5.03680892,28.9190301 C5.09214355,28.6839088 5.13213385,28.4448497 5.17877789,28.2073521 Z M9.18697381,19.4886518 C9.34727449,19.2306499 9.49929195,18.9872454 9.65049467,18.743162 C9.80448109,18.4946654 9.95765276,18.2456935 10.1083802,18.0015422 C9.81541222,17.7371581 9.40383123,17.6132493 9.09063046,17.6831135 C8.49104753,17.8168671 8.09895247,18.4484966 8.22727449,19.0739476 C8.34812803,19.6631426 9.07487876,20.1481183 9.65823472,20.0290301 C10.3211447,19.8782432 10.7515972,19.2368365 10.6399321,18.566227 C10.6081571,18.3995441 10.5458293,18.3150145 10.3561979,18.4079631 C10.2524539,18.4587488 10.1801455,18.4876043 10.2088652,18.62645 C10.2291047,18.7353354 10.2306889,18.8468689 10.21355,18.9562852 C10.1866672,19.1864614 10.0473028,19.3882897 9.84157941,19.4949747 C9.63585606,19.6016596 9.39059802,19.5992907 9.18697381,19.4886518 Z M17.7727352,10.2159263 C17.4567507,9.67663434 16.9444132,9.44192047 16.4618138,9.59400582 C15.9118623,9.7672066 15.5395247,10.334064 15.6244617,10.868807 C15.7223666,11.4857032 16.2911251,11.9923375 16.8706111,11.9788264 C17.4397769,11.9652473 18.0033075,11.443065 18.0723569,10.8717265 C18.0874297,10.7468671 18.0416683,10.699001 17.9225121,10.6829098 C17.728807,10.6567701 17.6543938,10.7394665 17.6148109,10.9268574 C17.5651781,11.220356 17.3372684,11.4514672 17.0444908,11.5051891 C16.7942289,11.5576722 16.5526576,11.5195829 16.3668962,11.2891465 L17.7727352,10.2159263 Z M63.4820563,27.3029874 C63.6670708,27.0008535 63.6670708,27.0008535 63.3975946,26.7974394 C62.9331232,26.4466925 62.9937536,25.7662464 63.5296508,25.5257614 C63.5533463,25.5936566 63.578807,25.6597187 63.5993113,25.7271387 C63.7344229,26.170291 63.8648497,26.614937 64.0070902,27.0557808 C64.0262367,27.1151891 64.1142289,27.2062367 64.1510281,27.1978177 C64.5938409,27.0969932 65.034549,26.7842677 65.081193,26.2880213 C65.1715616,25.3278468 64.3283026,24.6961494 63.4276043,25.0464888 C62.9450048,25.2342192 62.6386615,25.6724151 62.6567216,26.1493113 C62.677226,26.6955286 63.0053637,27.1614258 63.4820563,27.3029874 Z M30.0843841,6.20107662 C29.9733075,5.6843259 29.8775752,5.19486906 29.760388,4.71057226 C29.6898448,4.41923375 29.5283899,4.18648885 29.2208244,4.0914355 C28.813453,3.96542192 28.1577207,4.18255092 27.8992435,4.52202716 C27.8287682,4.61456838 27.8402425,4.66895247 27.9295926,4.73929195 C28.0548594,4.83760427 28.149098,4.87182347 28.281969,4.73250242 C28.4695792,4.52365307 28.7578946,4.43668458 29.0296993,4.50695441 C29.1471581,4.53696411 29.2333851,4.68959263 29.3335306,4.78641125 C29.2547597,4.84424174 29.1691531,4.89213033 29.0786518,4.92899127 C28.7507856,5.018613 28.4196605,5.09669253 28.1708923,5.35191077 C27.9948576,5.52237878 27.9251889,5.77494491 27.9889338,6.0115546 C28.0526788,6.2481643 28.239797,6.43154953 28.4776431,6.49051406 C28.936547,6.61048497 29.314452,6.46403492 29.6123763,6.06956353 C29.7063434,6.40191077 29.9010669,6.23753637 30.0843841,6.20107662 Z M37.3850242,4.17779825 C37.5343938,4.12348206 37.6622405,4.06583899 37.7959942,4.03066925 C38.0816974,3.95550921 38.4149952,4.05035887 38.5099806,4.24236663 C38.5442211,4.32861356 38.5529183,4.42289219 38.5350339,4.51394762 C38.5319787,4.5343162 38.405354,4.5442968 38.3352182,4.54606208 C38.0939864,4.55230844 37.8501746,4.53248303 37.6117265,4.56018429 C37.2050339,4.60771096 36.9563337,4.87331717 36.9278855,5.24911736 C36.9028322,5.58105723 37.1305529,5.84870029 37.5240737,5.96493695 C37.8657226,6.06582929 38.1715228,5.98917556 38.4633366,5.77483026 C38.4678177,5.84326867 38.4551212,5.91360815 38.4763046,5.92596508 C38.5606159,5.98072088 38.6543249,6.01941529 38.7527061,6.04009699 C38.8153928,6.02882548 38.867577,5.98550611 38.890194,5.92596508 C38.9318138,5.40561591 38.9754025,4.88465567 38.988031,4.36308438 C38.9956353,4.04818623 38.8225024,3.81931135 38.5251212,3.70219205 C38.1947243,3.5662616 37.8249611,3.56126053 37.4910087,3.68820563 C37.3752682,3.74305686 37.2642654,3.80739215 37.1591368,3.88055286 L37.3850242,4.17779825 Z M45.1507468,5.9929098 C45.1988846,5.41770126 44.7188652,4.80935984 43.8743162,4.78349176 C43.221775,4.76346266 42.681872,5.34756547 42.6822113,6.03731329 C42.6825509,6.69677983 43.250902,7.23050436 43.9621048,7.23905917 C44.6311445,7.24761397 45.1503395,6.70350145 45.1509505,5.99304559 L45.1507468,5.9929098 Z M53.6580213,12.3396896 C54.312871,12.3407081 54.8937148,11.7613579 54.8869253,11.1147915 C54.8797284,10.4737245 54.2537342,9.8686421 53.599903,9.87053869 C52.9745878,9.87244423 52.3905529,10.4625897 52.3845781,11.0989719 C52.3780601,11.7443841 52.9883705,12.338807 53.658225,12.3398254 L53.6580213,12.3396896 Z M66.2336477,32.1158099 C66.2343259,31.3699806 65.7537633,30.8617168 65.0472454,30.8609691 C64.3213094,30.8602231 63.8088361,31.3623763 63.8110018,32.0724248 C63.8131814,32.7889234 64.3376722,33.334258 65.0180504,33.3273327 C65.7285742,33.3200679 66.2330359,32.8173036 66.2336477,32.1158099 Z M61.3172169,18.1259942 C61.3165373,17.4387585 60.750291,16.8454898 60.0908923,16.8410519 C59.442289,16.8366634 58.8448109,17.4237536 58.8506499,18.0601358 C58.8568283,18.7299224 59.4530844,19.3394859 60.0977498,19.3350966 C60.7473036,19.330388 61.3178952,18.7648206 61.3172169,18.1259942 Z M30.5369738,3.83608147 C30.5351342,3.87048534 30.5353156,3.90496753 30.537517,3.93935015 C30.6122017,4.58170708 30.6915713,5.22352085 30.759806,5.86655674 C30.7746072,6.00601358 30.7785451,6.11159069 30.9658681,6.09271581 C31.1325509,6.07594568 31.2317459,6.02482056 31.1976625,5.83593598 C31.1852872,5.76338587 31.1770585,5.69018916 31.1730165,5.61670223 C31.1503395,5.26500485 31.1051212,4.91256062 31.1147624,4.56161009 C31.1231814,4.24528613 31.384646,4.04730359 31.7196411,4.04390883 C32.0003201,4.04105723 32.1352958,4.17053346 32.1904947,4.51679922 C32.2263434,4.74153249 32.2448109,4.96904947 32.2726479,5.19514064 C32.3017071,5.43277401 32.3323278,5.66959263 32.3621339,5.90532493 C32.4764016,5.90532493 32.5569932,5.91075655 32.6364985,5.90403492 C32.7543647,5.89405432 32.7957808,5.82935015 32.7809117,5.70822502 C32.7333851,5.32169738 32.6962464,4.93387973 32.6519108,4.54721629 C32.5768186,3.89114452 32.2746848,3.59804074 31.7032784,3.6243162 C31.4182296,3.63835761 31.1550436,3.78129357 30.9880698,4.01274491 C30.8892144,3.74062076 30.8892144,3.74062076 30.5369738,3.83608147 Z M45.3404462,7.67419981 C45.7213385,7.89356935 45.7213385,7.89356935 45.8709796,7.53888458 C45.8881571,7.49814743 45.9026867,7.45632396 45.9216974,7.41667313 C46.0676043,7.11209505 46.1898157,6.79258002 46.3677692,6.50789525 C46.5394083,6.23332687 46.8726382,6.18763337 47.1524345,6.34494665 C47.3948885,6.481484 47.4540252,6.70934045 47.3196605,7.03883608 C47.1695441,7.40696411 47.0156935,7.77380213 46.8526091,8.13629486 C46.7908923,8.27351115 46.8277595,8.33699321 46.9591368,8.38356935 C47.0777498,8.42559651 47.1886227,8.50306499 47.2628322,8.31838991 C47.4302619,7.90192047 47.622677,7.49468477 47.7744229,7.0728516 C48.0100873,6.4185451 47.5911057,5.8643162 46.8890689,5.88339476 C46.7678978,5.89376085 46.6474752,5.91153741 46.5284772,5.93662464 C46.5827934,5.68724539 46.5416489,5.64562561 46.2042774,5.59545102 L45.3404462,7.67419981 Z M56.1089719,11.9465082 C56.2898448,11.7991077 56.1317847,11.6957711 56.0062464,11.5941319 C55.8473715,11.4654704 55.8142386,11.6510281 55.7363628,11.7149855 C55.6828994,11.7657617 55.6324574,11.819627 55.5852958,11.8763046 C55.2177789,12.2596411 54.8471387,12.6399903 54.4853928,13.0284869 C54.4359651,13.0815131 54.3866052,13.1942192 54.4103007,13.2454122 C54.5155383,13.4721823 54.6489525,13.4876625 54.8214064,13.3128322 C54.9768186,13.1553152 55.1255771,12.9910766 55.284452,12.8371581 C55.4155035,12.6978786 55.5594503,12.5713227 55.7143647,12.4591853 C56.009098,12.2669059 56.3153734,12.3311348 56.5355577,12.6028516 C56.7063143,12.8133269 56.6689719,13.0331038 56.4114452,13.3062464 C56.1433948,13.5906596 55.879418,13.879418 55.6007759,14.1531717 C55.4581959,14.2932396 55.5554898,14.3620175 55.6453831,14.4553055 C55.7369738,14.5503589 55.8094859,14.5819302 55.9169641,14.4658972 C56.2123763,14.1467895 56.5270708,13.8447236 56.8171872,13.5207953 C57.2261203,13.0642677 57.1797478,12.5421532 56.6881862,12.1900485 C56.5227934,12.0714355 56.3055286,12.0262173 56.1092435,11.9465082 L56.1089719,11.9465082 Z M64.5087003,37.7497575 C64.4735984,37.6826091 64.4513967,37.6368477 64.4262755,37.5927158 C64.3001261,37.3713773 64.2583026,37.3677789 64.0664306,37.5316101 C63.8089719,37.7517944 63.7389719,38.049515 63.7249855,38.3636663 C63.7029874,38.8578758 63.9260233,39.164355 64.3443938,39.2431814 C64.7011154,39.3103977 64.9616295,39.1037245 65.1277692,38.6263531 C65.1623169,38.4987909 65.2128946,38.3761224 65.2782929,38.2612803 C65.3321339,38.1815034 65.4688749,38.0711736 65.5169447,38.0926285 C65.6138755,38.1477587 65.6841809,38.2399793 65.7116683,38.3480504 C65.7768477,38.6169156 65.6392919,38.8136081 65.4038991,38.9562561 L65.5953637,39.3071387 C65.992483,39.2127643 66.2137536,38.7107468 66.128613,38.2426091 C66.0655383,37.8955286 65.8481377,37.6711348 65.5691562,37.6396993 C65.2188846,37.6002522 65.0327837,37.7245684 64.8698351,38.1116392 C64.8100873,38.2542192 64.7794665,38.4141804 64.6948691,38.5385645 C64.6253443,38.6407468 64.4941707,38.7685257 64.3927352,38.766421 C64.2244229,38.7628904 64.1606693,38.6005529 64.144646,38.4282347 C64.116741,38.1271872 64.2696411,37.9262852 64.5087003,37.7497575 Z M35.8057129,3.89039767 L35.8249952,3.96060136 C35.6992532,4.11318461 35.5735112,4.26576786 35.4477692,4.41835112 C35.180194,4.74234724 34.9031135,5.05914646 34.6513579,5.39502425 C34.5865858,5.4814549 34.5766731,5.6314355 34.5937148,5.74448109 C34.599418,5.78277401 34.763453,5.81298739 34.85742,5.81916586 C35.0407371,5.83179437 35.2260233,5.82595538 35.4104947,5.82636275 C35.7549952,5.82697381 36.0995635,5.82636275 36.4387682,5.82636275 C36.506324,5.45870999 36.4948497,5.44363725 36.1636566,5.44309408 C35.8497769,5.44261882 35.5358972,5.44309408 35.1851503,5.44309408 C35.2335597,5.36840931 35.2530456,5.33127061 35.2789816,5.29963143 C35.6261979,4.87868089 35.9687973,4.45419981 36.3251794,4.0413967 C36.4533657,3.89297769 36.5009602,3.74449079 36.4312997,3.4942968 L34.970805,3.4942968 C34.6415131,3.4942968 34.6210087,3.52030068 34.6987488,3.89012609 L35.8057129,3.89039767 Z M16.0979631,12.3626382 L15.7201261,12.3626382 C15.6499224,12.5340058 15.6119011,12.6953249 15.5254025,12.8233754 C15.3717741,13.0628345 15.0789916,13.1727937 14.8057129,13.0936663 C14.4730262,13.0151794 14.2548109,12.784064 14.1518817,12.4622405 C14.089844,12.2629289 14.122742,12.0461692 14.2411237,11.8742402 C14.3595054,11.7023112 14.5502649,11.5942469 14.7585936,11.581096 C14.9700194,11.5652764 15.0412415,11.4679146 14.998807,11.2180601 C14.9663531,11.0268671 14.8090398,11.1061009 14.7148012,11.1279631 C14.1825024,11.2512609 13.8124054,11.564937 13.7004462,12.1129195 C13.5982638,12.6131717 13.8170902,13.0091368 14.1990689,13.3111348 C14.5792823,13.6114355 15.0083802,13.6724733 15.4381571,13.4288652 C15.8338506,13.2041319 16.1103201,12.883259 16.0979631,12.3626382 Z M10.475354,15.3285742 C10.5556062,15.3621145 10.6074782,15.3878468 10.6618623,15.4059069 C11.318613,15.6241222 11.9772648,15.8367701 12.6315034,16.0621823 C12.7746266,16.1114743 12.8660136,16.0887973 12.9527837,15.9710669 C13.0365664,15.8573424 13.1207565,15.7673812 13.0282832,15.601581 C12.7479437,15.0999709 12.4871581,14.5874297 12.2180213,14.0795053 C12.136547,13.9258584 12.0530359,13.7733657 11.9685742,13.6167992 C11.6273327,13.8822017 11.624549,13.9002619 11.809903,14.2381765 C12.0394568,14.6566149 12.2663628,15.0764791 12.5217847,15.5461785 C11.9860912,15.3619787 11.4992144,15.203579 11.019806,15.0250145 C10.8381862,14.9571193 10.7121048,14.9751115 10.6110766,15.1425412 C10.5772648,15.198419 10.5340834,15.2486615 10.4752861,15.3285063 L10.475354,15.3285742 Z M40.8686615,5.99297769 C40.8279243,5.99515034 40.7856935,5.99623666 40.7436663,5.99976722 C40.4147139,6.02835112 40.2879534,5.91408341 40.3227158,5.58628516 C40.3514355,5.31667313 40.4024248,5.04882638 40.4556547,4.78260912 C40.5397769,4.36165858 40.4514452,4.37679922 40.894937,4.45100873 C41.2056935,4.50294859 41.2377401,4.46227934 41.1924539,4.12470417 L40.5983705,3.99984481 C40.6266828,3.82270611 40.6541804,3.67150339 40.6742774,3.51935015 C40.7019108,3.31030068 40.5189331,3.35640155 40.4174976,3.33555771 C40.3699709,3.32584869 40.2705044,3.40453928 40.2501358,3.46265761 C40.2056149,3.61352272 40.1706474,3.76704401 40.1454413,3.92230844 L39.7109117,3.86493695 C39.5735597,4.19470417 39.5825218,4.23075655 39.8862852,4.27027158 C40.0684481,4.29396702 40.0831814,4.38773036 40.0578565,4.52827352 C39.9967507,4.86774976 39.9372066,5.20790495 39.8745393,5.54731329 C39.7732396,6.09583899 39.97258,6.35580989 40.5307468,6.39933075 C40.8620757,6.42499515 40.935063,6.33992241 40.8685936,5.99270611 L40.8686615,5.99297769 Z M64.3171678,37.0874394 C64.3126867,37.0476528 64.3103783,37.0048109 64.3026382,36.9630553 C64.2337245,36.5975073 64.3365858,36.4709505 64.7132008,36.4796411 C64.9338603,36.4847333 65.1539088,36.5123666 65.3745684,36.5187488 C65.8455577,36.5323278 65.853162,36.5295441 65.8424345,36.9927255 C65.8385645,37.159612 65.9029292,37.2172551 66.0556256,37.2235694 C66.2147042,37.2299515 66.2357517,37.1341513 66.2321532,37.0093598 C66.2292313,36.9208866 66.2309309,36.8323212 66.2372454,36.7440252 C66.2464113,36.6267022 66.2947527,36.5480116 66.4329874,36.5660039 C66.5057711,36.5755092 66.5800485,36.5721823 66.6531717,36.5795829 C66.7736178,36.5920757 66.8975946,36.6221532 66.8975946,36.4308244 C66.8975946,36.2807759 66.9272648,36.1191853 66.6911251,36.1372454 C66.6399321,36.1411833 66.5870417,36.1281474 66.5365276,36.1350048 C66.3177692,36.1645393 66.2322211,36.0738991 66.2853152,35.8602328 C66.3363725,35.6560039 66.2225121,35.6177789 66.0567798,35.6162727 C65.8910475,35.6147915 65.9084966,35.7480019 65.9100582,35.83613 C65.914064,36.0538021 65.8162949,36.1071678 65.6141028,36.0929098 C65.2248367,36.0653896 64.8348238,36.0501132 64.444064,36.0470805 C64.1480407,36.0445005 63.963162,36.1857905 63.9100679,36.4461009 C63.8880275,36.5763344 63.8826205,36.7088402 63.8939767,36.8404365 C63.9119011,37.1471193 64.001387,37.198516 64.3171678,37.0874394 Z M57.4503104,15.8140931 C57.3588639,15.7468274 57.2717195,15.673901 57.1893889,15.595742 C57.073967,15.4718332 57.0529195,15.3257905 57.1837536,15.2028322 C57.4989234,14.9066052 57.8229195,14.6197478 58.1546557,14.3189719 C58.2461785,14.42258 58.319098,14.5041222 58.3909311,14.5866828 C58.6073812,14.8353831 58.635354,14.8337536 58.8558778,14.5453346 L58.4514937,14.0588652 C58.5441258,13.9649195 58.6426125,13.8769324 58.7463628,13.7954316 C58.9025218,13.6879534 58.908904,13.5866537 58.7680892,13.4662755 C58.7189331,13.4242483 58.6730359,13.378419 58.6201455,13.3291271 L58.146644,13.7225121 C58.0464306,13.6165955 57.9701164,13.4732008 57.861484,13.4414258 C57.7790592,13.417323 57.6550145,13.5355965 57.5277789,13.6017944 L57.8550339,13.9930068 C57.6852958,14.1456353 57.5219399,14.2923569 57.3589913,14.4396896 C57.1948885,14.5880407 57.0263046,14.7316392 56.8686518,14.8868477 C56.5211639,15.2292435 56.528225,15.5351794 56.8828419,15.8727546 C57.143967,16.1215228 57.1904074,16.1179243 57.4503104,15.8140931 Z M2.54844811,34.1445199 C2.54844811,34.2694471 2.55557711,34.3647042 2.54668283,34.4584675 C2.53500485,34.58129 2.59658584,34.6109602 2.7028419,34.612386 C3.73444229,34.6259651 4.76604268,34.6381862 5.79743938,34.658419 C6.0228516,34.6628322 5.98618817,34.5177401 5.99800194,34.3783511 C6.01198836,34.2139088 5.935742,34.1836954 5.79092144,34.182066 C5.14265761,34.1748691 4.49459748,34.1549079 3.84640155,34.1456741 C3.42762367,34.1398351 3.0085742,34.1445199 2.54844811,34.1445199 Z M63.3335015,18.5105529 C63.2478177,18.55129 63.1861009,18.5753249 63.129001,18.6077789 C62.1872939,19.1426576 61.2483026,19.6818138 60.3032008,20.2108535 C60.1464306,20.2985742 60.1402522,20.3752279 60.2232202,20.5203201 C60.312774,20.6771581 60.3919399,20.6725412 60.537711,20.5882153 C61.4117944,20.0839573 62.2923278,19.5906984 63.1701455,19.0928904 C63.2898448,19.0249952 63.4067604,18.9520078 63.5367798,18.8744035 L63.3335015,18.5105529 Z M66.100097,34.4440058 C66.321775,34.3816101 66.3561979,34.2999321 66.2619593,34.0243453 C65.5681377,34.0243453 64.8768962,34.0261106 64.1855189,34.0230501 C64.0171387,34.0223084 63.9768768,34.1022211 63.98258,34.2577013 C63.9882832,34.4131814 64.0340446,34.4861688 64.2019496,34.4802619 C64.5255383,34.4688555 64.8497381,34.4746266 65.1735984,34.4687876 C65.6642774,34.4599612 65.9888846,34.7012609 65.9258778,35.2556935 C65.9245878,35.2668962 65.9394568,35.28 65.9476722,35.2919496 C66.3458778,35.3821145 66.4479922,35.2934433 66.3346751,34.92742 C66.2821242,34.7570029 66.1787197,34.6022017 66.1001649,34.4440058 L66.100097,34.4440058 Z M59.2708535,15.0502716 C58.6906208,15.5097866 58.1351018,15.9454704 57.5880698,16.3916101 C57.5477401,16.4245393 57.5440737,16.5422696 57.5677013,16.603579 C57.5968962,16.6794859 57.6723278,16.7376043 57.7422599,16.8208438 C58.0289816,16.5954995 58.299001,16.3816974 58.5709893,16.1699321 C59.0991465,15.7584869 59.3229292,15.7797381 59.7478855,16.2785645 C59.7521629,16.2835887 59.7610572,16.284743 59.7678468,16.2876625 C60.164355,16.1156159 60.1862173,15.9769059 59.8334336,15.7297672 C59.6960136,15.6334918 59.5250533,15.5852182 59.3689622,15.5148788 L59.5094374,15.3405917 L59.2708535,15.0502716 Z M24.1609311,7.89153249 C24.1248109,7.79349176 24.0956838,7.71181377 24.0647236,7.63081474 C23.94129,7.30817653 23.8022405,6.99063046 23.6974782,6.66208535 C23.5713288,6.26659554 23.7135694,6.01029098 24.1019302,5.86513094 C24.1484384,5.84774976 24.1918235,5.82222114 24.2301164,5.80361785 C24.2340481,5.78482859 24.2357121,5.7656356 24.2350727,5.74645005 C24.2289622,5.71779825 24.2185742,5.69009699 24.2101552,5.66198836 C24.1286809,5.3885063 24.065063,5.348516 23.8333366,5.50949564 C23.6560621,5.63265761 23.5176237,5.81156159 23.3666925,5.96093113 C23.3275849,5.77591659 23.2082929,5.78976722 23.0362464,5.86934045 C22.8360912,5.96194956 22.9570805,6.07160039 22.998225,6.1743259 C23.2196314,6.72678952 23.455839,7.27361785 23.6644811,7.83096993 C23.7434433,8.04185257 23.8422987,8.07247333 24.0190301,7.96737148 C24.0564403,7.94489816 24.0960233,7.92609117 24.1609311,7.89153249 Z M9.95188167,16.503773 C9.7128225,16.2499127 9.63535403,16.4415131 9.55068865,16.5747915 C9.44205626,16.7460233 9.62774976,16.7674103 9.70481086,16.8253928 C10.1160524,17.1349273 10.5342192,17.4352279 10.9508244,17.7375655 C11.078807,17.8305141 11.2094374,17.9198642 11.3349758,18.008128 C11.6337148,17.6890204 11.6333754,17.6896314 11.3118235,17.4536275 C11.0806402,17.2838894 10.8442968,17.1204656 10.6215325,16.9402037 C10.2184384,16.6143065 10.1937924,16.325548 10.5184675,15.9248982 C10.5360398,15.8959029 10.5505566,15.8651629 10.5617847,15.8331717 L10.2494665,15.5831814 C9.97075655,15.8132784 9.9099903,16.1017653 9.95188167,16.503773 Z M33.913676,3.55811833 C33.4745296,3.50617847 33.4570126,3.52118332 33.4736469,3.87478177 C33.5016198,4.46920466 33.5329874,5.06355965 33.5527449,5.65825412 C33.5581765,5.82120272 33.6296023,5.8656741 33.7736081,5.84306499 C33.8377692,5.83301649 33.9018623,5.82269641 33.9993598,5.80667313 L33.913676,3.55811833 Z M41.3549952,6.51366634 L41.7771678,6.6071581 C41.8320951,6.37312318 41.8818623,6.16067895 41.9317653,5.9485742 C42.0408729,5.48451018 42.1463822,5.01956353 42.2610572,4.55672163 C42.3043065,4.38209505 42.2135306,4.3428516 42.0721048,4.31229874 C41.9479243,4.28514064 41.8616295,4.27217265 41.8323666,4.43525703 C41.7933269,4.6514355 41.7320854,4.86360815 41.6829971,5.07802134 C41.57484,5.54758487 41.4682444,6.01762367 41.3549952,6.51366634 L41.3549952,6.51366634 Z M14.3242677,14.4541513 C14.2759942,14.3969156 14.246324,14.3548885 14.21,14.3196508 C13.7555771,13.8783317 13.2966731,13.4410863 12.8474103,12.9944035 C12.7270999,12.8747721 12.652483,12.8627546 12.5268089,12.9930456 C12.4029001,13.1215034 12.4105044,13.1972745 12.5348206,13.3144617 C12.9850339,13.7388749 13.4315131,14.1675655 13.8686227,14.605354 C13.9976237,14.734355 14.0894859,14.7538409 14.1993404,14.6010087 C14.2330844,14.5540931 14.2742968,14.5124733 14.3242677,14.4541513 Z M42.5784675,3.49938894 C42.5830099,3.38838601 42.5263217,3.28383014 42.4308207,3.22706876 C42.3353198,3.17030739 42.2163851,3.17048112 42.1210504,3.22752124 C42.0257157,3.28456136 41.9693332,3.38928239 41.9741998,3.50027158 C41.9813967,3.68358875 42.0854801,3.78013579 42.2661494,3.7900485 C42.3474995,3.79859231 42.4285661,3.77150923 42.4884447,3.71578311 C42.5483232,3.66005699 42.5811527,3.58114244 42.5784675,3.49938894 Z M33.6480698,2.99119302 C33.7295336,2.99747741 33.8097339,2.96821921 33.868014,2.91095429 C33.926294,2.85368937 33.9569568,2.77401553 33.9521048,2.69245393 C33.958501,2.61424786 33.9320831,2.5369046 33.87918,2.47895325 C33.8262768,2.4210019 33.7516548,2.38766365 33.6731911,2.38692532 C33.5043957,2.38168869 33.3612295,2.50991375 33.3479049,2.67826382 C33.3452794,2.84721299 33.4791578,2.98678448 33.6480698,2.99119302 L33.6480698,2.99119302 Z M12.2320078,12.4151212 C12.2315886,12.2525237 12.1025639,12.1194182 11.9400582,12.1139379 C11.8584457,12.1084683 11.7783033,12.1376233 11.7192823,12.194254 C11.6602613,12.2508847 11.6278199,12.329754 11.6299127,12.4115228 C11.6281474,12.6034627 11.7463531,12.6929486 11.9141901,12.7170514 C12.0703492,12.7398642 12.2288846,12.5784772 12.2320078,12.4151212 Z" id="Shape"></path>
            <path d="M1.50272551,45.0254801 L9.83910766,42.6163531 C11.7944908,48.6290883 15.3657808,53.4097963 20.6458584,56.869195 C25.1008729,59.7878758 30.0226673,61.1804074 35.3446363,61.1226964 C39.0089804,61.0901686 42.6244001,60.2777824 45.9504171,58.7395732 C52.6966675,55.639754 57.8257923,49.8424648 60.0805044,42.7687779 L68.3851115,45.2599903 C65.185548,56.5890592 54.2142192,68.3345975 38.2803589,69.8007274 C20.30516,71.4545878 5.75500485,59.6233657 1.50272551,45.0254801 Z M56.8116198,54.7005529 C56.3958972,54.8520951 56.3821145,55.2173715 56.3679243,55.5866537 L56.1370805,55.4190883 L55.71613,55.8887197 L57.5061203,57.5103977 L57.9384093,57.0302425 C57.6241901,56.7450824 57.320902,56.4774394 57.0259651,56.2006984 C56.7040058,55.8986324 56.7072648,55.5474103 57.0265761,55.2399806 C57.0832687,55.1856644 57.1455286,55.1364403 57.204937,55.0851794 L57.1312027,54.9662949 C57.3806499,54.9913482 57.3726382,54.6987197 57.5630165,54.6254607 C57.6348497,54.6815422 57.7144908,54.7449564 57.795354,54.8066052 C58.0649661,55.0121242 58.3290107,55.2257226 58.6069738,55.4193598 C58.8306887,55.5751794 59.0893695,55.6158487 59.3019496,55.420582 C59.4766251,55.2438187 59.6326967,55.0495938 59.767711,54.8409602 C59.7927103,54.7793897 59.7844884,54.709311 59.7459166,54.6551988 C59.6465919,54.5654603 59.5409961,54.4829167 59.4299321,54.4081959 C59.3612221,54.5220563 59.3114549,54.621387 59.2461397,54.7091756 C59.131193,54.8637051 58.9799903,54.8992823 58.8226091,54.7820951 C58.5289622,54.5631329 58.2431911,54.3335112 57.9421435,54.0989331 L58.3584772,53.5576722 L57.9429583,53.2322502 L57.518613,53.7627837 L56.9739573,53.3406111 L56.5773133,53.8459554 L57.1068962,54.2695538 L56.8116198,54.7005529 Z M47.9485063,62.5931717 C48.2586518,62.3526867 48.4364694,62.0703783 48.3909117,61.6876528 C48.3107274,61.0139282 47.7763919,60.645936 47.0912609,60.846227 C46.6631135,60.9714258 46.2600873,61.1831911 45.8472163,61.3593792 C45.7152958,61.4156644 45.5879243,61.4826091 45.4499612,61.5487391 L46.9308244,64.7694859 L47.543579,64.4873812 L46.9359845,63.1521532 C47.2971872,62.9082735 47.2971193,62.9084093 47.6188749,63.1400679 C47.9480989,63.3771581 48.2763725,63.6156741 48.6080407,63.8492338 C48.6579437,63.8843356 48.7377886,63.9297575 48.7809699,63.9127158 C49.0041416,63.824452 49.2199127,63.7178565 49.4727546,63.6017556 L47.9485063,62.5931717 Z M15.8331717,60.7500194 C16.0897478,60.4203201 16.333356,60.098225 16.5880989,59.7850921 C16.6734407,59.6750281 16.7768973,59.5802962 16.8940349,59.5049564 C17.0932396,59.385257 17.3273424,59.4438506 17.492192,59.6296799 C17.6438021,59.8003007 17.6186809,59.9810378 17.5089622,60.1592629 C17.4565322,60.2394822 17.3998728,60.3168563 17.3392241,60.3910572 C17.0965664,60.7046654 16.8528904,61.0175946 16.5982832,61.3453249 L17.108516,61.7430553 C17.3332493,61.4536857 17.5483414,61.1840737 17.7550824,60.9079437 C17.9085153,60.7197531 18.0469914,60.5198481 18.1692435,60.3100582 C18.3791077,59.9124636 18.3028613,59.5767895 17.9683414,59.2780504 C17.6979146,59.036547 17.3872939,58.9431911 17.0284675,59.0506693 C17.0641125,58.4895829 16.5856547,57.9699806 15.8599224,58.0560718 L16.0028419,57.8221726 L15.5297478,57.4538409 L14.0475267,59.3603395 L14.5574879,59.7577983 C14.8228904,59.4170999 15.0730844,59.0895053 15.3314937,58.7683608 C15.4031127,58.6752339 15.4896212,58.5945752 15.5875267,58.5296411 C15.7983414,58.398128 16.0727061,58.4605238 16.2456353,58.660679 C16.3814258,58.8176528 16.3757226,58.9837924 16.2133851,59.2024151 C16.0376043,59.4391659 15.8535403,59.669806 15.6730068,59.9029583 C15.5580601,60.0513094 15.442774,60.1994568 15.3224636,60.3543259 L15.8331717,60.7500194 Z M30.4425315,66.8582832 C30.6982929,66.8793307 30.9093113,66.9058099 31.1204656,66.9071678 C31.1699612,66.9071678 31.2358875,66.8309893 31.2668477,66.7747721 C31.3805723,66.5695247 31.4827546,66.3578952 31.5911833,66.1449758 C31.9819884,66.1738991 32.3634239,66.2017362 32.7447915,66.230388 C33.157323,66.2613482 33.1574588,66.2616198 33.2912124,66.6632881 C33.3284869,66.7750436 33.357614,66.8903298 33.4047333,66.9976722 C33.4268057,67.0476741 33.4695248,67.0856109 33.5217847,67.1016198 C33.7390495,67.12742 33.9579437,67.138419 34.178807,67.1548497 C34.1811598,67.1339019 34.1809775,67.1127469 34.1782638,67.0918429 C33.7681765,65.9329389 33.3591077,64.7736954 32.9419593,63.6173036 C32.9043262,63.552729 32.84267,63.5056692 32.7704559,63.4864016 C32.6886421,63.4605335 32.5935887,63.479612 32.5078371,63.4621629 C32.3702813,63.4337827 32.2973618,63.48355 32.2311639,63.6071193 C31.9356838,64.158904 31.6287973,64.7045781 31.3265276,65.2526964 C31.0393986,65.7742677 30.7524054,66.2961785 30.442871,66.8582832 L30.4425315,66.8582832 Z M44.4374394,64.6781668 C44.4289525,64.033162 44.1522793,63.226227 43.8016004,62.8265955 C43.4467798,62.4220078 43.0047139,62.3127643 42.4988264,62.4612512 C41.9980989,62.6081765 41.6834045,62.941678 41.6274588,63.4652861 C41.5354488,64.2223427 41.751056,64.9846604 42.2259554,65.5813773 C42.3958078,65.7832951 42.6227978,65.9290752 42.8770708,65.9995441 C43.7185645,66.2255674 44.4497963,65.588031 44.4377789,64.6781668 L44.4374394,64.6781668 Z M52.8824539,61.1931038 C53.7257129,61.118419 54.198807,60.7006596 54.2385936,60.0219108 C54.2725412,59.4459554 53.790485,58.8164306 53.2171096,58.6832881 C52.8715228,58.6030359 52.560291,58.6849855 52.271872,58.8765858 C51.9779868,59.0573403 51.7871991,59.3667216 51.7576334,59.7104753 L51.5545587,59.4796314 L51.0721629,59.8419205 L53.1884578,62.6937924 L53.7021532,62.30387 L52.8824539,61.1931038 Z M28.2599709,65.5428128 L27.6891756,65.9044908 C28.0750242,66.6072066 29.2745296,66.8897866 29.9031038,66.4340737 C30.0326868,66.3371496 30.1391095,66.2126381 30.2146751,66.0695441 C30.4875461,65.5521145 30.3565082,65.0674103 29.8629098,64.7438215 C29.6106111,64.5784287 29.3401164,64.4406693 29.0863919,64.2775849 C28.9403492,64.1837536 28.8623375,64.0436857 28.9182153,63.859418 C28.9776237,63.6635403 29.1201358,63.5785354 29.3145199,63.5643453 C29.6479206,63.529435 29.9730286,63.6830367 30.1577789,63.9627546 L30.7348885,63.5611542 C30.6352076,63.4622752 30.5300776,63.3690454 30.4199903,63.2819011 C30.0324442,63.0103201 29.5951309,62.9367216 29.133579,62.9899515 C28.653356,63.0450824 28.307226,63.3385936 28.2131911,63.7587294 C28.1061203,64.2356935 28.2580019,64.5683802 28.7196896,64.8510281 C28.9395344,64.9857323 29.1702425,65.1031232 29.3869641,65.2424442 C29.5577886,65.3522987 29.6732105,65.5047236 29.6050436,65.7266731 C29.5368768,65.9486227 29.3615034,66.0322017 29.1488555,66.0478855 C28.7553346,66.0764694 28.4669156,65.903676 28.2599709,65.5428128 Z M34.8914355,66.2557129 L34.4143356,66.7309796 C34.9406596,67.3241125 36.1494665,67.3617265 36.6663531,66.7920854 C36.8009107,66.6371779 36.8920381,66.4493945 36.9304656,66.2478371 C37.0315616,65.7022987 36.8125994,65.3373618 36.2912318,65.133676 C36.0172066,65.0266052 35.7302813,64.9530068 35.4540155,64.8511639 C35.2847527,64.7887682 35.1605044,64.6700194 35.1736081,64.4704753 C35.1871872,64.2685548 35.3141513,64.1531329 35.4990301,64.0958293 C35.8355868,63.9915422 36.1369059,64.0633075 36.410999,64.3056256 L36.8935984,63.7891465 C36.8495344,63.7655189 36.8224442,63.752483 36.7967798,63.736935 C36.7463337,63.70645 36.6989428,63.6703298 36.6464597,63.6439864 C36.1620951,63.4007177 35.663676,63.4021435 35.1658681,63.5854607 C34.7132105,63.7521435 34.4551406,64.1248206 34.4622017,64.5596217 C34.4695344,65.0109893 34.6972551,65.3024636 35.190582,65.4762076 C35.4267216,65.5593792 35.670805,65.6205529 35.9057226,65.7070514 C36.1035694,65.7797672 36.2540252,65.9039476 36.242483,66.1455189 C36.2330456,66.3432978 36.0882929,66.5048206 35.8486906,66.5677595 C35.4773715,66.6649176 35.1667507,66.5528225 34.8913676,66.2555092 L34.8914355,66.2557129 Z M11.1385548,54.0256741 L11.6250921,53.6897963 L10.7105432,52.3590495 L11.449515,51.8498351 L12.4248303,53.257032 L12.9114355,52.9197963 L11.5531232,50.9530747 L8.62948594,52.9710572 L9.01343356,53.5271872 L10.2195926,52.700291 L11.1385548,54.0256741 Z M24.8554995,64.6931717 C24.8191756,64.121969 24.7902522,63.6154025 24.7512124,63.1095829 C24.7452376,63.0322502 24.7123763,62.9167604 24.6577207,62.8907565 C24.4717458,62.8127182 24.2814383,62.7454362 24.0877401,62.6892435 C24.0877401,62.7747236 24.0841416,62.8250339 24.0882832,62.8754122 C24.1478952,63.6029777 24.1928419,64.3323084 24.2762173,65.057226 C24.3131523,65.3785063 24.1193113,65.533579 23.922483,65.6886518 C23.7391659,65.8334045 23.5440349,65.7324442 23.3639767,65.6386809 L23.2224151,65.564743 L22.9840349,66.0408244 C23.5795441,66.4949079 24.0855674,66.4568865 24.5554025,65.9223472 C25.2079437,65.1799127 25.8532881,64.4311639 26.5008729,63.6843841 C26.5340928,63.6408443 26.5648958,63.5955125 26.5931426,63.5485936 C26.4607211,63.5096878 26.3308376,63.4626141 26.2042386,63.4076431 C26.0332105,63.3207371 25.9317071,63.3728128 25.8192047,63.5170223 C25.5206014,63.9000194 25.2047527,64.2696411 24.8554995,64.6931717 Z M55.3721726,56.6886409 C54.6258002,56.6843162 53.9200291,57.3696508 53.9174491,58.10129 C53.928591,58.7814644 54.4758041,59.3309574 55.1559263,59.3449501 C55.8904171,59.3494762 56.585936,58.6750048 56.599515,57.945063 C56.6118041,57.2832202 56.0351018,56.6925315 55.3721726,56.6886409 Z M51.6335887,61.8050436 C51.451969,61.7940446 51.2764597,61.7511348 51.1203686,61.7887488 C51.0511154,61.8053831 51.0305432,61.9903298 50.9714743,62.0891174 C50.7096023,62.527517 50.1109699,62.6244035 49.8618623,62.23387 L51.44871,61.2924345 C51.1970902,60.6464791 50.6063337,60.3011639 50.0364888,60.4548788 C49.3822502,60.6314064 48.9103783,61.2827934 48.9980989,61.8880795 C49.0961397,62.5641804 49.6316974,63.0192823 50.2985645,62.9931426 C50.9769059,62.9660524 51.5914937,62.4339573 51.6335887,61.8050436 Z M10.7653319,55.4595538 C10.763773,56.2179437 11.4362755,56.9093889 12.1752473,56.9092532 C12.85673,56.9016811 13.4076983,56.3517676 13.4165761,55.6703007 C13.4155577,54.923453 12.7219399,54.2194471 11.9924733,54.2254219 C11.3215669,54.2476371 10.7838847,54.7882645 10.7653319,55.4592823 L10.7653319,55.4595538 Z M20.3206402,62.500291 C20.7694277,61.8649273 20.7656935,61.2187682 20.3274297,60.8082056 C19.8256838,60.3378952 19.0571096,60.2769253 18.5628322,60.6681377 C18.0658994,61.0592315 17.9378412,61.7590987 18.2640931,62.3008147 C18.6111736,62.8787391 19.3607371,63.1587391 19.9419884,62.912483 C19.9101455,62.832774 19.8794568,62.7519108 19.845645,62.6723375 C19.8089137,62.5859069 19.7692629,62.5006984 19.7334142,62.4205141 C18.9734627,62.526838 18.4939864,62.1189234 18.7166149,61.5490107 L20.3206402,62.500291 Z M38.515548,63.3625606 L38.613453,63.9413676 L40.3677983,63.6421532 L39.4137342,66.8082444 C39.6202037,66.7718526 39.7850533,66.7293501 39.9520757,66.7172648 C40.1114937,66.7057226 40.17613,66.6317847 40.2178855,66.4832978 C40.4766343,65.5688846 40.7355189,64.6543356 41.0157226,63.7463725 C41.1026964,63.4646072 41.0347333,63.2149564 40.9825218,62.9280989 L38.515548,63.3625606 Z M59.7687973,54.3128031 C59.9174879,54.2533269 60.0539573,54.2210766 60.1662561,54.1498545 C60.5328164,53.9184972 60.788386,53.5468622 60.8732493,53.1217847 C60.9469835,52.7926964 60.8352958,52.5193501 60.5749855,52.3526673 C60.2989234,52.1761397 60.0460815,52.1897187 59.759903,52.4148594 C59.6037439,52.537614 59.4667313,52.6837245 59.3149176,52.8121145 C59.2216295,52.8910766 59.1180213,53.0009311 58.9868477,52.890805 C58.8501067,52.7758584 58.8898933,52.6181377 58.9848788,52.5148012 C59.1125897,52.3759554 59.2789331,52.2725509 59.4563434,52.1319399 L59.3961882,51.6634627 C58.836935,51.7228031 58.3537245,52.3096896 58.3605141,52.8848303 C58.3640446,53.1820078 58.5062173,53.3864403 58.7640834,53.5184287 C59.0126479,53.6456644 59.2393501,53.5827255 59.4430359,53.4211348 C59.5927449,53.302386 59.7259554,53.1631329 59.8717265,53.0388846 C59.9880989,52.9398254 60.1153346,52.803356 60.2744811,52.942066 C60.4317265,53.0790786 60.354258,53.2552667 60.2572357,53.3806693 C60.1672066,53.4969738 60.0281571,53.5781765 59.9028225,53.6631814 C59.8341943,53.6977743 59.7616928,53.7240763 59.6868477,53.7415325 L59.7687973,54.3128031 Z M24.3640737,61.2850339 L23.7685645,61.0343647 L22.301484,64.5276431 L22.8966537,64.7783802 L24.3640737,61.2850339 Z M20.9739961,63.9146169 C21.0209117,63.8256062 21.0636857,63.7492241 21.1021823,63.670805 C21.2447624,63.379806 21.3817071,63.0856838 21.5299224,62.7973327 C21.7145296,62.4374879 22.0451115,62.334355 22.4035984,62.5193695 C22.4876528,62.5627546 22.5648497,62.619515 22.6592241,62.6789234 C22.7254898,62.545645 22.7786518,62.4163046 22.8511639,62.29871 C22.9318235,62.1682153 22.8798836,62.1024927 22.7661591,62.0379922 C22.497226,61.8854316 22.2218429,61.9017265 21.9256838,62.0176237 L22.0249467,61.7395926 L21.4561882,61.4680116 L20.4000776,63.6370611 L20.9739961,63.9146169 Z M12.958419,58.249709 C13.266324,57.9571484 13.5610572,57.6793889 13.8528031,57.3991174 C14.1611833,57.1026188 14.5081959,57.1115131 14.7987197,57.4284481 C14.8567022,57.4916586 14.9104074,57.5587391 14.9267022,57.5778177 L15.3821435,57.2215034 C15.174452,56.8632881 14.8657323,56.7565567 14.4728225,56.7793695 L14.6245684,56.5915713 L14.2749079,56.1826382 L12.5096314,57.8231911 L12.958419,58.249709 Z" id="Shape"></path>
            <path d="M29.2181765,39.9261397 C29.2160718,38.6929583 29.5264888,37.5591756 30.3277207,36.5989331 C31.237517,35.5090107 32.443676,35.0082832 33.8338991,34.916421 C34.7105626,34.8585063 35.5764306,34.9354995 36.3962658,35.2789816 C38.1000291,35.9927643 38.9990301,37.3171969 39.2351697,39.1133657 C39.3876625,40.2734239 39.2439961,41.3991271 38.6662755,42.434937 C37.8835112,43.8384675 36.6402134,44.5782541 35.0848691,44.8251891 C33.9744423,45.0017168 32.8866246,44.8919981 31.8696217,44.3943259 C30.1107953,43.5336178 29.3044035,42.0610378 29.2185839,40.1474782 C29.2153249,40.0738118 29.2181765,39.9999418 29.2181765,39.9261397 Z M30.9738118,40.0378274 C31.0091174,40.245451 31.0393307,40.6315034 31.1426673,40.9969835 C31.9311348,43.7867313 35.1696702,43.9442483 36.5722502,42.4106984 C37.2287294,41.6929098 37.496644,40.8335597 37.5159942,39.8813967 C37.5604656,37.7172357 35.9020563,36.198419 33.7599612,36.4662658 C32.1472454,36.6675073 30.9896314,37.9951988 30.9738118,40.0378274 Z" id="Shape"></path>
            <path d="M21.49645,43.6926285 L22.7235209,42.3513579 C22.8079146,42.4557129 22.8597866,42.5225218 22.9144423,42.5870223 C23.5689525,43.3589913 24.7208632,43.5995441 25.5884287,43.1430165 C26.0093792,42.9214743 26.2758002,42.589195 26.2931814,42.0974297 C26.3104268,41.6093986 26.0712318,41.2470417 25.6529971,41.0436954 C25.2048885,40.8257517 24.724258,40.6740058 24.2591756,40.4901455 C23.8760427,40.3387391 23.4811639,40.2093307 23.1151406,40.0236372 C22.0423957,39.479321 21.6862173,38.5535694 21.8115519,37.4041707 C21.9012415,36.5826382 22.3236857,35.9580019 23.0140446,35.5103686 C24.3363046,34.6523763 26.4796217,34.7103589 27.7259748,35.6403201 C27.819195,35.7099127 27.9050824,35.7896896 28.0139185,35.8806014 L26.7888846,37.1753637 C26.1632299,36.4721726 25.3882056,36.3056256 24.525936,36.5148788 C24.2768563,36.579631 24.048334,36.7066605 23.8618526,36.8840252 C23.6279109,37.1076245 23.5138313,37.4288954 23.5543692,37.7499592 C23.5949072,38.0710231 23.7852618,38.3538557 24.0674394,38.512289 C24.4517944,38.7350533 24.8889719,38.868128 25.3044908,39.0350824 C25.7822696,39.227226 26.2800097,39.378225 26.7385063,39.6079825 C27.747226,40.1134627 28.1360621,40.9873424 28.0564888,42.07645 C27.9564113,43.4458293 27.1965955,44.3705626 25.8676819,44.7243647 C24.6553443,45.0470708 23.4654801,44.9707565 22.3555286,44.3420466 C22.0337051,44.1599515 21.7592047,43.8942774 21.49645,43.6926285 Z" id="Path"></path>
            <path d="M47.4633269,42.2185548 L48.8506305,43.2079243 C48.5311659,43.6551933 48.1212157,44.0302832 47.6473909,44.3088458 C45.7911348,45.4120078 42.3800776,45.0546072 40.9536663,42.5876334 C39.8945005,40.756227 39.9903007,37.5617556 42.060902,35.9561688 C43.1947527,35.0769932 44.4967798,34.8054801 45.8982735,34.9377401 C47.0021145,35.0420951 47.8991465,35.5499515 48.638322,36.40387 L47.329098,37.3695441 C47.248031,37.294452 47.1719205,37.2269641 47.0994083,37.1562852 C45.9026188,35.9855674 44.0894762,36.3861494 43.1852473,37.2012318 C42.3346557,37.9679049 42.0131038,38.9494665 42.0669447,40.0664113 C42.1144714,41.0455965 42.4356838,41.9178468 43.1840252,42.5853249 C44.4802813,43.7415131 46.2325218,43.6244617 47.368613,42.3184287 C47.3969253,42.2859069 47.4279534,42.2557614 47.4633269,42.2185548 Z" id="Path"></path>
            <path d="M37.0788167,24.8393404 L37.9366731,25.4616683 C37.6226576,25.7468283 37.3510766,26.0370126 37.0375364,26.2705044 C36.3042677,26.8167216 35.4644714,27.0819884 34.5531814,27.1504947 C33.6183317,27.2207662 32.7056159,27.134743 31.8584869,26.7235015 C30.4887682,26.0585354 29.6715131,24.9654219 29.4642289,23.444161 C29.2815228,22.1036372 29.6088458,20.9116683 30.5559845,19.9229777 C31.2070076,19.2282932 32.0673604,18.765582 33.0058487,18.6054025 C34.2057614,18.396421 35.3692823,18.4967701 36.4617168,19.0770708 C37.035678,19.3737841 37.5278817,19.8070679 37.8949855,20.3387682 L37.0862173,20.9362464 C36.8663725,20.7270611 36.669001,20.5189622 36.4511251,20.3351018 C34.8143744,18.9539088 32.0544326,19.3786615 30.984064,21.1854898 C29.9441804,22.9408535 30.6569447,25.3387779 32.9110669,26.0093113 C34.4454995,26.4657032 35.8259457,26.1398739 36.9500194,24.9428807 C36.970388,24.9214258 36.9891271,24.898613 37.0105141,24.878516 C37.0321997,24.8636558 37.0550402,24.8505554 37.0788167,24.8393404 L37.0788167,24.8393404 Z" id="Path"></path>
            <path d="M43.7808923,27.0094083 L48.1544326,18.27129 L52.4657808,27.0051988 C52.0651988,27.0051988 51.7018235,27.0119884 51.3391271,26.9973909 C51.2858972,26.9952182 51.2225509,26.8960233 51.1881959,26.8292144 C50.801193,26.0755771 50.4136469,25.3219399 50.0392726,24.5623957 C49.9588167,24.3991077 49.8641028,24.3441125 49.6843162,24.3456062 C48.651539,24.3541157 47.6187391,24.3539573 46.5859166,24.3451309 C46.3947236,24.3432978 46.3019108,24.4085451 46.2196217,24.5772648 C45.8550242,25.3248594 45.4717556,26.0632881 45.103356,26.8090495 C45.0328128,26.9516295 44.9521532,27.0203395 44.7842483,27.0131426 C44.4683317,26.9997672 44.1513967,27.0094083 43.7808923,27.0094083 Z M48.1831523,20.8253055 L48.1145781,20.8181086 L46.8653055,23.3078952 L49.4231911,23.3078952 L48.1831523,20.8253055 Z" id="Shape"></path>
            <path d="M21.814743,18.2747527 L26.1235112,27.0060815 C25.7261203,27.0060815 25.3681086,27.0160621 25.0116586,26.9968477 C24.9479728,26.9933851 24.8738312,26.8777595 24.8333657,26.7990689 C24.4493501,26.0525606 24.0672357,25.3053734 23.695645,24.5524151 C23.6192629,24.3977498 23.5291659,24.3442483 23.3561688,24.3456062 C22.3085904,24.3540705 21.2609667,24.3542289 20.2132978,24.3460815 C20.072605,24.3315658 19.9399072,24.4140551 19.8906596,24.546644 C19.5167604,25.3070708 19.1318623,26.0619981 18.7568089,26.8218817 C18.6906111,26.9560427 18.6142289,27.0204074 18.4536566,27.0134142 C18.1306111,26.9992241 17.8064791,27.0092047 17.4338021,27.0092047 L21.814743,18.2747527 Z M21.8419011,20.8221145 L21.7733948,20.8259845 L20.5226964,23.3088458 L23.0843841,23.3088458 L21.8419011,20.8221145 Z" id="Shape"></path>
            <path d="M39.4756547,22.8405723 C39.4756547,21.5341319 39.4790495,20.2276237 39.4718526,18.9211833 C39.4708341,18.7322308 39.5160524,18.6643356 39.7173618,18.6670375 C40.5512512,18.6785936 41.3858875,18.6560524 42.2193695,18.6791368 C42.8286615,18.6960427 43.4441319,18.7254413 43.997614,19.0405432 C44.825257,19.5118041 45.1955577,20.3012221 45.0691368,21.3318041 C44.9680407,22.1559845 44.3490398,22.8300485 43.4448109,23.0587197 C43.1227846,23.1351945 42.7942482,23.1810468 42.4635887,23.1956644 C41.9118041,23.2274394 41.3581862,23.238031 40.8053831,23.2377595 C40.6095053,23.2377595 40.5528807,23.2964888 40.5541707,23.4894471 C40.5619108,24.5744132 40.5524054,25.659515 40.562386,26.7444811 C40.564355,26.957129 40.5054898,27.037517 40.2897866,27.0169447 C40.113254,27.0000696 39.9355142,27.0000696 39.7589816,27.0169447 C39.5391368,27.0382638 39.4680504,26.9686033 39.4700449,26.7378274 C39.4814937,25.4387876 39.4756547,24.1396799 39.4756547,22.8405723 Z M40.5584481,20.952066 C40.5584481,21.3059812 40.5584481,21.6598739 40.5584481,22.0137439 C40.5584481,22.1126673 40.5584481,22.2174297 40.6989913,22.2144423 C41.4334821,22.1980795 42.1723181,22.2229292 42.9011736,22.1489234 C43.5276054,22.0897435 43.9995927,21.5529479 43.978128,20.9240931 C43.9606111,20.3086906 43.5192241,19.8087779 42.84645,19.7534433 C42.13613,19.6950533 41.4194277,19.7156935 40.7055771,19.6995344 C40.5629971,19.6962755 40.5581765,19.7888167 40.5582438,19.890388 C40.5584255,20.244258 40.5584707,20.5981507 40.5583802,20.952066 L40.5584481,20.952066 Z" id="Shape"></path>
            <path d="M26.8585451,22.8408438 C26.8585451,21.542483 26.8645878,20.2440543 26.8529098,18.9458293 C26.850805,18.7145781 26.920805,18.6482444 27.1409214,18.6674588 C27.3471107,18.6807353 27.5539166,18.6814608 27.760194,18.6696314 C27.8921823,18.6652182 27.9543065,18.7143065 27.945548,18.8482638 C27.9426964,18.8923278 27.945548,18.9365276 27.945548,18.980999 C27.945548,21.5555868 27.945548,24.130152 27.945548,26.7046945 C27.945548,27.0124636 27.9448691,27.0125994 27.6468089,27.0130747 C27.4624054,27.0130747 27.2772551,27.0030941 27.0937342,27.0159263 C26.911775,27.0286906 26.8533851,26.9662949 26.8544035,26.7797866 C26.8620078,25.4670999 26.8585451,24.1540058 26.8585451,22.8408438 Z" id="Path"></path>
            <path d="M68.8432008,62.2374685 C68.8479178,62.8084213 68.6252928,63.3577938 68.2244369,63.7643942 C67.8235809,64.1709947 67.2774316,64.4014136 66.7064694,64.4048465 C65.4719302,64.4105238 64.5183414,63.4738409 64.5163692,62.2534918 C64.5143356,61.0234336 65.4583511,60.0709311 66.6796508,60.0707158 C67.2545907,60.0688384 67.8064812,60.2966153 68.2127275,60.7034609 C68.6189739,61.1103064 68.8459372,61.662532 68.8432008,62.2374685 L68.8432008,62.2374685 Z M66.6687197,60.3932931 C65.6792144,60.3955383 64.8864694,61.2197866 64.890797,62.2419496 C64.89516,63.2654025 65.6900097,64.0922308 66.6718429,64.0947486 C67.6621629,64.0972551 68.4697769,63.2528419 68.4578952,62.2276237 C68.4459457,61.1935112 67.6633851,60.3910572 66.6687197,60.3932931 Z" id="Shape"></path>
            <path d="M37.6981571,51.9831135 L37.9340252,51.704743 C38.3048012,52.0625509 38.7234433,52.2032299 39.2014258,51.9660039 C39.483259,51.8261397 39.575936,51.5333075 39.5443647,50.9747333 C39.2903686,51.2304268 39.0053443,51.3569835 38.6543259,51.31516 C38.3138991,51.2744229 38.0312512,51.1416877 37.8327934,50.8565276 C37.5211542,50.4087585 37.6013385,49.6970126 37.9980504,49.3581474 C38.437129,48.9830941 39.0874297,49.015548 39.5377789,49.4548303 L39.565548,49.1753055 L39.8987779,49.1753055 C39.9022405,49.2499903 39.908419,49.3216877 39.9084869,49.393453 C39.9092338,50.013065 39.9111348,50.632677 39.9084869,51.252289 C39.9059069,51.8012221 39.6758099,52.1732202 39.2527546,52.3254413 C38.704161,52.5231523 38.0234433,52.376227 37.6981571,51.9831135 Z M39.5548206,50.2178371 C39.5582153,49.7587973 39.255063,49.4392823 38.8112318,49.4341901 C38.3587779,49.4289622 38.0350533,49.751872 38.032066,50.2114549 C38.0275151,50.4165187 38.105829,50.6147575 38.2492995,50.7613458 C38.3927699,50.907934 38.5892795,50.990491 38.7943938,50.9903601 C39.2342871,50.9925218 39.5514937,50.6702231 39.5548206,50.2180407 L39.5548206,50.2178371 Z" id="Shape"></path>
            <path d="M27.5713773,50.993065 L27.5713773,52.341872 L27.2277595,52.341872 L27.2277595,49.1722502 L27.5374976,49.1566343 L27.5805432,49.3968477 C28.3125897,48.9832299 28.8897672,49.0302134 29.26,49.5258487 C29.5884772,49.9660136 29.5353831,50.6634336 29.1438312,51.0512512 C28.7248497,51.4663628 28.1561591,51.4524442 27.5713773,50.993065 Z M28.3205335,49.4345202 C27.8705917,49.4364306 27.5612609,49.7617168 27.5625469,50.2316198 C27.5638409,50.6905238 27.8938797,51.0327837 28.330582,51.0286421 C28.7657226,51.0242289 29.0977983,50.6734142 29.094743,50.2215034 C29.0915519,49.7610378 28.7683705,49.4324927 28.3205335,49.4345202 Z" id="Shape"></path>
            <path d="M45.1221629,51.3548109 C44.4451115,51.3394665 43.978128,50.8586324 43.9957129,50.1950242 C44.0132978,49.5325024 44.4981377,49.0845296 45.1838797,49.0976334 C45.8461979,49.1103298 46.3088361,49.5875655 46.2969544,50.2458778 C46.2848012,50.9126091 45.800097,51.3701552 45.1221629,51.3548109 Z M45.1444326,49.4343938 C44.6967313,49.4356838 44.3823763,49.7639573 44.3825121,50.230194 C44.3825121,50.6850921 44.7140446,51.0294568 45.1508147,51.0285083 C45.359772,51.0258423 45.5587936,50.9388862 45.702715,50.7873711 C45.8466365,50.6358559 45.9232536,50.43263 45.9151794,50.2238118 C45.9107662,49.7613094 45.5907081,49.4331717 45.1443647,49.4345296 L45.1444326,49.4343938 Z" id="Shape"></path>
            <path d="M34.5969059,51.3548902 C33.9207371,51.3522308 33.447032,50.8788652 33.4539573,50.2125412 C33.4607468,49.5479146 33.9396799,49.0917265 34.6241998,49.0977013 C35.2895732,49.1035403 35.7580504,49.5717459 35.7548756,50.2287682 C35.7517362,50.8983511 35.2795926,51.3575267 34.5969059,51.3548902 Z M34.6054607,49.4343938 C34.154161,49.4350048 33.8422502,49.7579825 33.8412294,50.2257808 C33.8402134,50.6846848 34.1674685,51.0291853 34.6038312,51.0284396 C35.0391756,51.0276916 35.3696896,50.6833269 35.3727449,50.2272745 C35.3758681,49.7695247 35.0509214,49.4337827 34.6054607,49.4345296 L34.6054607,49.4343938 Z" id="Shape"></path>
            <path d="M31.711969,51.2837924 L31.4121435,51.2837924 L31.3672648,51.0201552 C31.1740415,51.2543196 30.8770198,51.3770627 30.5748594,51.347614 C30.1908438,51.3241222 29.9168865,51.1212512 29.8715325,50.799903 C29.8220369,50.4494277 30.0022987,50.1612803 30.3907953,50.0636469 C30.6944229,49.9873327 31.0136663,49.9729389 31.3515131,49.9278565 C31.3910749,49.7666303 31.3165352,49.5990627 31.1703007,49.520485 C30.8231523,49.3345199 30.500582,49.4434239 30.1926091,49.6453443 L29.9624442,49.4544229 C30.3114258,49.0786227 31.0103395,48.9824151 31.396324,49.2341707 C31.6387779,49.3922987 31.7051115,49.640999 31.7097284,49.9071484 C31.7176722,50.3623181 31.711969,50.8176237 31.711969,51.2837924 Z M31.337323,50.2283608 C31.0408923,50.2712706 30.7554607,50.2924539 30.4812997,50.3596023 C30.3086421,50.4018332 30.228322,50.560097 30.2590786,50.7445005 C30.287934,50.9174976 30.4016586,51.0084093 30.5737051,51.0397769 C31.0584772,51.1283123 31.3965276,50.8027546 31.3372551,50.2282929 L31.337323,50.2283608 Z" id="Shape"></path>
            <path d="M21.8202425,49.6545102 L21.6165567,49.4381959 C21.9472745,49.080999 22.6447624,48.981872 23.0323084,49.2299612 C23.2293501,49.3568472 23.3458358,49.5774106 23.3395344,49.8116877 C23.3493113,50.2967992 23.3424539,50.7822502 23.3424539,51.2810766 L23.0450048,51.2810766 L23.0123472,51.0158778 C22.8185838,51.2514148 22.5207297,51.3756775 22.2170223,51.3476819 C21.8408826,51.3243938 21.5628516,51.1267507 21.5189913,50.8248885 C21.4639961,50.4463725 21.6306111,50.1748594 22.0269835,50.0635112 C22.2435694,50.0024054 22.4750921,49.9932396 22.7009117,49.9678468 C22.7942093,49.9620869 22.8877549,49.9615203 22.9811154,49.9661494 C23.0176431,49.751193 22.9612221,49.5898739 22.7931135,49.5086712 C22.4529583,49.3445005 22.1352764,49.4413191 21.8202425,49.6545102 Z M22.9840349,50.2348788 C22.6920854,50.2707274 22.4137148,50.2838991 22.1464791,50.3451406 C21.9675752,50.3858778 21.8703492,50.5400679 21.8989331,50.7371678 C21.9260912,50.9232008 22.0493889,51.0112609 22.2286324,51.0414743 C22.7015228,51.1213191 23.0204947,50.8113773 22.983967,50.2349467 L22.9840349,50.2348788 Z" id="Shape"></path>
            <path d="M41.9823472,50.9493404 L42.2276528,50.7567216 C42.3490563,50.8411929 42.4754342,50.9182803 42.6061009,50.9875655 C42.6884021,51.019936 42.7773951,51.0315934 42.865257,51.0215131 C43.1023472,51.0033172 43.265839,50.8783899 43.2689622,50.7146266 C43.2731717,50.4837827 43.0933172,50.4306887 42.9202522,50.3794956 C42.7505141,50.3293889 42.5733754,50.3005335 42.4110378,50.2343356 C42.2310425,50.1664562 42.1002199,50.0086406 42.0668916,49.8191805 C42.0335632,49.6297203 42.1026753,49.4367337 42.2487003,49.3115034 C42.6139088,48.9698545 43.3851988,49.0458293 43.5825024,49.4855868 L43.3004656,49.6805141 C43.11613,49.4515034 42.8905141,49.3624248 42.6283026,49.4781183 C42.5335203,49.5246178 42.4641344,49.6106296 42.4387391,49.7131038 C42.4305917,49.7793016 42.5330456,49.8971678 42.6116004,49.9283996 C42.8084966,50.0066828 43.0231814,50.039612 43.2250339,50.1075752 C43.5619302,50.2210281 43.7199903,50.4780795 43.6423181,50.8088652 C43.610749,50.9364488 43.5456546,51.0532766 43.453773,51.1472551 C43.161484,51.437032 42.2647915,51.4725412 41.9823472,50.9493404 Z" id="Path"></path>
            <path d="M48.3682347,50.7560427 L48.5888264,51.011872 C48.2659166,51.4373715 47.4911639,51.4803492 47.0469253,51.0919884 C46.5884287,50.6914064 46.5625606,49.8610475 46.994646,49.4158584 C47.4141028,48.9836372 48.2058972,48.9893404 48.6149661,49.4444423 L48.3642968,49.6744714 C47.9483026,49.3108923 47.4915034,49.386935 47.2559748,49.6694471 C46.9860233,49.9933075 47.0226867,50.5603686 47.3275364,50.8413191 C47.6180601,51.1091659 47.9961688,51.0878468 48.3682347,50.7560427 Z" id="Path"></path>
            <path d="M26.8467313,49.4494665 L26.5945005,49.6711445 C26.1400776,49.3596411 25.7458099,49.3598448 25.492289,49.6604171 C25.2254607,49.9764016 25.2467798,50.5248594 25.5373036,50.8191174 C25.8217847,51.1071969 26.1860427,51.0943647 26.5931426,50.7747818 L26.8290107,50.9955771 C26.5058972,51.4346557 25.728225,51.4823181 25.281678,51.0955868 C24.816324,50.6926285 24.7959554,49.8391853 25.2409408,49.4000388 C25.6657614,48.9812609 26.4519884,48.9966731 26.8467313,49.4494665 Z" id="Path"></path>
            <polygon id="Path" points="40.505354 51.4917556 40.2134045 51.3757905 41.5924248 47.8628904 41.8868865 47.9665664"></polygon>
            <path d="M36.2870902,49.1700776 L36.5801261,49.1700776 L36.6083026,49.4168768 C36.7425994,49.3297672 36.8649467,49.2223569 37.0074588,49.1661397 C37.1428419,49.1127061 37.2994083,49.1127061 37.4738312,49.0846654 L37.4539379,49.4540155 C36.8496702,49.4491271 36.6336954,49.6667992 36.6315907,50.2669932 C36.6304365,50.6038894 36.6315907,50.9408535 36.6315907,51.2888167 L36.2872939,51.2888167 L36.2870902,49.1700776 Z" id="Path"></path>
            <polygon id="Path" points="24.3640737 49.172386 24.3640737 51.2839282 24.0389234 51.2839282 24.0389234 49.172386"></polygon>
            <path d="M32.6508244,50.7707759 C32.7253382,50.772428 32.7958983,50.8046307 32.8459701,50.859838 C32.8960418,50.9150454 32.9212241,50.9884048 32.9156159,51.0627255 C32.9026479,51.2303589 32.7967313,51.3133948 32.6395538,51.3221532 C32.4927643,51.3303007 32.3667507,51.1817459 32.3747624,51.0287779 C32.3809407,50.8818444 32.5038092,50.767014 32.6508244,50.7707759 L32.6508244,50.7707759 Z" id="Path"></path>
            <path d="M24.2029583,48.0515034 C24.3684869,48.0714646 24.4566149,48.1644811 24.4462949,48.3307565 C24.4363143,48.4906499 24.3331135,48.5656741 24.1800776,48.5608535 C24.1123413,48.5659519 24.0458401,48.5406988 23.9985612,48.4919248 C23.9512823,48.4431509 23.9281112,48.3758959 23.9353152,48.3083511 C23.9387779,48.1445199 24.0343065,48.0552376 24.2029583,48.0515034 Z" id="Path"></path>
            <path d="M19.4562658,7.47920466 C19.4634285,6.76830467 20.0366941,6.19307986 20.7475655,6.18348662 C21.4672551,6.18131911 22.1198642,6.86923375 22.1265179,7.63760427 C22.1325606,8.3400485 21.526324,8.93922405 20.8103686,8.9384779 C20.0766246,8.93759457 19.4570126,8.26964113 19.4562658,7.47920466 Z" id="Path"></path>
            <path d="M64.3806499,21.9827158 C64.4824927,22.3239573 64.5979146,22.6193695 64.653453,22.9257129 C64.7009796,23.1890107 64.5746266,23.3377692 64.3232784,23.4261688 C64.1160263,23.5112337 63.8780041,23.4259725 63.7719011,23.2286615 C63.6422984,22.9979773 63.5275706,22.7592464 63.428419,22.5139282 C63.4166898,22.4571202 63.4352125,22.3982896 63.4773715,22.3584481 C63.7573715,22.232774 64.0434142,22.120679 64.3806499,21.9827158 Z" id="Path"></path>
            <path d="M26.0492338,6.77404462 C25.598613,6.77078565 25.2859554,6.42954413 25.293967,5.94972842 C25.3012318,5.51764306 25.6198642,5.20919496 26.0606402,5.20742396 C26.4842386,5.2057323 26.8273133,5.58180407 26.822968,6.04308438 C26.8190301,6.46960233 26.4933366,6.77723569 26.0492338,6.77404462 Z" id="Path"></path>
            <polygon id="Path" points="4.82911736 37.5542192 3.23357905 37.0063725 4.74866149 36.278128"></polygon>
            <polygon id="Path" points="5.92128031 26.3285548 4.63629486 25.2354413 6.30475267 25.1008729"></polygon>
            <path d="M64.5615907,29.8137536 C64.1134821,29.8137536 63.795936,29.4989234 63.7958681,29.0537342 C63.7958681,28.6285063 64.1607371,28.2901164 64.6250727,28.2850242 C64.8338828,28.2805919 65.0353133,28.3622926 65.1820376,28.5109306 C65.3287619,28.6595686 65.4078457,28.8620409 65.4007081,29.0707759 C65.3981959,29.5064597 65.0514549,29.8134821 64.5615907,29.8137536 Z" id="Path"></path>
            <path d="M4.56337536,29.0022017 C4.25784675,28.9397381 3.97031038,28.8894956 3.68888458,28.8156935 C3.62109702,28.7779676 3.57749008,28.7080169 3.57346266,28.6305432 C3.59965132,28.4344057 3.64110267,28.2406104 3.69743938,28.0509214 C3.78645005,27.7386033 4.02598448,27.5743647 4.29878758,27.6235209 C4.59114452,27.6762076 4.73555771,27.8753443 4.71939864,28.2217459 C4.70978483,28.3384337 4.69114844,28.4542018 4.66365664,28.5680116 C4.63500485,28.709098 4.59929195,28.8486906 4.56337536,29.0022017 Z" id="Path"></path>
            <path d="M8.85483026,19.2942677 C8.56532493,19.0246557 8.53728419,18.7164791 8.74809893,18.3973715 C8.9371193,18.111193 9.19342386,18.0329777 9.5456644,18.1817362 L8.85483026,19.2942677 Z" id="Path"></path>
            <path d="M16.1358487,10.9794083 C15.9619011,10.6285257 16.0618429,10.2993695 16.3789816,10.0883511 C16.6462852,9.91046557 16.9444132,9.94488846 17.1639185,10.1964403 L16.1358487,10.9794083 Z" id="Path"></path>
            <path d="M63.9172648,25.4422502 C64.2471678,25.3590786 64.5230262,25.5305141 64.6349176,25.8618429 C64.7576043,26.2250145 64.6450339,26.4988361 64.2831523,26.6515325 L63.9172648,25.4422502 Z" id="Path"></path>
            <path d="M29.3886615,5.21598448 C29.5697381,5.74848691 29.2726285,6.16991271 28.7881959,6.12883608 C28.6568376,6.10350667 28.5420505,6.02441362 28.4716004,5.91068865 C28.4320474,5.84568525 28.4220325,5.76691904 28.44406,5.69408587 C28.4660875,5.62125269 28.5180748,5.56123827 28.5870223,5.52904947 C28.8419011,5.40968962 29.1111736,5.32230844 29.3886615,5.21598448 Z" id="Path"></path>
            <path d="M38.0237148,4.89178468 C38.1038991,4.89918526 38.1847624,4.90196896 38.264064,4.91486906 C38.540194,4.95981571 38.5689137,5.0142677 38.4569544,5.26792435 C38.3890558,5.42961097 38.2547348,5.55416717 38.0883927,5.60969258 C37.9220505,5.66521798 37.739844,5.64631943 37.5884384,5.55783705 C37.4928021,5.49847933 37.4283816,5.39979743 37.4125218,5.28836081 C37.422328,5.16921388 37.4839334,5.0603745 37.5810378,4.99064016 C37.705354,4.91595538 37.869321,4.90733269 38.0163143,4.87046557 L38.0237148,4.89178468 Z" id="Path"></path>
            <path d="M44.685936,5.98876819 C44.6739864,6.461387 44.3401455,6.81878758 43.9167507,6.81220175 C43.7088175,6.81295973 43.5096901,6.72832404 43.3659348,6.5780869 C43.2221795,6.42784975 43.1464023,6.22518562 43.156324,6.01748788 C43.1672551,5.55491756 43.5118235,5.20009699 43.9429583,5.20736178 C44.1475528,5.20484373 44.343946,5.28768022 44.484935,5.43596151 C44.625924,5.5842428 44.6987597,5.78456048 44.685936,5.98876819 L44.685936,5.98876819 Z" id="Path"></path>
            <path d="M52.8523084,11.1733172 C52.8491174,10.7252085 53.2376819,10.306227 53.6583608,10.3042505 C54.0477401,10.3023569 54.4153249,10.663356 54.4196023,11.0519884 C54.4245587,11.5031523 54.0415616,11.9084869 53.6100873,11.9084869 C53.2004235,11.9082423 52.864958,11.5827857 52.8523084,11.1733172 Z" id="Path"></path>
            <path d="M65.0436469,31.3350824 C65.4588943,31.3117265 65.8108632,31.5757032 65.8361203,32.0960524 C65.8564888,32.5208729 65.4694859,32.8572939 65.0027061,32.8552662 C64.5535112,32.8532881 64.2371193,32.5394762 64.2349355,32.0938797 C64.232774,31.6313094 64.5480116,31.3354898 65.0436469,31.3350824 Z" id="Path"></path>
            <path d="M60.0358972,18.8635403 C59.6218742,18.8498476 59.2904271,18.5155414 59.280291,18.1014161 C59.2807662,17.6948594 59.7148206,17.2944811 60.1504365,17.299098 C60.5392726,17.3031717 60.8827546,17.6583996 60.8860136,18.0598642 C60.889612,18.4927643 60.4971775,18.863676 60.0358972,18.8635403 Z" id="Path"></path>
            <path d="M46.6983511,62.6333657 L46.2905723,61.7547333 C46.6101552,61.634355 46.9095732,61.4994471 47.2221629,61.4118623 C47.4206887,61.3562561 47.5731814,61.4777207 47.6584578,61.6690495 C47.7505238,61.8756547 47.7032687,62.0628419 47.5255868,62.1776528 C47.2686712,62.3435209 46.9896896,62.4749661 46.6983511,62.6333657 Z" id="Path"></path>
            <polygon id="Path" points="32.9660621 65.6872939 31.8706402 65.5995732 32.5308535 64.2620369"></polygon>
            <path d="M42.2512124,63.8690592 C42.2481571,63.3734239 42.3760039,63.1346363 42.6387585,63.0390398 C42.8816482,62.9413559 43.1597591,63.0271856 43.305354,63.2447624 C43.6496162,63.7030091 43.8184294,64.2693725 43.7812318,64.8413191 C43.7656159,65.1496314 43.5954025,65.3565761 43.3492144,65.4188361 C43.0677886,65.4900582 42.8576528,65.3679146 42.6987779,65.1510572 C42.3971193,64.7392047 42.2885548,64.2616974 42.2512124,63.8690592 Z" id="Path"></path>
            <path d="M53.5887682,60.0113191 C53.5691111,60.4046359 53.2504937,60.7168101 52.8568574,60.7284287 C52.4620831,60.7143021 52.148778,60.3912006 52.1468089,59.9961785 C52.1579437,59.6269641 52.5202328,59.2832784 52.8936566,59.2871484 C53.2633463,59.2909505 53.5933172,59.6347721 53.5887682,60.0113191 Z" id="Path"></path>
            <path d="M55.2378758,58.7354316 C54.8517896,58.7194985 54.5448004,58.4058163 54.5371969,58.0194762 C54.539098,57.6480213 54.8925606,57.2974103 55.2667992,57.2957808 C55.6609356,57.3111206 55.9741494,57.6322095 55.9796993,58.0266052 C55.9712803,58.3981959 55.6144229,58.739098 55.2378758,58.7354316 Z" id="Path"></path>
            <path d="M50.6652667,61.2057323 L49.6246363,61.8186227 C49.4728904,61.5185257 49.5627158,61.2389331 49.8565664,61.0550048 C50.1610087,60.8648982 50.4384287,60.9105917 50.6652667,61.2057323 Z" id="Path"></path>
            <path d="M12.8023957,55.5834627 C12.796278,55.9701589 12.4841396,56.2820868 12.0974394,56.2879437 C11.7045859,56.2739831 11.388702,55.9599333 11.3724539,55.5671678 C11.37879,55.172069 11.6970608,54.8530476 12.0921435,54.8457808 C12.4655674,54.8521629 12.802192,55.2016877 12.8023957,55.5834627 Z" id="Path"></path>
            <path d="M20.005063,61.7607759 L18.9754995,61.1476819 C19.1675752,60.8625218 19.452871,60.808613 19.7618623,60.9873812 C20.0758778,61.1691368 20.1673327,61.4367119 20.005063,61.7607759 Z" id="Path"></path>
            <path d="M67.0348788,62.3947818 L67.7390883,63.4888458 C67.4921532,63.5346751 67.3096508,63.5398351 67.1897478,63.2905917 C67.0883123,63.079709 66.9242774,62.8989719 66.8226382,62.688225 C66.7022599,62.4386421 66.5260718,62.3676237 66.2417265,62.4417653 L66.2417265,63.4941416 L65.8750921,63.4941416 L65.8750921,60.9480698 C66.3143744,60.9684384 66.7482929,60.9640931 67.1752861,61.0159651 C67.509806,61.0567022 67.6785936,61.3070999 67.6904753,61.6609699 C67.7024248,62.0183026 67.5504753,62.2430359 67.2236954,62.3483414 C67.1748788,62.3640252 67.1242289,62.3730553 67.0348788,62.3947818 Z M66.2462076,62.1164113 C66.5163628,62.0990301 66.7592241,62.0989622 66.9967895,62.0635209 C67.2082832,62.0319496 67.3095829,61.8802037 67.3044908,61.6708826 C67.3093746,61.5771398 67.2756569,61.4854863 67.2111867,61.4172576 C67.1467164,61.3490289 67.0571182,61.3101777 66.9632493,61.3097478 C66.7306402,61.2922308 66.4956547,61.3058099 66.2462755,61.3058099 L66.2462076,62.1164113 Z" id="Shape"></path>
        </g>
    </g>
</svg>