<?xml version="1.0" encoding="UTF-8"?>
<svg width="275px" height="18px" viewBox="0 0 275 18" version="1.1" xmlns="http://www.w3.org/2000/svg" xmlns:xlink="http://www.w3.org/1999/xlink">
    <title>16E38346-E90B-406A-8AE0-23DEABAD35C1</title>
    <g id="Page-1" stroke="none" stroke-width="1" fill="none" fill-rule="evenodd">
        <g id="Contact" transform="translate(-180.000000, -2650.000000)" fill="#FFFFFF">
            <g id="Footer" transform="translate(0.000000, 2590.000000)">
                <g id="TV-Logo" transform="translate(180.000000, 60.000000)">
                    <path d="M159.570363,13.4360656 C159.790392,13.2786885 159.905717,12.9957125 159.905717,12.5810845 L159.905717,5.41740227 C159.905717,5.13442623 159.778252,4.8998739 159.505113,4.71374527 C159.231974,4.52459016 158.802539,4.43076923 158.233499,4.43076923 L146.808697,4.43076923 L146.889122,12.5810845 C146.889122,12.9124842 147.004447,13.1697352 147.250272,13.3649433 C147.483958,13.5571248 147.899736,13.6539723 148.468776,13.6539723 L158.298749,13.6539723 C158.920899,13.6539723 159.336677,13.5843632 159.570363,13.4360656 Z M109.830215,17.7745271 L109.830215,0.155863808 L118.620742,0.155863808 L128.981818,13.2726356 L129.06983,13.5011349 L129.06983,0.155863808 L134.141113,0.155863808 L134.141113,17.7745271 L125.427975,17.7745271 L114.963713,4.56696091 L114.901498,4.40958386 L114.901498,17.7745271 L109.830215,17.7745271 Z M262.276736,17.8456494 L262.276736,4.24766709 L254.703195,4.24766709 L254.703195,0.155863808 L274.995913,0.155863808 L274.995913,1.93846154 C275.061163,3.32459016 274.347966,4.15838588 272.649952,4.24766709 L267.669715,4.24766709 L267.669715,14.443884 C267.593843,16.4807062 266.81388,17.9016393 264.338936,17.8456494 L262.276736,17.8456494 Z M228.094894,15.1172762 L228.094894,0.155863808 L242.425593,0.155863808 C243.642579,0.155863808 244.653194,0.245145019 245.460471,0.419167718 C246.263197,0.602269861 246.923283,0.898865069 247.430108,1.31197982 C247.949072,1.72660782 248.322362,2.28196721 248.557565,2.98865069 C248.803391,3.69079445 248.921751,4.58360656 248.921751,5.67162673 C248.921751,6.75056747 248.829187,7.6554855 248.633437,8.39394704 C248.452862,9.12332913 248.141787,9.71803279 247.7427,10.1704918 C247.326922,10.6168979 246.782161,10.9528373 246.105383,11.1601513 C245.417983,11.3674653 244.565182,11.4764187 243.551533,11.4764187 L243.551533,11.5596469 L250.592452,17.8456494 L246.639522,17.8456494 C244.926333,17.7276166 243.281428,17.4643127 242.021954,16.2401009 L234.229902,8.21084489 L241.971878,8.21084489 C242.501464,8.21084489 242.982493,8.05649433 243.396754,7.74022699 C243.800393,7.42093317 244.008282,6.96393443 244.008282,6.36317781 C244.008282,5.83656999 243.812532,5.40529634 243.408893,5.06935687 C243.020429,4.73190416 242.556092,4.56696091 242.037128,4.56696091 L233.489392,4.56696091 L233.489392,17.8456494 L231.415052,17.8456494 C229.459072,17.7276166 228.240568,16.931652 228.094894,15.1172762 Z M201.398582,13.985372 L201.398582,0.155863808 L220.330157,0.155863808 L220.330157,4.24766709 L206.779422,4.24766709 L206.779422,7.22269861 L220.226971,7.22269861 L220.226971,10.7969735 L206.779422,10.7969735 L206.779422,12.0968474 C206.779422,13.3271122 207.27259,13.7250946 208.296862,13.7250946 L220.330157,13.7250946 L220.330157,17.8456494 L205.327233,17.8456494 C202.969132,17.8834805 201.567018,16.6986129 201.398582,13.985372 Z M53.5802516,16.6047919 C52.6591659,15.7831021 52.2054515,14.5679697 52.2054515,12.9563682 C52.2054515,12.8973518 52.2054515,12.043884 52.2054515,10.3974779 L52.2054515,7.60403531 C52.2054515,5.95611602 52.2054515,5.10718789 52.2054515,5.06330391 C52.2054515,3.43959647 52.6591659,2.21689786 53.5802516,1.38915511 C54.4876804,0.570491803 55.901934,0.155863808 57.807838,0.155863808 L72.6529482,0.155863808 L72.6529482,4.50189155 L58.4026742,4.50189155 C57.8837099,4.50189155 57.507385,4.58360656 57.2494202,4.77276166 C57.003595,4.9482976 56.8852348,5.17225725 56.8852348,5.44464061 L56.8230198,6.90340479 L56.8230198,11.095082 L56.8852348,12.4842371 C56.8852348,12.8156368 57.003595,13.0789407 57.2494202,13.2726356 C57.4846234,13.4678436 57.8730879,13.5662043 58.4026742,13.5662043 L72.6529482,13.5662043 L72.6529482,17.8456494 L57.807838,17.8456494 C55.901934,17.8456494 54.4876804,17.4325347 53.5802516,16.6047919 Z M25.9234,13.985372 L25.9234,0.155863808 L44.8519398,0.155863808 L44.8519398,4.24766709 L31.3057578,4.24766709 L31.3057578,7.22269861 L44.7639284,7.22269861 L44.7639284,10.7969735 L31.3057578,10.7969735 L31.3057578,12.0968474 C31.3057578,13.3271122 31.8095477,13.7250946 32.8201624,13.7250946 L44.8519398,13.7250946 L44.8519398,17.8456494 L29.8535682,17.8456494 C27.490915,17.8834805 26.1039753,16.6986129 25.9234,13.985372 Z M7.34387126,14.443884 L7.34387126,4.24766709 L2.36363495,4.24766709 C0.651963235,4.15838588 -0.0475763559,3.32459016 0.00249914629,1.93846154 L0.00249914629,0.155863808 L20.2952171,0.155863808 L20.2952171,4.24766709 L12.7231941,4.24766709 L12.7231941,17.8456494 L10.6746509,17.8456494 C8.18453272,17.9016393 7.40608628,16.4807062 7.34387126,14.443884 Z M79.9943203,17.8456494 L79.9943203,0.155863808 L85.3873002,0.155863808 L85.3873002,9.55006305 C85.9957934,8.44388398 87.2674077,6.52358134 89.8986477,6.52358134 L96.8864564,6.52358134 L96.8864564,0.155863808 L102.268814,0.155863808 L102.268814,17.8456494 L96.8864564,17.8456494 L96.8864564,11.2494325 L85.3873002,11.2494325 L85.3873002,17.8456494 L79.9943203,17.8456494 Z M179.237896,17.9667087 L169.722033,0.155863808 L173.637027,0.155863808 C175.049763,0.155863808 175.945052,0.626481715 176.436703,1.56620429 L182.599024,13.4088272 L188.627811,1.82345523 C189.237822,0.490290038 190.521576,0.155863808 191.673312,0.155863808 L195.472981,0.155863808 L186.137693,17.9667087 L179.237896,17.9667087 Z M148.767712,17.9667087 C147.784411,17.9394704 146.927057,17.8895334 146.212344,17.798739 C145.502182,17.7094578 144.917968,17.5581337 144.436939,17.3462799 C143.969568,17.138966 143.55379,16.8348045 143.166843,16.4474149 C142.725268,16.0479193 142.427849,15.6030265 142.271553,15.1354351 C142.116774,14.6572509 142.025728,14.0625473 142.025728,13.3437579 L142.025728,0.0771752837 C143.05,0.0438839849 151.333702,0 153.32003,0 C155.291184,0 156.808623,0.0151324086 157.845034,0.0378310214 C158.882963,0.0711223203 159.763078,0.136191677 160.462617,0.233039092 C161.177331,0.331399748 161.772168,0.478184111 162.253196,0.685498108 C162.720567,0.886759142 163.148485,1.17578815 163.535432,1.55107188 C163.966385,1.95359395 164.27746,2.40605296 164.430722,2.896343 C164.600675,3.39571248 164.676547,4.00252207 164.676547,4.7258512 C164.676547,6.43430013 164.676547,8.44993695 164.676547,10.7788146 L164.676547,13.3437579 C164.676547,14.0625473 164.600675,14.6572509 164.430722,15.1354351 C164.27746,15.6030265 163.966385,16.0479193 163.535432,16.4474149 C163.148485,16.8348045 162.732707,17.138966 162.266853,17.3462799 C161.811621,17.5581337 161.230442,17.7094578 160.527867,17.798739 C159.840467,17.8895334 158.998288,17.9394704 157.999813,17.9667087 C157.001338,17.993947 155.45962,18 153.38528,18 C151.31094,18 149.766187,17.993947 148.767712,17.9667087 L148.767712,17.9667087 Z" id="Fill-152-Copy-2"></path>
                </g>
            </g>
        </g>
    </g>
</svg>